<?xml version="1.0" encoding="UTF-8"?>
<svg xmlns="http://www.w3.org/2000/svg" viewBox="0 0 1200 1200" role="img" aria-labelledby="hwa-039-title hwa-039-desc">
  <title id="hwa-039-title">HWA Genesis Position #039</title>
  <desc id="hwa-039-desc">An abstract deterministic liquidity footprint for a simulated short HWA position in the scalp visual class.</desc>
  <defs>
    <linearGradient id="hwa-039-wash" x1="0" y1="0" x2="1" y2="1">
      <stop offset="0" stop-color="#FFB45C" stop-opacity="0.13"/>
      <stop offset="0.55" stop-color="#07100F" stop-opacity="0"/>
      <stop offset="1" stop-color="#C8FF3D" stop-opacity="0.12"/>
    </linearGradient>
    <radialGradient id="hwa-039-pulse" cx="50%" cy="50%" r="50%">
      <stop offset="0" stop-color="#FF6685" stop-opacity="0.22"/>
      <stop offset="1" stop-color="#FF6685" stop-opacity="0"/>
    </radialGradient>
    <filter id="hwa-039-glow" x="-100%" y="-100%" width="300%" height="300%">
      <feGaussianBlur stdDeviation="12" result="blur"/>
      <feMerge><feMergeNode in="blur"/><feMergeNode in="SourceGraphic"/></feMerge>
    </filter>
  </defs>

  <rect width="1200" height="1200" fill="#07100F"/>
  <rect width="1200" height="1200" fill="url(#hwa-039-wash)"/>
  <g><path d="M -80 280.8 L 90 306.2 L 260 311.1 L 430 306.7 L 600 272.5 L 770 255.1 L 940 248.2 L 1110 263.3 L 1280 285.8" fill="none" stroke="#FFB45C" stroke-opacity="0.050" stroke-width="1.5"/>
<path d="M -80 452.3 L 90 463.1 L 260 439.7 L 430 413.6 L 600 394.1 L 770 390.6 L 940 411.5 L 1110 440.2 L 1280 459.4" fill="none" stroke="#C8FF3D" stroke-opacity="0.062" stroke-width="1.5"/>
<path d="M -80 616.7 L 90 589.9 L 260 549.8 L 430 523.7 L 600 524.2 L 770 566.3 L 940 603.1 L 1110 613.3 L 1280 615.8" fill="none" stroke="#FFB45C" stroke-opacity="0.074" stroke-width="1.5"/>
<path d="M -80 718.8 L 90 671.6 L 260 659.1 L 430 679.4 L 600 697.1 L 770 757.9 L 940 768.4 L 1110 750.5 L 1280 729.5" fill="none" stroke="#C8FF3D" stroke-opacity="0.086" stroke-width="1.5"/>
<path d="M -80 821.3 L 90 796.0 L 260 815.9 L 430 858.0 L 600 903.9 L 770 923.9 L 940 892.0 L 1110 854.5 L 1280 802.1" fill="none" stroke="#FFB45C" stroke-opacity="0.098" stroke-width="1.5"/></g>
  <g stroke="#A9C0BA" stroke-opacity="0.055" stroke-width="1">
    <path d="M 80 0 V 1200 M 280 0 V 1200 M 480 0 V 1200 M 680 0 V 1200 M 880 0 V 1200 M 1080 0 V 1200"/>
    <path d="M 0 250 H 1200 M 0 450 H 1200 M 0 650 H 1200 M 0 850 H 1200 M 0 1050 H 1200"/>
  </g>
  <rect x="42" y="42" width="1116" height="1116" rx="26" fill="none" stroke="#9EB3AE" stroke-opacity="0.16"/>
  

  <text x="82" y="105" fill="#F1F7F5" font-family="Arial, sans-serif" font-size="24" font-weight="700" letter-spacing="2">HWA</text>
  <text x="153" y="105" fill="#718580" font-family="monospace" font-size="15" letter-spacing="2.4">GENESIS / SIM</text>
  <text x="1118" y="105" text-anchor="end" fill="#718580" font-family="monospace" font-size="16">#039</text>

  <text x="82" y="178" fill="#718580" font-family="monospace" font-size="16" letter-spacing="2">HWA/HYPE · 15M · 48X</text>
  <text x="82" y="276" fill="#FF6685" font-family="Arial, sans-serif" font-size="94" font-weight="300" letter-spacing="-5">-53.5%</text>
  <text x="1118" y="250" text-anchor="end" fill="#FF6685" font-family="monospace" font-size="20" font-weight="700" letter-spacing="2">SHORT</text>
  <text x="1118" y="280" text-anchor="end" fill="#718580" font-family="monospace" font-size="14">MEAN REVERT</text>

  <g><rect x="213.0" y="416.4" width="774.0" height="453.2" rx="64" fill="none" stroke="#FFB45C" stroke-opacity="0.20" stroke-width="1.5"/>
<rect x="238.0" y="432.6" width="724.0" height="420.7" rx="57" fill="none" stroke="#C8FF3D" stroke-opacity="0.18" stroke-width="1.5"/><line x1="197.0" y1="773.4" x2="197.0" y2="825.5" stroke="#C8FF3D" stroke-opacity="0.27" stroke-width="2"/>
<line x1="244.4" y1="472.9" x2="244.4" y2="500.3" stroke="#FFB45C" stroke-opacity="0.31" stroke-width="2"/>
<line x1="291.8" y1="789.1" x2="291.8" y2="809.8" stroke="#FFB45C" stroke-opacity="0.34" stroke-width="2"/>
<line x1="339.2" y1="476.2" x2="339.2" y2="497.0" stroke="#C8FF3D" stroke-opacity="0.32" stroke-width="2"/>
<line x1="386.6" y1="771.5" x2="386.6" y2="827.4" stroke="#FFB45C" stroke-opacity="0.21" stroke-width="2"/>
<line x1="434.1" y1="468.9" x2="434.1" y2="504.3" stroke="#FFB45C" stroke-opacity="0.23" stroke-width="2"/>
<line x1="481.5" y1="782.2" x2="481.5" y2="816.6" stroke="#C8FF3D" stroke-opacity="0.15" stroke-width="2"/>
<line x1="528.9" y1="474.0" x2="528.9" y2="499.2" stroke="#FFB45C" stroke-opacity="0.34" stroke-width="2"/>
<line x1="576.3" y1="779.8" x2="576.3" y2="819.1" stroke="#FFB45C" stroke-opacity="0.29" stroke-width="2"/>
<line x1="623.7" y1="456.7" x2="623.7" y2="516.5" stroke="#C8FF3D" stroke-opacity="0.17" stroke-width="2"/>
<line x1="671.1" y1="784.5" x2="671.1" y2="814.3" stroke="#FFB45C" stroke-opacity="0.20" stroke-width="2"/>
<line x1="718.5" y1="477.7" x2="718.5" y2="495.4" stroke="#FFB45C" stroke-opacity="0.33" stroke-width="2"/>
<line x1="765.9" y1="791.0" x2="765.9" y2="807.9" stroke="#C8FF3D" stroke-opacity="0.25" stroke-width="2"/>
<line x1="813.4" y1="477.0" x2="813.4" y2="496.1" stroke="#FFB45C" stroke-opacity="0.18" stroke-width="2"/>
<line x1="860.8" y1="770.6" x2="860.8" y2="828.3" stroke="#FFB45C" stroke-opacity="0.17" stroke-width="2"/>
<line x1="908.2" y1="460.3" x2="908.2" y2="512.8" stroke="#C8FF3D" stroke-opacity="0.23" stroke-width="2"/>
<line x1="955.6" y1="790.0" x2="955.6" y2="808.9" stroke="#FFB45C" stroke-opacity="0.14" stroke-width="2"/>
<line x1="1003.0" y1="480.9" x2="1003.0" y2="492.3" stroke="#FFB45C" stroke-opacity="0.17" stroke-width="2"/><rect x="475.9" y="438.4" width="101.1" height="3" rx="1.5" fill="#50E3C2" fill-opacity="0.26"/>
      <rect x="623" y="438.4" width="76.1" height="3" rx="1.5" fill="#FF6685" fill-opacity="0.26"/>
<rect x="460.8" y="472.2" width="116.2" height="3" rx="1.5" fill="#50E3C2" fill-opacity="0.30"/>
      <rect x="623" y="472.2" width="84.7" height="3" rx="1.5" fill="#FF6685" fill-opacity="0.30"/>
<rect x="342.4" y="506.1" width="234.6" height="3" rx="1.5" fill="#50E3C2" fill-opacity="0.33"/>
      <rect x="623" y="506.1" width="133.7" height="3" rx="1.5" fill="#FF6685" fill-opacity="0.33"/>
<rect x="308.8" y="539.9" width="268.2" height="3" rx="1.5" fill="#50E3C2" fill-opacity="0.36"/>
      <rect x="623" y="539.9" width="275.2" height="3" rx="1.5" fill="#FF6685" fill-opacity="0.36"/>
<rect x="422.2" y="573.8" width="154.8" height="3" rx="1.5" fill="#50E3C2" fill-opacity="0.39"/>
      <rect x="623" y="573.8" width="199.4" height="3" rx="1.5" fill="#FF6685" fill-opacity="0.39"/>
<rect x="348.2" y="607.6" width="228.8" height="3" rx="1.5" fill="#50E3C2" fill-opacity="0.40"/>
      <rect x="623" y="607.6" width="249.4" height="3" rx="1.5" fill="#FF6685" fill-opacity="0.40"/>
<rect x="432.6" y="639.5" width="144.4" height="7" rx="3.5" fill="#50E3C2" fill-opacity="0.86"/>
      <rect x="623" y="639.5" width="175.8" height="7" rx="3.5" fill="#FF6685" fill-opacity="0.86"/>
<rect x="271.8" y="675.4" width="305.2" height="3" rx="1.5" fill="#50E3C2" fill-opacity="0.40"/>
      <rect x="623" y="675.4" width="145.4" height="3" rx="1.5" fill="#FF6685" fill-opacity="0.40"/>
<rect x="332.5" y="709.2" width="244.5" height="3" rx="1.5" fill="#50E3C2" fill-opacity="0.39"/>
      <rect x="623" y="709.2" width="283.7" height="3" rx="1.5" fill="#FF6685" fill-opacity="0.39"/>
<rect x="314.9" y="743.1" width="262.1" height="3" rx="1.5" fill="#50E3C2" fill-opacity="0.36"/>
      <rect x="623" y="743.1" width="256.8" height="3" rx="1.5" fill="#FF6685" fill-opacity="0.36"/>
<rect x="463.5" y="776.9" width="113.5" height="3" rx="1.5" fill="#50E3C2" fill-opacity="0.33"/>
      <rect x="623" y="776.9" width="108.8" height="3" rx="1.5" fill="#FF6685" fill-opacity="0.33"/>
<rect x="426.5" y="810.8" width="150.5" height="3" rx="1.5" fill="#50E3C2" fill-opacity="0.30"/>
      <rect x="623" y="810.8" width="161.0" height="3" rx="1.5" fill="#FF6685" fill-opacity="0.30"/>
<rect x="445.4" y="844.6" width="131.6" height="3" rx="1.5" fill="#50E3C2" fill-opacity="0.26"/>
      <rect x="623" y="844.6" width="114.1" height="3" rx="1.5" fill="#FF6685" fill-opacity="0.26"/></g>
  <line x1="197.0" y1="646.9" x2="1003.0" y2="646.9" stroke="#B4C7C2" stroke-opacity="0.18" stroke-dasharray="5 12"/>
  <path d="M 229.0 646.9 L 282.0 644.2 L 335.0 630.7 L 388.0 645.8 L 441.0 650.9 L 494.0 618.0 L 547.0 631.9 L 600.0 627.5 L 653.0 632.3 L 706.0 616.2 L 759.0 650.3 L 812.0 621.4 L 865.0 642.6 L 918.0 621.4 L 971.0 624.4" fill="none" stroke="#FF6685" stroke-width="3.5" stroke-linecap="round" stroke-linejoin="round"/>
  <circle cx="197.0" cy="646.9" r="6" fill="#07100F" stroke="#B4C7C2" stroke-width="2"/>
  <circle cx="1003.0" cy="624.4" r="8" fill="#FF6685" filter="url(#hwa-039-glow)"/>
  <circle cx="422.7" cy="643.0" r="78.3" fill="url(#hwa-039-pulse)"/>
  <circle cx="422.7" cy="643.0" r="29.0" fill="#030807" stroke="#C8FF3D" stroke-width="2"/><circle cx="422.7" cy="643.0" r="18.6" fill="none" stroke="#FFB45C" stroke-width="1.5" stroke-dasharray="3 7"/>
  <text x="205.0" y="633.9" fill="#718580" font-family="monospace" font-size="12">ENTRY</text>
  <text x="995.0" y="610.4" text-anchor="end" fill="#FF6685" font-family="monospace" font-size="12">MARK</text>

  <path d="M 82 976 H 1118" stroke="#9EB3AE" stroke-opacity="0.15"/>
  <g font-family="monospace">
    <text x="82" y="1020" fill="#647873" font-size="14" letter-spacing="2">SIZE</text>
    <text x="82" y="1053" fill="#E3ECE9" font-size="21">0.488 HYPE</text>
    <text x="355" y="1020" fill="#647873" font-size="14" letter-spacing="2">ENTRY</text>
    <text x="355" y="1053" fill="#E3ECE9" font-size="21">0.001568</text>
    <text x="600" y="1020" fill="#647873" font-size="14" letter-spacing="2">MARK</text>
    <text x="600" y="1053" fill="#E3ECE9" font-size="21">0.001585</text>
    <text x="1118" y="1020" text-anchor="end" fill="#FFB45C" font-size="16" font-weight="700" letter-spacing="2">SCALP</text>
    <text x="1118" y="1053" text-anchor="end" fill="#647873" font-size="13">1 / 333 EQUAL UNIT</text>
    <text x="82" y="1114" fill="#536660" font-size="12" letter-spacing="1.5">ABSTRACT LIQUIDITY FOOTPRINT · HWA-GEN-2.0.0</text>
  </g>
</svg>
