<?xml version="1.0" encoding="UTF-8"?>
<svg xmlns="http://www.w3.org/2000/svg" viewBox="0 0 1200 1200" role="img" aria-labelledby="hwa-059-title hwa-059-desc">
  <title id="hwa-059-title">HWA Genesis Position #059</title>
  <desc id="hwa-059-desc">An abstract deterministic liquidity footprint for a simulated short HWA position in the size visual class.</desc>
  <defs>
    <linearGradient id="hwa-059-wash" x1="0" y1="0" x2="1" y2="1">
      <stop offset="0" stop-color="#8DCEFF" stop-opacity="0.13"/>
      <stop offset="0.55" stop-color="#07100F" stop-opacity="0"/>
      <stop offset="1" stop-color="#B89CFF" stop-opacity="0.12"/>
    </linearGradient>
    <radialGradient id="hwa-059-pulse" cx="50%" cy="50%" r="50%">
      <stop offset="0" stop-color="#8DCEFF" stop-opacity="0.22"/>
      <stop offset="1" stop-color="#8DCEFF" stop-opacity="0"/>
    </radialGradient>
    <filter id="hwa-059-glow" x="-100%" y="-100%" width="300%" height="300%">
      <feGaussianBlur stdDeviation="12" result="blur"/>
      <feMerge><feMergeNode in="blur"/><feMergeNode in="SourceGraphic"/></feMerge>
    </filter>
  </defs>

  <rect width="1200" height="1200" fill="#07100F"/>
  <rect width="1200" height="1200" fill="url(#hwa-059-wash)"/>
  <g><path d="M -80 273.3 L 90 307.8 L 260 311.9 L 430 305.9 L 600 283.3 L 770 259.4 L 940 248.7 L 1110 260.7 L 1280 281.0" fill="none" stroke="#8DCEFF" stroke-opacity="0.050" stroke-width="1.5"/>
<path d="M -80 459.4 L 90 464.2 L 260 450.5 L 430 416.6 L 600 387.4 L 770 388.6 L 940 412.5 L 1110 432.9 L 1280 463.5" fill="none" stroke="#B89CFF" stroke-opacity="0.062" stroke-width="1.5"/>
<path d="M -80 612.6 L 90 590.0 L 260 547.0 L 430 524.2 L 600 533.8 L 770 556.0 L 940 598.5 L 1110 618.0 L 1280 614.2" fill="none" stroke="#8DCEFF" stroke-opacity="0.074" stroke-width="1.5"/>
<path d="M -80 711.5 L 90 680.0 L 260 659.4 L 430 678.9 L 600 708.9 L 770 751.6 L 940 769.3 L 1110 757.4 L 1280 707.7" fill="none" stroke="#B89CFF" stroke-opacity="0.086" stroke-width="1.5"/>
<path d="M -80 821.6 L 90 796.3 L 260 815.0 L 430 854.5 L 600 918.0 L 770 923.8 L 940 903.4 L 1110 857.8 L 1280 802.3" fill="none" stroke="#8DCEFF" stroke-opacity="0.098" stroke-width="1.5"/></g>
  <g stroke="#A9C0BA" stroke-opacity="0.055" stroke-width="1">
    <path d="M 80 0 V 1200 M 280 0 V 1200 M 480 0 V 1200 M 680 0 V 1200 M 880 0 V 1200 M 1080 0 V 1200"/>
    <path d="M 0 250 H 1200 M 0 450 H 1200 M 0 650 H 1200 M 0 850 H 1200 M 0 1050 H 1200"/>
  </g>
  <rect x="42" y="42" width="1116" height="1116" rx="26" fill="none" stroke="#9EB3AE" stroke-opacity="0.16"/>
  

  <text x="82" y="105" fill="#F1F7F5" font-family="Arial, sans-serif" font-size="24" font-weight="700" letter-spacing="2">HWA</text>
  <text x="153" y="105" fill="#718580" font-family="monospace" font-size="15" letter-spacing="2.4">GENESIS / SIM</text>
  <text x="1118" y="105" text-anchor="end" fill="#718580" font-family="monospace" font-size="16">#059</text>

  <text x="82" y="178" fill="#718580" font-family="monospace" font-size="16" letter-spacing="2">HWA/HYPE · 1H · 39X</text>
  <text x="82" y="276" fill="#8DCEFF" font-family="Arial, sans-serif" font-size="94" font-weight="300" letter-spacing="-5">+253.4%</text>
  <text x="1118" y="250" text-anchor="end" fill="#8DCEFF" font-family="monospace" font-size="20" font-weight="700" letter-spacing="2">SHORT</text>
  <text x="1118" y="280" text-anchor="end" fill="#718580" font-family="monospace" font-size="14">MEAN REVERT</text>

  <g><rect x="187.5" y="400.9" width="825.0" height="484.2" rx="64" fill="none" stroke="#8DCEFF" stroke-opacity="0.20" stroke-width="1.5"/>
<rect x="212.5" y="417.1" width="775.0" height="451.7" rx="57" fill="none" stroke="#B89CFF" stroke-opacity="0.18" stroke-width="1.5"/>
<rect x="237.5" y="433.4" width="725.0" height="419.2" rx="50" fill="none" stroke="#8DCEFF" stroke-opacity="0.16" stroke-width="1.5"/>
<rect x="262.5" y="449.6" width="675.0" height="386.7" rx="43" fill="none" stroke="#B89CFF" stroke-opacity="0.13" stroke-width="1.5"/><line x1="171.5" y1="798.6" x2="171.5" y2="820.7" stroke="#B89CFF" stroke-opacity="0.27" stroke-width="2"/>
<line x1="221.9" y1="464.1" x2="221.9" y2="488.6" stroke="#8DCEFF" stroke-opacity="0.33" stroke-width="2"/>
<line x1="272.3" y1="801.2" x2="272.3" y2="818.1" stroke="#8DCEFF" stroke-opacity="0.28" stroke-width="2"/>
<line x1="322.7" y1="468.0" x2="322.7" y2="484.7" stroke="#B89CFF" stroke-opacity="0.22" stroke-width="2"/>
<line x1="373.1" y1="787.7" x2="373.1" y2="831.6" stroke="#8DCEFF" stroke-opacity="0.16" stroke-width="2"/>
<line x1="423.6" y1="451.2" x2="423.6" y2="501.5" stroke="#8DCEFF" stroke-opacity="0.13" stroke-width="2"/>
<line x1="474.0" y1="787.8" x2="474.0" y2="831.5" stroke="#B89CFF" stroke-opacity="0.20" stroke-width="2"/>
<line x1="524.4" y1="470.6" x2="524.4" y2="482.1" stroke="#8DCEFF" stroke-opacity="0.14" stroke-width="2"/>
<line x1="574.8" y1="780.7" x2="574.8" y2="838.6" stroke="#8DCEFF" stroke-opacity="0.29" stroke-width="2"/>
<line x1="625.2" y1="464.2" x2="625.2" y2="488.5" stroke="#B89CFF" stroke-opacity="0.24" stroke-width="2"/>
<line x1="675.6" y1="778.2" x2="675.6" y2="841.1" stroke="#8DCEFF" stroke-opacity="0.26" stroke-width="2"/>
<line x1="726.0" y1="446.4" x2="726.0" y2="506.3" stroke="#8DCEFF" stroke-opacity="0.30" stroke-width="2"/>
<line x1="776.4" y1="793.8" x2="776.4" y2="825.5" stroke="#B89CFF" stroke-opacity="0.31" stroke-width="2"/>
<line x1="826.9" y1="464.3" x2="826.9" y2="488.4" stroke="#8DCEFF" stroke-opacity="0.25" stroke-width="2"/>
<line x1="877.3" y1="791.3" x2="877.3" y2="828.0" stroke="#8DCEFF" stroke-opacity="0.13" stroke-width="2"/>
<line x1="927.7" y1="460.1" x2="927.7" y2="492.6" stroke="#B89CFF" stroke-opacity="0.32" stroke-width="2"/>
<line x1="978.1" y1="795.7" x2="978.1" y2="823.6" stroke="#8DCEFF" stroke-opacity="0.32" stroke-width="2"/>
<line x1="1028.5" y1="468.4" x2="1028.5" y2="484.3" stroke="#8DCEFF" stroke-opacity="0.26" stroke-width="2"/><rect x="455.1" y="425.1" width="121.9" height="3" rx="1.5" fill="#50E3C2" fill-opacity="0.26"/>
      <rect x="623" y="425.1" width="98.1" height="3" rx="1.5" fill="#FF6685" fill-opacity="0.26"/>
<rect x="404.6" y="461.1" width="172.4" height="3" rx="1.5" fill="#50E3C2" fill-opacity="0.30"/>
      <rect x="623" y="461.1" width="156.4" height="3" rx="1.5" fill="#FF6685" fill-opacity="0.30"/>
<rect x="420.8" y="497.2" width="156.2" height="3" rx="1.5" fill="#50E3C2" fill-opacity="0.33"/>
      <rect x="623" y="497.2" width="234.1" height="3" rx="1.5" fill="#FF6685" fill-opacity="0.33"/>
<rect x="367.4" y="533.3" width="209.6" height="3" rx="1.5" fill="#50E3C2" fill-opacity="0.36"/>
      <rect x="623" y="533.3" width="186.0" height="3" rx="1.5" fill="#FF6685" fill-opacity="0.36"/>
<rect x="335.8" y="569.4" width="241.2" height="3" rx="1.5" fill="#50E3C2" fill-opacity="0.39"/>
      <rect x="623" y="569.4" width="224.4" height="3" rx="1.5" fill="#FF6685" fill-opacity="0.39"/>
<rect x="362.4" y="605.4" width="214.6" height="3" rx="1.5" fill="#50E3C2" fill-opacity="0.40"/>
      <rect x="623" y="605.4" width="194.3" height="3" rx="1.5" fill="#FF6685" fill-opacity="0.40"/>
<rect x="424.5" y="639.5" width="152.5" height="7" rx="3.5" fill="#50E3C2" fill-opacity="0.86"/>
      <rect x="623" y="639.5" width="194.5" height="7" rx="3.5" fill="#FF6685" fill-opacity="0.86"/>
<rect x="327.2" y="677.6" width="249.8" height="3" rx="1.5" fill="#50E3C2" fill-opacity="0.40"/>
      <rect x="623" y="677.6" width="318.4" height="3" rx="1.5" fill="#FF6685" fill-opacity="0.40"/>
<rect x="414.4" y="713.6" width="162.6" height="3" rx="1.5" fill="#50E3C2" fill-opacity="0.39"/>
      <rect x="623" y="713.6" width="319.7" height="3" rx="1.5" fill="#FF6685" fill-opacity="0.39"/>
<rect x="346.3" y="749.7" width="230.7" height="3" rx="1.5" fill="#50E3C2" fill-opacity="0.36"/>
      <rect x="623" y="749.7" width="125.9" height="3" rx="1.5" fill="#FF6685" fill-opacity="0.36"/>
<rect x="429.4" y="785.8" width="147.6" height="3" rx="1.5" fill="#50E3C2" fill-opacity="0.33"/>
      <rect x="623" y="785.8" width="122.8" height="3" rx="1.5" fill="#FF6685" fill-opacity="0.33"/>
<rect x="461.9" y="821.9" width="115.1" height="3" rx="1.5" fill="#50E3C2" fill-opacity="0.30"/>
      <rect x="623" y="821.9" width="106.0" height="3" rx="1.5" fill="#FF6685" fill-opacity="0.30"/>
<rect x="441.2" y="857.9" width="135.8" height="3" rx="1.5" fill="#50E3C2" fill-opacity="0.26"/>
      <rect x="623" y="857.9" width="102.2" height="3" rx="1.5" fill="#FF6685" fill-opacity="0.26"/></g>
  <line x1="171.5" y1="660.1" x2="1028.5" y2="660.1" stroke="#B4C7C2" stroke-opacity="0.18" stroke-dasharray="5 12"/>
  <path d="M 203.5 660.1 L 260.1 662.4 L 316.8 681.4 L 373.4 687.0 L 430.1 679.5 L 486.7 716.9 L 543.4 713.1 L 600.0 726.5 L 656.6 695.9 L 713.3 728.0 L 769.9 765.1 L 826.6 724.4 L 883.2 760.0 L 939.9 752.8 L 996.5 766.5" fill="none" stroke="#8DCEFF" stroke-width="3.5" stroke-linecap="round" stroke-linejoin="round"/>
  <circle cx="171.5" cy="660.1" r="6" fill="#07100F" stroke="#B4C7C2" stroke-width="2"/>
  <circle cx="1028.5" cy="766.5" r="8" fill="#8DCEFF" filter="url(#hwa-059-glow)"/>
  <circle cx="411.5" cy="643.0" r="85.1" fill="url(#hwa-059-pulse)"/>
  <rect x="380.0" y="611.5" width="63.0" height="63.0" rx="7" fill="#07100F" stroke="#8DCEFF" stroke-width="2"/><rect x="406.5" y="638.0" width="10" height="10" rx="2" fill="#8DCEFF"/>
  <text x="179.5" y="647.1" fill="#718580" font-family="monospace" font-size="12">ENTRY</text>
  <text x="1020.5" y="752.5" text-anchor="end" fill="#8DCEFF" font-family="monospace" font-size="12">MARK</text>

  <path d="M 82 976 H 1118" stroke="#9EB3AE" stroke-opacity="0.15"/>
  <g font-family="monospace">
    <text x="82" y="1020" fill="#647873" font-size="14" letter-spacing="2">SIZE</text>
    <text x="82" y="1053" fill="#E3ECE9" font-size="21">6.085 HYPE</text>
    <text x="355" y="1020" fill="#647873" font-size="14" letter-spacing="2">ENTRY</text>
    <text x="355" y="1053" fill="#E3ECE9" font-size="21">0.1766</text>
    <text x="600" y="1020" fill="#647873" font-size="14" letter-spacing="2">MARK</text>
    <text x="600" y="1053" fill="#E3ECE9" font-size="21">0.1652</text>
    <text x="1118" y="1020" text-anchor="end" fill="#8DCEFF" font-size="16" font-weight="700" letter-spacing="2">SIZE</text>
    <text x="1118" y="1053" text-anchor="end" fill="#647873" font-size="13">1 / 333 EQUAL UNIT</text>
    <text x="82" y="1114" fill="#536660" font-size="12" letter-spacing="1.5">ABSTRACT LIQUIDITY FOOTPRINT · HWA-GEN-2.0.0</text>
  </g>
</svg>
