<?xml version="1.0" encoding="UTF-8"?>
<svg xmlns="http://www.w3.org/2000/svg" viewBox="0 0 1200 1200" role="img" aria-labelledby="hwa-116-title hwa-116-desc">
  <title id="hwa-116-title">HWA Genesis Position #116</title>
  <desc id="hwa-116-desc">An abstract deterministic liquidity footprint for a simulated long HWA position in the scalp visual class.</desc>
  <defs>
    <linearGradient id="hwa-116-wash" x1="0" y1="0" x2="1" y2="1">
      <stop offset="0" stop-color="#50E3C2" stop-opacity="0.13"/>
      <stop offset="0.55" stop-color="#07100F" stop-opacity="0"/>
      <stop offset="1" stop-color="#4CA8FF" stop-opacity="0.12"/>
    </linearGradient>
    <radialGradient id="hwa-116-pulse" cx="50%" cy="50%" r="50%">
      <stop offset="0" stop-color="#50E3C2" stop-opacity="0.22"/>
      <stop offset="1" stop-color="#50E3C2" stop-opacity="0"/>
    </radialGradient>
    <filter id="hwa-116-glow" x="-100%" y="-100%" width="300%" height="300%">
      <feGaussianBlur stdDeviation="12" result="blur"/>
      <feMerge><feMergeNode in="blur"/><feMergeNode in="SourceGraphic"/></feMerge>
    </filter>
  </defs>

  <rect width="1200" height="1200" fill="#07100F"/>
  <rect width="1200" height="1200" fill="url(#hwa-116-wash)"/>
  <g><path d="M -80 273.1 L 90 303.7 L 260 311.0 L 430 299.4 L 600 274.2 L 770 260.6 L 940 248.0 L 1110 264.8 L 1280 282.2" fill="none" stroke="#50E3C2" stroke-opacity="0.050" stroke-width="1.5"/>
<path d="M -80 461.1 L 90 461.6 L 260 446.3 L 430 407.0 L 600 394.9 L 770 385.7 L 940 408.8 L 1110 435.1 L 1280 462.8" fill="none" stroke="#4CA8FF" stroke-opacity="0.062" stroke-width="1.5"/>
<path d="M -80 614.7 L 90 590.9 L 260 543.2 L 430 522.2 L 600 531.4 L 770 559.3 L 940 598.2 L 1110 612.2 L 1280 613.5" fill="none" stroke="#50E3C2" stroke-opacity="0.074" stroke-width="1.5"/>
<path d="M -80 710.9 L 90 679.0 L 260 662.0 L 430 671.4 L 600 697.1 L 770 750.7 L 940 771.0 L 1110 758.3 L 1280 727.3" fill="none" stroke="#4CA8FF" stroke-opacity="0.086" stroke-width="1.5"/>
<path d="M -80 806.0 L 90 796.7 L 260 824.6 L 430 853.7 L 600 916.9 L 770 924.0 L 940 894.6 L 1110 840.0 L 1280 812.8" fill="none" stroke="#50E3C2" stroke-opacity="0.098" stroke-width="1.5"/></g>
  <g stroke="#A9C0BA" stroke-opacity="0.055" stroke-width="1">
    <path d="M 80 0 V 1200 M 280 0 V 1200 M 480 0 V 1200 M 680 0 V 1200 M 880 0 V 1200 M 1080 0 V 1200"/>
    <path d="M 0 250 H 1200 M 0 450 H 1200 M 0 650 H 1200 M 0 850 H 1200 M 0 1050 H 1200"/>
  </g>
  <rect x="42" y="42" width="1116" height="1116" rx="26" fill="none" stroke="#9EB3AE" stroke-opacity="0.16"/>
  

  <text x="82" y="105" fill="#F1F7F5" font-family="Arial, sans-serif" font-size="24" font-weight="700" letter-spacing="2">HWA</text>
  <text x="153" y="105" fill="#718580" font-family="monospace" font-size="15" letter-spacing="2.4">GENESIS / SIM</text>
  <text x="1118" y="105" text-anchor="end" fill="#718580" font-family="monospace" font-size="16">#116</text>

  <text x="82" y="178" fill="#718580" font-family="monospace" font-size="16" letter-spacing="2">HWA/HYPE · 5M · 20X</text>
  <text x="82" y="276" fill="#50E3C2" font-family="Arial, sans-serif" font-size="94" font-weight="300" letter-spacing="-5">+42.8%</text>
  <text x="1118" y="250" text-anchor="end" fill="#50E3C2" font-family="monospace" font-size="20" font-weight="700" letter-spacing="2">LONG</text>
  <text x="1118" y="280" text-anchor="end" fill="#718580" font-family="monospace" font-size="14">HIGH CONVICTION</text>

  <g><rect x="213.0" y="416.4" width="774.0" height="453.2" rx="64" fill="none" stroke="#50E3C2" stroke-opacity="0.20" stroke-width="1.5"/>
<rect x="238.0" y="432.6" width="724.0" height="420.7" rx="57" fill="none" stroke="#4CA8FF" stroke-opacity="0.18" stroke-width="1.5"/><line x1="197.0" y1="794.2" x2="197.0" y2="804.6" stroke="#4CA8FF" stroke-opacity="0.15" stroke-width="2"/>
<line x1="244.4" y1="462.5" x2="244.4" y2="510.6" stroke="#50E3C2" stroke-opacity="0.26" stroke-width="2"/>
<line x1="291.8" y1="770.5" x2="291.8" y2="828.3" stroke="#50E3C2" stroke-opacity="0.12" stroke-width="2"/>
<line x1="339.2" y1="462.9" x2="339.2" y2="510.2" stroke="#4CA8FF" stroke-opacity="0.19" stroke-width="2"/>
<line x1="386.6" y1="778.7" x2="386.6" y2="820.1" stroke="#50E3C2" stroke-opacity="0.20" stroke-width="2"/>
<line x1="434.1" y1="465.6" x2="434.1" y2="507.6" stroke="#50E3C2" stroke-opacity="0.18" stroke-width="2"/>
<line x1="481.5" y1="781.2" x2="481.5" y2="817.6" stroke="#4CA8FF" stroke-opacity="0.21" stroke-width="2"/>
<line x1="528.9" y1="464.4" x2="528.9" y2="508.7" stroke="#50E3C2" stroke-opacity="0.24" stroke-width="2"/>
<line x1="576.3" y1="776.4" x2="576.3" y2="822.5" stroke="#50E3C2" stroke-opacity="0.29" stroke-width="2"/>
<line x1="623.7" y1="476.3" x2="623.7" y2="496.9" stroke="#4CA8FF" stroke-opacity="0.17" stroke-width="2"/>
<line x1="671.1" y1="772.2" x2="671.1" y2="826.6" stroke="#50E3C2" stroke-opacity="0.22" stroke-width="2"/>
<line x1="718.5" y1="473.1" x2="718.5" y2="500.1" stroke="#50E3C2" stroke-opacity="0.24" stroke-width="2"/>
<line x1="765.9" y1="770.3" x2="765.9" y2="828.5" stroke="#4CA8FF" stroke-opacity="0.19" stroke-width="2"/>
<line x1="813.4" y1="468.1" x2="813.4" y2="505.1" stroke="#50E3C2" stroke-opacity="0.26" stroke-width="2"/>
<line x1="860.8" y1="776.5" x2="860.8" y2="822.3" stroke="#50E3C2" stroke-opacity="0.22" stroke-width="2"/>
<line x1="908.2" y1="480.9" x2="908.2" y2="492.2" stroke="#4CA8FF" stroke-opacity="0.32" stroke-width="2"/>
<line x1="955.6" y1="780.8" x2="955.6" y2="818.0" stroke="#50E3C2" stroke-opacity="0.14" stroke-width="2"/>
<line x1="1003.0" y1="462.4" x2="1003.0" y2="510.8" stroke="#50E3C2" stroke-opacity="0.29" stroke-width="2"/><rect x="479.3" y="438.4" width="97.7" height="3" rx="1.5" fill="#50E3C2" fill-opacity="0.26"/>
      <rect x="623" y="438.4" width="112.4" height="3" rx="1.5" fill="#FF6685" fill-opacity="0.26"/>
<rect x="494.6" y="472.2" width="82.4" height="3" rx="1.5" fill="#50E3C2" fill-opacity="0.30"/>
      <rect x="623" y="472.2" width="81.4" height="3" rx="1.5" fill="#FF6685" fill-opacity="0.30"/>
<rect x="420.5" y="506.1" width="156.5" height="3" rx="1.5" fill="#50E3C2" fill-opacity="0.33"/>
      <rect x="623" y="506.1" width="146.8" height="3" rx="1.5" fill="#FF6685" fill-opacity="0.33"/>
<rect x="334.3" y="539.9" width="242.7" height="3" rx="1.5" fill="#50E3C2" fill-opacity="0.36"/>
      <rect x="623" y="539.9" width="248.0" height="3" rx="1.5" fill="#FF6685" fill-opacity="0.36"/>
<rect x="318.2" y="573.8" width="258.8" height="3" rx="1.5" fill="#50E3C2" fill-opacity="0.39"/>
      <rect x="623" y="573.8" width="287.8" height="3" rx="1.5" fill="#FF6685" fill-opacity="0.39"/>
<rect x="306.1" y="607.6" width="270.9" height="3" rx="1.5" fill="#50E3C2" fill-opacity="0.40"/>
      <rect x="623" y="607.6" width="167.0" height="3" rx="1.5" fill="#FF6685" fill-opacity="0.40"/>
<rect x="270.3" y="639.5" width="306.7" height="7" rx="3.5" fill="#50E3C2" fill-opacity="0.86"/>
      <rect x="623" y="639.5" width="268.4" height="7" rx="3.5" fill="#FF6685" fill-opacity="0.86"/>
<rect x="328.0" y="675.4" width="249.0" height="3" rx="1.5" fill="#50E3C2" fill-opacity="0.40"/>
      <rect x="623" y="675.4" width="195.8" height="3" rx="1.5" fill="#FF6685" fill-opacity="0.40"/>
<rect x="285.3" y="709.2" width="291.7" height="3" rx="1.5" fill="#50E3C2" fill-opacity="0.39"/>
      <rect x="623" y="709.2" width="240.2" height="3" rx="1.5" fill="#FF6685" fill-opacity="0.39"/>
<rect x="325.5" y="743.1" width="251.5" height="3" rx="1.5" fill="#50E3C2" fill-opacity="0.36"/>
      <rect x="623" y="743.1" width="169.8" height="3" rx="1.5" fill="#FF6685" fill-opacity="0.36"/>
<rect x="351.7" y="776.9" width="225.3" height="3" rx="1.5" fill="#50E3C2" fill-opacity="0.33"/>
      <rect x="623" y="776.9" width="215.9" height="3" rx="1.5" fill="#FF6685" fill-opacity="0.33"/>
<rect x="406.5" y="810.8" width="170.5" height="3" rx="1.5" fill="#50E3C2" fill-opacity="0.30"/>
      <rect x="623" y="810.8" width="74.9" height="3" rx="1.5" fill="#FF6685" fill-opacity="0.30"/>
<rect x="461.1" y="844.6" width="115.9" height="3" rx="1.5" fill="#50E3C2" fill-opacity="0.26"/>
      <rect x="623" y="844.6" width="114.4" height="3" rx="1.5" fill="#FF6685" fill-opacity="0.26"/></g>
  <line x1="197.0" y1="625.7" x2="1003.0" y2="625.7" stroke="#B4C7C2" stroke-opacity="0.18" stroke-dasharray="5 12"/>
  <path d="M 229.0 625.7 L 282.0 624.2 L 335.0 619.4 L 388.0 606.5 L 441.0 632.7 L 494.0 608.6 L 547.0 642.7 L 600.0 631.8 L 653.0 610.7 L 706.0 609.9 L 759.0 603.6 L 812.0 595.1 L 865.0 597.7 L 918.0 603.3 L 971.0 607.7" fill="none" stroke="#50E3C2" stroke-width="3.5" stroke-linecap="round" stroke-linejoin="round"/>
  <circle cx="197.0" cy="625.7" r="6" fill="#07100F" stroke="#B4C7C2" stroke-width="2"/>
  <circle cx="1003.0" cy="607.7" r="8" fill="#50E3C2" filter="url(#hwa-116-glow)"/>
  <circle cx="777.3" cy="643.0" r="78.3" fill="url(#hwa-116-pulse)"/>
  <rect x="748.3" y="614.0" width="58.0" height="58.0" rx="7" fill="#07100F" stroke="#50E3C2" stroke-width="2"/><rect x="772.3" y="638.0" width="10" height="10" rx="2" fill="#50E3C2"/>
  <text x="205.0" y="612.7" fill="#718580" font-family="monospace" font-size="12">ENTRY</text>
  <text x="995.0" y="593.7" text-anchor="end" fill="#50E3C2" font-family="monospace" font-size="12">MARK</text>

  <path d="M 82 976 H 1118" stroke="#9EB3AE" stroke-opacity="0.15"/>
  <g font-family="monospace">
    <text x="82" y="1020" fill="#647873" font-size="14" letter-spacing="2">SIZE</text>
    <text x="82" y="1053" fill="#E3ECE9" font-size="21">0.425 HYPE</text>
    <text x="355" y="1020" fill="#647873" font-size="14" letter-spacing="2">ENTRY</text>
    <text x="355" y="1053" fill="#E3ECE9" font-size="21">0.008317</text>
    <text x="600" y="1020" fill="#647873" font-size="14" letter-spacing="2">MARK</text>
    <text x="600" y="1053" fill="#E3ECE9" font-size="21">0.008495</text>
    <text x="1118" y="1020" text-anchor="end" fill="#50E3C2" font-size="16" font-weight="700" letter-spacing="2">SCALP</text>
    <text x="1118" y="1053" text-anchor="end" fill="#647873" font-size="13">1 / 333 EQUAL UNIT</text>
    <text x="82" y="1114" fill="#536660" font-size="12" letter-spacing="1.5">ABSTRACT LIQUIDITY FOOTPRINT · HWA-GEN-2.0.0</text>
  </g>
</svg>
