<?xml version="1.0" encoding="UTF-8"?>
<svg xmlns="http://www.w3.org/2000/svg" viewBox="0 0 1200 1200" role="img" aria-labelledby="hwa-126-title hwa-126-desc">
  <title id="hwa-126-title">HWA Genesis Position #126</title>
  <desc id="hwa-126-desc">An abstract deterministic liquidity footprint for a simulated long HWA position in the size visual class.</desc>
  <defs>
    <linearGradient id="hwa-126-wash" x1="0" y1="0" x2="1" y2="1">
      <stop offset="0" stop-color="#9A7BFF" stop-opacity="0.13"/>
      <stop offset="0.55" stop-color="#07100F" stop-opacity="0"/>
      <stop offset="1" stop-color="#58E6C1" stop-opacity="0.12"/>
    </linearGradient>
    <radialGradient id="hwa-126-pulse" cx="50%" cy="50%" r="50%">
      <stop offset="0" stop-color="#FF6685" stop-opacity="0.22"/>
      <stop offset="1" stop-color="#FF6685" stop-opacity="0"/>
    </radialGradient>
    <filter id="hwa-126-glow" x="-100%" y="-100%" width="300%" height="300%">
      <feGaussianBlur stdDeviation="12" result="blur"/>
      <feMerge><feMergeNode in="blur"/><feMergeNode in="SourceGraphic"/></feMerge>
    </filter>
  </defs>

  <rect width="1200" height="1200" fill="#07100F"/>
  <rect width="1200" height="1200" fill="url(#hwa-126-wash)"/>
  <g><path d="M -80 282.6 L 90 306.4 L 260 311.0 L 430 303.1 L 600 271.7 L 770 258.2 L 940 248.4 L 1110 263.5 L 1280 290.8" fill="none" stroke="#9A7BFF" stroke-opacity="0.050" stroke-width="1.5"/>
<path d="M -80 458.0 L 90 460.7 L 260 441.8 L 430 412.5 L 600 390.2 L 770 389.7 L 940 406.8 L 1110 444.0 L 1280 456.2" fill="none" stroke="#58E6C1" stroke-opacity="0.062" stroke-width="1.5"/>
<path d="M -80 608.7 L 90 579.6 L 260 557.4 L 430 524.4 L 600 534.2 L 770 558.4 L 940 594.6 L 1110 617.7 L 1280 614.5" fill="none" stroke="#9A7BFF" stroke-opacity="0.074" stroke-width="1.5"/>
<path d="M -80 736.1 L 90 686.5 L 260 660.6 L 430 675.6 L 600 722.3 L 770 749.7 L 940 770.0 L 1110 763.9 L 1280 716.5" fill="none" stroke="#58E6C1" stroke-opacity="0.086" stroke-width="1.5"/>
<path d="M -80 805.9 L 90 796.0 L 260 822.5 L 430 881.6 L 600 903.0 L 770 923.7 L 940 908.4 L 1110 863.0 L 1280 800.0" fill="none" stroke="#9A7BFF" stroke-opacity="0.098" stroke-width="1.5"/></g>
  <g stroke="#A9C0BA" stroke-opacity="0.055" stroke-width="1">
    <path d="M 80 0 V 1200 M 280 0 V 1200 M 480 0 V 1200 M 680 0 V 1200 M 880 0 V 1200 M 1080 0 V 1200"/>
    <path d="M 0 250 H 1200 M 0 450 H 1200 M 0 650 H 1200 M 0 850 H 1200 M 0 1050 H 1200"/>
  </g>
  <rect x="42" y="42" width="1116" height="1116" rx="26" fill="none" stroke="#9EB3AE" stroke-opacity="0.16"/>
  

  <text x="82" y="105" fill="#F1F7F5" font-family="Arial, sans-serif" font-size="24" font-weight="700" letter-spacing="2">HWA</text>
  <text x="153" y="105" fill="#718580" font-family="monospace" font-size="15" letter-spacing="2.4">GENESIS / SIM</text>
  <text x="1118" y="105" text-anchor="end" fill="#718580" font-family="monospace" font-size="16">#126</text>

  <text x="82" y="178" fill="#718580" font-family="monospace" font-size="16" letter-spacing="2">HWA/HYPE · 4H · 26X</text>
  <text x="82" y="276" fill="#FF6685" font-family="Arial, sans-serif" font-size="94" font-weight="300" letter-spacing="-5">-61.3%</text>
  <text x="1118" y="250" text-anchor="end" fill="#FF6685" font-family="monospace" font-size="20" font-weight="700" letter-spacing="2">LONG</text>
  <text x="1118" y="280" text-anchor="end" fill="#718580" font-family="monospace" font-size="14">BREAKOUT</text>

  <g><rect x="187.5" y="400.9" width="825.0" height="484.2" rx="64" fill="none" stroke="#9A7BFF" stroke-opacity="0.20" stroke-width="1.5"/>
<rect x="212.5" y="417.1" width="775.0" height="451.7" rx="57" fill="none" stroke="#58E6C1" stroke-opacity="0.18" stroke-width="1.5"/>
<rect x="237.5" y="433.4" width="725.0" height="419.2" rx="50" fill="none" stroke="#9A7BFF" stroke-opacity="0.16" stroke-width="1.5"/>
<rect x="262.5" y="449.6" width="675.0" height="386.7" rx="43" fill="none" stroke="#58E6C1" stroke-opacity="0.13" stroke-width="1.5"/><line x1="171.5" y1="787.6" x2="171.5" y2="831.7" stroke="#58E6C1" stroke-opacity="0.21" stroke-width="2"/>
<line x1="221.9" y1="463.0" x2="221.9" y2="489.7" stroke="#9A7BFF" stroke-opacity="0.27" stroke-width="2"/>
<line x1="272.3" y1="783.7" x2="272.3" y2="835.6" stroke="#9A7BFF" stroke-opacity="0.24" stroke-width="2"/>
<line x1="322.7" y1="456.2" x2="322.7" y2="496.5" stroke="#58E6C1" stroke-opacity="0.18" stroke-width="2"/>
<line x1="373.1" y1="786.2" x2="373.1" y2="833.1" stroke="#9A7BFF" stroke-opacity="0.16" stroke-width="2"/>
<line x1="423.6" y1="466.0" x2="423.6" y2="486.7" stroke="#9A7BFF" stroke-opacity="0.17" stroke-width="2"/>
<line x1="474.0" y1="792.4" x2="474.0" y2="826.9" stroke="#58E6C1" stroke-opacity="0.31" stroke-width="2"/>
<line x1="524.4" y1="465.5" x2="524.4" y2="487.2" stroke="#9A7BFF" stroke-opacity="0.13" stroke-width="2"/>
<line x1="574.8" y1="782.0" x2="574.8" y2="837.3" stroke="#9A7BFF" stroke-opacity="0.33" stroke-width="2"/>
<line x1="625.2" y1="445.9" x2="625.2" y2="506.8" stroke="#58E6C1" stroke-opacity="0.23" stroke-width="2"/>
<line x1="675.6" y1="777.3" x2="675.6" y2="842.0" stroke="#9A7BFF" stroke-opacity="0.25" stroke-width="2"/>
<line x1="726.0" y1="462.3" x2="726.0" y2="490.4" stroke="#9A7BFF" stroke-opacity="0.29" stroke-width="2"/>
<line x1="776.4" y1="777.5" x2="776.4" y2="841.8" stroke="#58E6C1" stroke-opacity="0.31" stroke-width="2"/>
<line x1="826.9" y1="458.4" x2="826.9" y2="494.3" stroke="#9A7BFF" stroke-opacity="0.26" stroke-width="2"/>
<line x1="877.3" y1="785.2" x2="877.3" y2="834.1" stroke="#9A7BFF" stroke-opacity="0.18" stroke-width="2"/>
<line x1="927.7" y1="460.0" x2="927.7" y2="492.7" stroke="#58E6C1" stroke-opacity="0.32" stroke-width="2"/>
<line x1="978.1" y1="781.8" x2="978.1" y2="837.5" stroke="#9A7BFF" stroke-opacity="0.17" stroke-width="2"/>
<line x1="1028.5" y1="450.5" x2="1028.5" y2="502.2" stroke="#9A7BFF" stroke-opacity="0.20" stroke-width="2"/><rect x="506.0" y="425.1" width="71.0" height="3" rx="1.5" fill="#50E3C2" fill-opacity="0.26"/>
      <rect x="623" y="425.1" width="91.6" height="3" rx="1.5" fill="#FF6685" fill-opacity="0.26"/>
<rect x="389.9" y="461.1" width="187.1" height="3" rx="1.5" fill="#50E3C2" fill-opacity="0.30"/>
      <rect x="623" y="461.1" width="171.5" height="3" rx="1.5" fill="#FF6685" fill-opacity="0.30"/>
<rect x="385.5" y="497.2" width="191.5" height="3" rx="1.5" fill="#50E3C2" fill-opacity="0.33"/>
      <rect x="623" y="497.2" width="141.6" height="3" rx="1.5" fill="#FF6685" fill-opacity="0.33"/>
<rect x="339.0" y="533.3" width="238.0" height="3" rx="1.5" fill="#50E3C2" fill-opacity="0.36"/>
      <rect x="623" y="533.3" width="191.8" height="3" rx="1.5" fill="#FF6685" fill-opacity="0.36"/>
<rect x="263.5" y="569.4" width="313.5" height="3" rx="1.5" fill="#50E3C2" fill-opacity="0.39"/>
      <rect x="623" y="569.4" width="162.3" height="3" rx="1.5" fill="#FF6685" fill-opacity="0.39"/>
<rect x="397.2" y="605.4" width="179.8" height="3" rx="1.5" fill="#50E3C2" fill-opacity="0.40"/>
      <rect x="623" y="605.4" width="267.1" height="3" rx="1.5" fill="#FF6685" fill-opacity="0.40"/>
<rect x="354.7" y="639.5" width="222.3" height="7" rx="3.5" fill="#50E3C2" fill-opacity="0.86"/>
      <rect x="623" y="639.5" width="229.8" height="7" rx="3.5" fill="#FF6685" fill-opacity="0.86"/>
<rect x="269.7" y="677.6" width="307.3" height="3" rx="1.5" fill="#50E3C2" fill-opacity="0.40"/>
      <rect x="623" y="677.6" width="200.1" height="3" rx="1.5" fill="#FF6685" fill-opacity="0.40"/>
<rect x="386.0" y="713.6" width="191.0" height="3" rx="1.5" fill="#50E3C2" fill-opacity="0.39"/>
      <rect x="623" y="713.6" width="325.3" height="3" rx="1.5" fill="#FF6685" fill-opacity="0.39"/>
<rect x="413.5" y="749.7" width="163.5" height="3" rx="1.5" fill="#50E3C2" fill-opacity="0.36"/>
      <rect x="623" y="749.7" width="263.9" height="3" rx="1.5" fill="#FF6685" fill-opacity="0.36"/>
<rect x="344.3" y="785.8" width="232.7" height="3" rx="1.5" fill="#50E3C2" fill-opacity="0.33"/>
      <rect x="623" y="785.8" width="233.2" height="3" rx="1.5" fill="#FF6685" fill-opacity="0.33"/>
<rect x="457.7" y="821.9" width="119.3" height="3" rx="1.5" fill="#50E3C2" fill-opacity="0.30"/>
      <rect x="623" y="821.9" width="122.0" height="3" rx="1.5" fill="#FF6685" fill-opacity="0.30"/>
<rect x="477.3" y="857.9" width="99.7" height="3" rx="1.5" fill="#50E3C2" fill-opacity="0.26"/>
      <rect x="623" y="857.9" width="138.9" height="3" rx="1.5" fill="#FF6685" fill-opacity="0.26"/></g>
  <line x1="171.5" y1="660.5" x2="1028.5" y2="660.5" stroke="#B4C7C2" stroke-opacity="0.18" stroke-dasharray="5 12"/>
  <path d="M 203.5 660.5 L 260.1 660.6 L 316.8 662.0 L 373.4 648.2 L 430.1 695.2 L 486.7 681.6 L 543.4 688.5 L 600.0 673.8 L 656.6 654.0 L 713.3 686.3 L 769.9 666.9 L 826.6 676.5 L 883.2 669.5 L 939.9 685.4 L 996.5 686.3" fill="none" stroke="#FF6685" stroke-width="3.5" stroke-linecap="round" stroke-linejoin="round"/>
  <circle cx="171.5" cy="660.5" r="6" fill="#07100F" stroke="#B4C7C2" stroke-width="2"/>
  <circle cx="1028.5" cy="686.3" r="8" fill="#FF6685" filter="url(#hwa-126-glow)"/>
  <circle cx="788.5" cy="643.0" r="85.1" fill="url(#hwa-126-pulse)"/>
  <circle cx="788.5" cy="643.0" r="31.5" fill="#07100F" stroke="#9A7BFF" stroke-width="2"/><circle cx="788.5" cy="643.0" r="18.3" fill="none" stroke="#58E6C1" stroke-width="2"/><circle cx="788.5" cy="643.0" r="4" fill="#9A7BFF"/>
  <text x="179.5" y="647.5" fill="#718580" font-family="monospace" font-size="12">ENTRY</text>
  <text x="1020.5" y="672.3" text-anchor="end" fill="#FF6685" font-family="monospace" font-size="12">MARK</text>

  <path d="M 82 976 H 1118" stroke="#9EB3AE" stroke-opacity="0.15"/>
  <g font-family="monospace">
    <text x="82" y="1020" fill="#647873" font-size="14" letter-spacing="2">SIZE</text>
    <text x="82" y="1053" fill="#E3ECE9" font-size="21">2.116 HYPE</text>
    <text x="355" y="1020" fill="#647873" font-size="14" letter-spacing="2">ENTRY</text>
    <text x="355" y="1053" fill="#E3ECE9" font-size="21">0.008310</text>
    <text x="600" y="1020" fill="#647873" font-size="14" letter-spacing="2">MARK</text>
    <text x="600" y="1053" fill="#E3ECE9" font-size="21">0.008114</text>
    <text x="1118" y="1020" text-anchor="end" fill="#9A7BFF" font-size="16" font-weight="700" letter-spacing="2">SIZE</text>
    <text x="1118" y="1053" text-anchor="end" fill="#647873" font-size="13">1 / 333 EQUAL UNIT</text>
    <text x="82" y="1114" fill="#536660" font-size="12" letter-spacing="1.5">ABSTRACT LIQUIDITY FOOTPRINT · HWA-GEN-2.0.0</text>
  </g>
</svg>
