<?xml version="1.0" encoding="UTF-8"?>
<svg xmlns="http://www.w3.org/2000/svg" viewBox="0 0 1200 1200" role="img" aria-labelledby="hwa-308-title hwa-308-desc">
  <title id="hwa-308-title">HWA Genesis Position #308</title>
  <desc id="hwa-308-desc">An abstract deterministic liquidity footprint for a simulated short HWA position in the scalp visual class.</desc>
  <defs>
    <linearGradient id="hwa-308-wash" x1="0" y1="0" x2="1" y2="1">
      <stop offset="0" stop-color="#C8FF3D" stop-opacity="0.13"/>
      <stop offset="0.55" stop-color="#07100F" stop-opacity="0"/>
      <stop offset="1" stop-color="#7657FF" stop-opacity="0.12"/>
    </linearGradient>
    <radialGradient id="hwa-308-pulse" cx="50%" cy="50%" r="50%">
      <stop offset="0" stop-color="#8DCEFF" stop-opacity="0.22"/>
      <stop offset="1" stop-color="#8DCEFF" stop-opacity="0"/>
    </radialGradient>
    <filter id="hwa-308-glow" x="-100%" y="-100%" width="300%" height="300%">
      <feGaussianBlur stdDeviation="12" result="blur"/>
      <feMerge><feMergeNode in="blur"/><feMergeNode in="SourceGraphic"/></feMerge>
    </filter>
  </defs>

  <rect width="1200" height="1200" fill="#07100F"/>
  <rect width="1200" height="1200" fill="url(#hwa-308-wash)"/>
  <g><path d="M -80 282.8 L 90 298.9 L 260 311.4 L 430 299.1 L 600 271.3 L 770 251.8 L 940 248.0 L 1110 257.1 L 1280 287.7" fill="none" stroke="#C8FF3D" stroke-opacity="0.050" stroke-width="1.5"/>
<path d="M -80 458.3 L 90 463.7 L 260 445.5 L 430 424.1 L 600 386.7 L 770 389.7 L 940 409.5 L 1110 428.1 L 1280 463.4" fill="none" stroke="#7657FF" stroke-opacity="0.062" stroke-width="1.5"/>
<path d="M -80 616.2 L 90 577.9 L 260 551.9 L 430 527.2 L 600 533.6 L 770 556.1 L 940 591.3 L 1110 617.9 L 1280 608.7" fill="none" stroke="#C8FF3D" stroke-opacity="0.074" stroke-width="1.5"/>
<path d="M -80 723.4 L 90 682.2 L 260 659.8 L 430 667.9 L 600 710.3 L 770 750.8 L 940 770.9 L 1110 762.1 L 1280 720.4" fill="none" stroke="#7657FF" stroke-opacity="0.086" stroke-width="1.5"/>
<path d="M -80 810.1 L 90 796.1 L 260 811.9 L 430 876.5 L 600 910.1 L 770 923.9 L 940 889.6 L 1110 841.2 L 1280 814.2" fill="none" stroke="#C8FF3D" stroke-opacity="0.098" stroke-width="1.5"/></g>
  <g stroke="#A9C0BA" stroke-opacity="0.055" stroke-width="1">
    <path d="M 80 0 V 1200 M 280 0 V 1200 M 480 0 V 1200 M 680 0 V 1200 M 880 0 V 1200 M 1080 0 V 1200"/>
    <path d="M 0 250 H 1200 M 0 450 H 1200 M 0 650 H 1200 M 0 850 H 1200 M 0 1050 H 1200"/>
  </g>
  <rect x="42" y="42" width="1116" height="1116" rx="26" fill="none" stroke="#9EB3AE" stroke-opacity="0.16"/>
  

  <text x="82" y="105" fill="#F1F7F5" font-family="Arial, sans-serif" font-size="24" font-weight="700" letter-spacing="2">HWA</text>
  <text x="153" y="105" fill="#718580" font-family="monospace" font-size="15" letter-spacing="2.4">GENESIS / SIM</text>
  <text x="1118" y="105" text-anchor="end" fill="#718580" font-family="monospace" font-size="16">#308</text>

  <text x="82" y="178" fill="#718580" font-family="monospace" font-size="16" letter-spacing="2">HWA/HYPE · 4H · 39X</text>
  <text x="82" y="276" fill="#8DCEFF" font-family="Arial, sans-serif" font-size="94" font-weight="300" letter-spacing="-5">-1.0%</text>
  <text x="1118" y="250" text-anchor="end" fill="#8DCEFF" font-family="monospace" font-size="20" font-weight="700" letter-spacing="2">SHORT</text>
  <text x="1118" y="280" text-anchor="end" fill="#718580" font-family="monospace" font-size="14">MEAN REVERT</text>

  <g><rect x="213.0" y="416.4" width="774.0" height="453.2" rx="64" fill="none" stroke="#C8FF3D" stroke-opacity="0.20" stroke-width="1.5"/>
<rect x="238.0" y="432.6" width="724.0" height="420.7" rx="57" fill="none" stroke="#7657FF" stroke-opacity="0.18" stroke-width="1.5"/><line x1="197.0" y1="772.0" x2="197.0" y2="826.9" stroke="#7657FF" stroke-opacity="0.20" stroke-width="2"/>
<line x1="244.4" y1="459.1" x2="244.4" y2="514.1" stroke="#C8FF3D" stroke-opacity="0.23" stroke-width="2"/>
<line x1="291.8" y1="780.2" x2="291.8" y2="818.7" stroke="#C8FF3D" stroke-opacity="0.19" stroke-width="2"/>
<line x1="339.2" y1="460.1" x2="339.2" y2="513.1" stroke="#7657FF" stroke-opacity="0.29" stroke-width="2"/>
<line x1="386.6" y1="786.9" x2="386.6" y2="812.0" stroke="#C8FF3D" stroke-opacity="0.32" stroke-width="2"/>
<line x1="434.1" y1="479.3" x2="434.1" y2="493.8" stroke="#C8FF3D" stroke-opacity="0.28" stroke-width="2"/>
<line x1="481.5" y1="789.5" x2="481.5" y2="809.3" stroke="#7657FF" stroke-opacity="0.14" stroke-width="2"/>
<line x1="528.9" y1="473.1" x2="528.9" y2="500.0" stroke="#C8FF3D" stroke-opacity="0.33" stroke-width="2"/>
<line x1="576.3" y1="788.5" x2="576.3" y2="810.4" stroke="#C8FF3D" stroke-opacity="0.16" stroke-width="2"/>
<line x1="623.7" y1="472.5" x2="623.7" y2="500.7" stroke="#7657FF" stroke-opacity="0.13" stroke-width="2"/>
<line x1="671.1" y1="772.0" x2="671.1" y2="826.8" stroke="#C8FF3D" stroke-opacity="0.32" stroke-width="2"/>
<line x1="718.5" y1="479.3" x2="718.5" y2="493.8" stroke="#C8FF3D" stroke-opacity="0.33" stroke-width="2"/>
<line x1="765.9" y1="783.5" x2="765.9" y2="815.3" stroke="#7657FF" stroke-opacity="0.29" stroke-width="2"/>
<line x1="813.4" y1="473.4" x2="813.4" y2="499.7" stroke="#C8FF3D" stroke-opacity="0.13" stroke-width="2"/>
<line x1="860.8" y1="774.1" x2="860.8" y2="824.7" stroke="#C8FF3D" stroke-opacity="0.19" stroke-width="2"/>
<line x1="908.2" y1="475.2" x2="908.2" y2="497.9" stroke="#7657FF" stroke-opacity="0.22" stroke-width="2"/>
<line x1="955.6" y1="779.4" x2="955.6" y2="819.5" stroke="#C8FF3D" stroke-opacity="0.16" stroke-width="2"/>
<line x1="1003.0" y1="458.9" x2="1003.0" y2="514.3" stroke="#C8FF3D" stroke-opacity="0.32" stroke-width="2"/><rect x="517.5" y="438.4" width="59.5" height="3" rx="1.5" fill="#50E3C2" fill-opacity="0.26"/>
      <rect x="623" y="438.4" width="113.9" height="3" rx="1.5" fill="#FF6685" fill-opacity="0.26"/>
<rect x="391.3" y="472.2" width="185.7" height="3" rx="1.5" fill="#50E3C2" fill-opacity="0.30"/>
      <rect x="623" y="472.2" width="87.9" height="3" rx="1.5" fill="#FF6685" fill-opacity="0.30"/>
<rect x="419.2" y="506.1" width="157.8" height="3" rx="1.5" fill="#50E3C2" fill-opacity="0.33"/>
      <rect x="623" y="506.1" width="188.1" height="3" rx="1.5" fill="#FF6685" fill-opacity="0.33"/>
<rect x="320.6" y="539.9" width="256.4" height="3" rx="1.5" fill="#50E3C2" fill-opacity="0.36"/>
      <rect x="623" y="539.9" width="143.8" height="3" rx="1.5" fill="#FF6685" fill-opacity="0.36"/>
<rect x="451.7" y="573.8" width="125.3" height="3" rx="1.5" fill="#50E3C2" fill-opacity="0.39"/>
      <rect x="623" y="573.8" width="171.5" height="3" rx="1.5" fill="#FF6685" fill-opacity="0.39"/>
<rect x="270.8" y="607.6" width="306.2" height="3" rx="1.5" fill="#50E3C2" fill-opacity="0.40"/>
      <rect x="623" y="607.6" width="307.4" height="3" rx="1.5" fill="#FF6685" fill-opacity="0.40"/>
<rect x="439.0" y="639.5" width="138.0" height="7" rx="3.5" fill="#50E3C2" fill-opacity="0.86"/>
      <rect x="623" y="639.5" width="316.9" height="7" rx="3.5" fill="#FF6685" fill-opacity="0.86"/>
<rect x="297.9" y="675.4" width="279.1" height="3" rx="1.5" fill="#50E3C2" fill-opacity="0.40"/>
      <rect x="623" y="675.4" width="292.0" height="3" rx="1.5" fill="#FF6685" fill-opacity="0.40"/>
<rect x="356.3" y="709.2" width="220.7" height="3" rx="1.5" fill="#50E3C2" fill-opacity="0.39"/>
      <rect x="623" y="709.2" width="182.5" height="3" rx="1.5" fill="#FF6685" fill-opacity="0.39"/>
<rect x="328.4" y="743.1" width="248.6" height="3" rx="1.5" fill="#50E3C2" fill-opacity="0.36"/>
      <rect x="623" y="743.1" width="240.8" height="3" rx="1.5" fill="#FF6685" fill-opacity="0.36"/>
<rect x="405.8" y="776.9" width="171.2" height="3" rx="1.5" fill="#50E3C2" fill-opacity="0.33"/>
      <rect x="623" y="776.9" width="152.0" height="3" rx="1.5" fill="#FF6685" fill-opacity="0.33"/>
<rect x="420.3" y="810.8" width="156.7" height="3" rx="1.5" fill="#50E3C2" fill-opacity="0.30"/>
      <rect x="623" y="810.8" width="147.6" height="3" rx="1.5" fill="#FF6685" fill-opacity="0.30"/>
<rect x="501.0" y="844.6" width="76.0" height="3" rx="1.5" fill="#50E3C2" fill-opacity="0.26"/>
      <rect x="623" y="844.6" width="70.7" height="3" rx="1.5" fill="#FF6685" fill-opacity="0.26"/></g>
  <line x1="197.0" y1="690.3" x2="1003.0" y2="690.3" stroke="#B4C7C2" stroke-opacity="0.18" stroke-dasharray="5 12"/>
  <path d="M 229.0 690.3 L 282.0 693.5 L 335.0 696.1 L 388.0 711.3 L 441.0 664.9 L 494.0 673.4 L 547.0 680.6 L 600.0 708.5 L 653.0 666.5 L 706.0 685.2 L 759.0 676.6 L 812.0 703.4 L 865.0 697.6 L 918.0 689.3 L 971.0 689.9" fill="none" stroke="#8DCEFF" stroke-width="3.5" stroke-linecap="round" stroke-linejoin="round"/>
  <circle cx="197.0" cy="690.3" r="6" fill="#07100F" stroke="#B4C7C2" stroke-width="2"/>
  <circle cx="1003.0" cy="689.9" r="8" fill="#8DCEFF" filter="url(#hwa-308-glow)"/>
  <circle cx="422.7" cy="643.0" r="78.3" fill="url(#hwa-308-pulse)"/>
  <circle cx="422.7" cy="643.0" r="29.0" fill="#07100F" stroke="#C8FF3D" stroke-width="2"/><circle cx="422.7" cy="643.0" r="5" fill="#C8FF3D"/>
  <text x="205.0" y="677.3" fill="#718580" font-family="monospace" font-size="12">ENTRY</text>
  <text x="995.0" y="675.9" text-anchor="end" fill="#8DCEFF" font-family="monospace" font-size="12">MARK</text>

  <path d="M 82 976 H 1118" stroke="#9EB3AE" stroke-opacity="0.15"/>
  <g font-family="monospace">
    <text x="82" y="1020" fill="#647873" font-size="14" letter-spacing="2">SIZE</text>
    <text x="82" y="1053" fill="#E3ECE9" font-size="21">0.906 HYPE</text>
    <text x="355" y="1020" fill="#647873" font-size="14" letter-spacing="2">ENTRY</text>
    <text x="355" y="1053" fill="#E3ECE9" font-size="21">0.038039</text>
    <text x="600" y="1020" fill="#647873" font-size="14" letter-spacing="2">MARK</text>
    <text x="600" y="1053" fill="#E3ECE9" font-size="21">0.038049</text>
    <text x="1118" y="1020" text-anchor="end" fill="#C8FF3D" font-size="16" font-weight="700" letter-spacing="2">SCALP</text>
    <text x="1118" y="1053" text-anchor="end" fill="#647873" font-size="13">1 / 333 EQUAL UNIT</text>
    <text x="82" y="1114" fill="#536660" font-size="12" letter-spacing="1.5">ABSTRACT LIQUIDITY FOOTPRINT · HWA-GEN-2.0.0</text>
  </g>
</svg>
