<?xml version="1.0" encoding="UTF-8"?>
<svg xmlns="http://www.w3.org/2000/svg" viewBox="0 0 1200 1200" role="img" aria-labelledby="hwa-104-t">
  <title id="hwa-104-t">HWA Genesis 104 — simulated short pressure field</title>
  <defs>
    <radialGradient id="hwa-S-bg" cx="50%" cy="44%" r="78%">
      <stop offset="0" stop-color="#0A2B21"/>
      <stop offset="0.55" stop-color="#061A14"/>
      <stop offset="1" stop-color="#030C09"/>
    </radialGradient>
    <radialGradient id="hwa-S-core" cx="50%" cy="50%" r="50%">
      <stop offset="0" stop-color="#FF7E9B" stop-opacity="0.16"/>
      <stop offset="1" stop-color="#FF7E9B" stop-opacity="0"/>
    </radialGradient>
  </defs>
  <rect width="1200" height="1200" fill="url(#hwa-S-bg)"/>
  <!--GEOM--><g>
    <circle cx="601.4" cy="510.9" r="184.5" fill="url(#hwa-S-core)"/>
    
    <path d="M 663.1 511.9 C 663.1 512.8 663.1 513.6 663.1 514.5 C 663.1 515.3 663.1 516.2 663.1 517 C 663.1 517.9 663.1 518.8 663.1 519.6 C 663 520.5 663 521.4 662.9 522.3 C 662.9 523.1 662.8 524 662.7 524.9 C 662.6 525.8 662.5 526.7 662.4 527.6 C 662.2 528.5 662.1 529.4 661.9 530.2 C 661.7 531.1 661.5 532 661.3 532.9 C 661 533.8 660.8 534.7 660.5 535.5 C 660.1 536.4 659.8 537.3 659.5 538.1 C 659.1 539 658.7 539.8 658.3 540.6 C 657.8 541.4 657.4 542.2 656.9 543 C 656.4 543.8 655.8 544.5 655.2 545.3 C 654.6 546 654 546.7 653.4 547.4 C 652.8 548.1 652.2 548.7 651.5 549.4 C 650.9 550 650.2 550.7 649.5 551.3 C 648.8 551.9 648.1 552.5 647.4 553.1 C 646.7 553.7 646 554.3 645.3 554.8 C 644.6 555.4 643.9 555.9 643.2 556.5 C 642.5 557 641.7 557.6 641 558.1 C 640.3 558.6 639.6 559.1 638.8 559.7 C 638.1 560.2 637.4 560.7 636.7 561.2 C 635.9 561.7 635.2 562.2 634.4 562.7 C 633.7 563.2 632.9 563.7 632.2 564.2 C 631.4 564.7 630.7 565.1 629.9 565.6 C 629.1 566 628.3 566.5 627.5 566.9 C 626.7 567.3 625.9 567.7 625.1 568.1 C 624.3 568.4 623.5 568.8 622.6 569.1 C 621.8 569.4 620.9 569.7 620.1 569.9 C 619.2 570.2 618.3 570.4 617.4 570.6 C 616.6 570.8 615.7 570.9 614.8 571 C 613.9 571.1 613 571.2 612.1 571.2 C 611.2 571.3 610.3 571.3 609.4 571.3 C 608.5 571.2 607.6 571.1 606.7 571.1 C 605.8 571 604.9 570.8 604.1 570.7 C 603.2 570.5 602.3 570.4 601.4 570.2 C 600.6 570 599.7 569.8 598.9 569.6 C 598 569.4 597.2 569.2 596.4 568.9 C 595.5 568.7 594.7 568.5 593.9 568.3 C 593.1 568 592.3 567.8 591.4 567.6 C 590.6 567.4 589.8 567.2 589 567 C 588.2 566.8 587.4 566.6 586.6 566.4 C 585.8 566.2 584.9 566 584.1 565.8 C 583.3 565.6 582.5 565.5 581.6 565.3 C 580.8 565.1 580 565 579.1 564.8 C 578.3 564.6 577.4 564.5 576.5 564.3 C 575.7 564.1 574.8 563.9 573.9 563.7 C 573.1 563.5 572.2 563.3 571.3 563.1 C 570.4 562.8 569.6 562.6 568.7 562.3 C 567.8 562 567 561.7 566.1 561.4 C 565.2 561.1 564.4 560.7 563.5 560.3 C 562.7 559.9 561.9 559.5 561 559.1 C 560.2 558.6 559.4 558.1 558.6 557.6 C 557.9 557.1 557.1 556.6 556.4 556 C 555.6 555.4 554.9 554.8 554.2 554.2 C 553.5 553.6 552.8 553 552.1 552.3 C 551.5 551.6 550.9 550.9 550.2 550.2 C 549.6 549.5 549 548.8 548.5 548 C 547.9 547.3 547.3 546.5 546.8 545.8 C 546.3 545 545.7 544.2 545.2 543.4 C 544.7 542.6 544.3 541.8 543.8 541 C 543.3 540.2 542.9 539.3 542.5 538.5 C 542 537.7 541.7 536.8 541.3 535.9 C 540.9 535.1 540.6 534.2 540.3 533.3 C 540 532.4 539.7 531.5 539.4 530.6 C 539.2 529.7 538.9 528.8 538.7 527.9 C 538.5 527 538.4 526.1 538.2 525.2 C 538.1 524.3 538 523.3 537.9 522.4 C 537.8 521.5 537.8 520.6 537.8 519.7 C 537.7 518.8 537.8 517.8 537.8 516.9 C 537.9 516 538 515.1 538.1 514.2 C 538.2 513.3 538.4 512.5 538.5 511.6 C 538.7 510.7 538.9 509.8 539.1 509 C 539.4 508.2 539.6 507.3 539.9 506.5 C 540.2 505.7 540.4 504.9 540.7 504.1 C 541 503.3 541.4 502.5 541.7 501.8 C 542 501 542.3 500.2 542.6 499.5 C 543 498.8 543.3 498.1 543.6 497.3 C 544 496.6 544.3 495.9 544.6 495.2 C 545 494.6 545.3 493.9 545.6 493.2 C 545.9 492.6 546.3 491.9 546.6 491.3 C 546.9 490.6 547.3 490 547.6 489.4 C 547.9 488.7 548.3 488.1 548.6 487.5 C 549 486.9 549.3 486.4 549.7 485.8 C 550 485.2 550.4 484.7 550.8 484.1 C 551.1 483.6 551.5 483.1 552 482.6 C 552.4 482.1 552.8 481.6 553.2 481.1 C 553.7 480.6 554.1 480.2 554.6 479.8 C 555.1 479.3 555.6 478.9 556.1 478.6 C 556.6 478.2 557.2 477.8 557.8 477.5 C 558.3 477.2 558.9 476.9 559.5 476.6 C 560.1 476.3 560.8 476 561.4 475.7 C 562 475.5 562.7 475.3 563.4 475 C 564 474.8 564.7 474.6 565.4 474.4 C 566.1 474.2 566.8 474.1 567.5 473.9 C 568.3 473.7 569 473.6 569.7 473.5 C 570.5 473.3 571.3 473.2 572 473.1 C 572.8 473 573.6 472.9 574.4 472.8 C 575.2 472.7 576 472.6 576.8 472.5 C 577.6 472.5 578.4 472.4 579.2 472.4 C 580.1 472.3 580.9 472.3 581.8 472.2 C 582.6 472.2 583.4 472.1 584.3 472.1 C 585.2 472.1 586 472.1 586.9 472.1 C 587.8 472 588.6 472 589.5 472 C 590.4 472 591.3 472 592.2 472 C 593.1 472.1 593.9 472.1 594.8 472.1 C 595.7 472.1 596.6 472.1 597.5 472.2 C 598.4 472.2 599.3 472.2 600.2 472.2 C 601.1 472.3 602 472.3 602.9 472.4 C 603.8 472.4 604.8 472.5 605.7 472.5 C 606.6 472.6 607.5 472.6 608.4 472.7 C 609.2 472.8 610.1 472.8 611 472.9 C 611.9 473 612.8 473.1 613.7 473.1 C 614.6 473.2 615.4 473.3 616.3 473.4 C 617.2 473.5 618.1 473.6 618.9 473.7 C 619.8 473.8 620.6 473.9 621.5 474 C 622.3 474.2 623.1 474.3 623.9 474.4 C 624.8 474.5 625.6 474.7 626.4 474.8 C 627.2 475 628 475.1 628.8 475.3 C 629.6 475.4 630.3 475.6 631.1 475.8 C 631.9 475.9 632.6 476.1 633.4 476.3 C 634.1 476.5 634.9 476.7 635.6 476.9 C 636.3 477.1 637 477.3 637.7 477.5 C 638.4 477.8 639.1 478 639.8 478.2 C 640.5 478.5 641.2 478.7 641.9 479 C 642.5 479.3 643.2 479.6 643.9 479.9 C 644.5 480.2 645.1 480.5 645.8 480.8 C 646.4 481.1 647 481.4 647.6 481.8 C 648.2 482.2 648.7 482.5 649.3 482.9 C 649.9 483.3 650.4 483.7 650.9 484.2 C 651.5 484.6 652 485 652.5 485.5 C 653 485.9 653.5 486.4 654 486.9 C 654.5 487.4 654.9 487.9 655.4 488.5 C 655.8 489 656.3 489.5 656.7 490.1 C 657.1 490.7 657.5 491.3 657.9 491.9 C 658.2 492.5 658.6 493.1 658.9 493.8 C 659.3 494.4 659.6 495.1 659.9 495.7 C 660.2 496.4 660.4 497.1 660.7 497.8 C 660.9 498.5 661.2 499.3 661.4 500 C 661.6 500.8 661.8 501.5 661.9 502.3 C 662.1 503 662.2 503.8 662.4 504.6 C 662.5 505.4 662.6 506.2 662.7 507 C 662.8 507.8 662.8 508.6 662.9 509.5 C 663 510.3 663 511.1 663.1 511.9 Z" fill="none" stroke="#FF7E9B" stroke-opacity="0.70" stroke-width="3.08"/>
    <path d="M 719.8 511.6 C 719.9 513.2 720.1 514.9 720.2 516.6 C 720.3 518.3 720.4 519.9 720.5 521.7 C 720.6 523.4 720.7 525.1 720.8 526.8 C 720.8 528.6 720.9 530.3 720.9 532.1 C 720.9 533.9 720.9 535.7 720.8 537.5 C 720.6 539.2 720.3 541 720.1 542.8 C 719.8 544.5 719.4 546.3 719 548 C 718.6 549.7 718.1 551.5 717.5 553.2 C 717 554.9 716.3 556.6 715.6 558.2 C 714.9 559.9 714.2 561.5 713.3 563.1 C 712.5 564.6 711.5 566.2 710.5 567.7 C 709.5 569.2 708.5 570.6 707.4 572 C 706.2 573.5 705.1 574.8 703.8 576.1 C 702.6 577.4 701.3 578.7 700 579.9 C 698.7 581.1 697.4 582.3 696 583.4 C 694.6 584.6 693.2 585.7 691.8 586.7 C 690.4 587.8 689 588.8 687.6 589.8 C 686.2 590.8 684.7 591.8 683.3 592.8 C 681.9 593.7 680.5 594.7 679.1 595.6 C 677.7 596.5 676.3 597.5 674.9 598.4 C 673.5 599.3 672.1 600.3 670.7 601.2 C 669.4 602.1 668 603.1 666.6 604 C 665.3 604.9 663.9 605.9 662.5 606.8 C 661.2 607.7 659.8 608.7 658.4 609.6 C 657.1 610.5 655.7 611.4 654.3 612.3 C 652.8 613.2 651.4 614.1 650 615 C 648.5 615.8 647.1 616.6 645.6 617.4 C 644.1 618.2 642.6 618.9 641 619.6 C 639.5 620.3 637.9 620.9 636.3 621.4 C 634.7 622 633.1 622.5 631.5 622.9 C 629.8 623.3 628.2 623.7 626.5 623.9 C 624.8 624.2 623.2 624.4 621.5 624.5 C 619.8 624.6 618.1 624.7 616.4 624.7 C 614.7 624.6 613 624.5 611.4 624.4 C 609.7 624.2 608 624 606.4 623.7 C 604.7 623.5 603.1 623.2 601.4 622.8 C 599.8 622.5 598.2 622.1 596.6 621.7 C 595 621.3 593.4 620.9 591.9 620.5 C 590.3 620 588.7 619.6 587.2 619.2 C 585.6 618.8 584.1 618.4 582.6 618 C 581 617.6 579.5 617.2 578 616.8 C 576.4 616.5 574.9 616.1 573.3 615.8 C 571.8 615.5 570.2 615.2 568.6 614.9 C 567.1 614.6 565.5 614.4 563.9 614.1 C 562.3 613.8 560.6 613.6 559 613.3 C 557.4 613.1 555.7 612.8 554.1 612.5 C 552.4 612.2 550.7 611.9 549 611.6 C 547.3 611.3 545.6 610.9 543.9 610.5 C 542.2 610.1 540.5 609.7 538.8 609.2 C 537.1 608.7 535.4 608.1 533.8 607.5 C 532.1 606.9 530.4 606.3 528.8 605.5 C 527.2 604.8 525.6 604 524 603.1 C 522.5 602.3 520.9 601.3 519.5 600.4 C 518 599.4 516.5 598.3 515.1 597.2 C 513.7 596.1 512.4 594.9 511 593.7 C 509.7 592.5 508.5 591.2 507.2 589.9 C 506 588.6 504.8 587.3 503.7 585.9 C 502.6 584.5 501.5 583.1 500.4 581.6 C 499.4 580.2 498.4 578.7 497.4 577.2 C 496.4 575.7 495.5 574.2 494.5 572.6 C 493.6 571.1 492.7 569.5 491.9 567.9 C 491 566.3 490.2 564.8 489.4 563.1 C 488.6 561.5 487.8 559.9 487.1 558.3 C 486.4 556.6 485.7 555 485 553.3 C 484.3 551.6 483.7 549.9 483.1 548.2 C 482.6 546.5 482 544.8 481.6 543 C 481.1 541.3 480.7 539.5 480.3 537.8 C 480 536 479.7 534.2 479.5 532.5 C 479.3 530.7 479.2 528.9 479.2 527.1 C 479.2 525.3 479.3 523.5 479.6 521.7 C 479.8 519.9 480.1 518.1 480.5 516.4 C 480.9 514.6 481.4 512.9 481.9 511.2 C 482.4 509.5 482.9 507.8 483.5 506.2 C 484.1 504.5 484.7 502.9 485.3 501.4 C 485.9 499.8 486.6 498.2 487.2 496.7 C 487.9 495.2 488.5 493.7 489.2 492.3 C 489.8 490.8 490.4 489.4 491 488 C 491.6 486.7 492.2 485.3 492.8 484 C 493.4 482.7 493.9 481.4 494.4 480.1 C 494.9 478.8 495.4 477.6 495.9 476.4 C 496.4 475.2 496.9 474.1 497.3 473 C 497.8 471.9 498.2 470.8 498.7 469.8 C 499.2 468.8 499.6 467.8 500.1 467 C 500.7 466.1 501.3 465.3 502 464.6 C 502.7 463.9 503.6 463.3 504.4 462.8 C 505.2 462.2 506 461.7 506.9 461.2 C 507.7 460.8 508.6 460.4 509.5 460.1 C 510.4 459.7 511.3 459.4 512.3 459.1 C 513.2 458.9 514.2 458.6 515.2 458.4 C 516.2 458.3 517.3 458.1 518.3 458 C 519.4 457.8 520.5 457.7 521.6 457.6 C 522.7 457.5 523.8 457.5 525 457.4 C 526.2 457.4 527.4 457.3 528.6 457.3 C 529.8 457.3 531.1 457.3 532.4 457.3 C 533.7 457.3 535 457.3 536.4 457.3 C 537.7 457.3 539.1 457.3 540.5 457.4 C 541.9 457.4 543.3 457.4 544.7 457.5 C 546.2 457.5 547.6 457.6 549.1 457.6 C 550.6 457.7 552.1 457.7 553.6 457.8 C 555.2 457.9 556.7 457.9 558.3 458 C 559.8 458.1 561.4 458.1 563 458.2 C 564.6 458.3 566.2 458.3 567.8 458.4 C 569.5 458.5 571.1 458.6 572.7 458.6 C 574.4 458.7 576 458.8 577.7 458.9 C 579.4 458.9 581 459 582.7 459.1 C 584.4 459.2 586.1 459.3 587.8 459.4 C 589.5 459.4 591.2 459.5 592.9 459.6 C 594.6 459.7 596.3 459.8 598 459.9 C 599.7 460 601.4 460 603.2 460.1 C 604.9 460.2 606.6 460.3 608.3 460.4 C 610 460.5 611.7 460.6 613.4 460.7 C 615.1 460.8 616.8 460.8 618.5 460.9 C 620.2 461 621.9 461.1 623.5 461.2 C 625.2 461.3 626.9 461.4 628.5 461.5 C 630.2 461.6 631.8 461.7 633.4 461.7 C 635 461.8 636.6 461.9 638.2 462 C 639.8 462.1 641.4 462.2 642.9 462.3 C 644.5 462.4 646 462.5 647.5 462.6 C 649.1 462.7 650.5 462.8 652 462.9 C 653.5 462.9 655 463 656.4 463.1 C 657.9 463.2 659.3 463.3 660.7 463.4 C 662.1 463.6 663.5 463.7 664.9 463.8 C 666.3 463.9 667.6 464 669 464.1 C 670.3 464.2 671.6 464.4 672.9 464.5 C 674.3 464.6 675.6 464.8 676.8 464.9 C 678.1 465 679.4 465.2 680.6 465.4 C 681.9 465.5 683.1 465.7 684.3 465.9 C 685.5 466.1 686.7 466.3 687.9 466.5 C 689 466.7 690.2 467 691.3 467.2 C 692.4 467.5 693.5 467.8 694.6 468.1 C 695.7 468.4 696.7 468.8 697.7 469.2 C 698.8 469.6 699.7 470 700.7 470.5 C 701.7 471 702.6 471.5 703.5 472 C 704.3 472.6 705.2 473.2 706 473.9 C 706.8 474.6 707.6 475.4 708.3 476.2 C 709 477 709.7 477.9 710.4 478.8 C 711 479.8 711.7 480.8 712.3 481.9 C 712.8 483 713.4 484.1 713.9 485.3 C 714.5 486.5 715 487.7 715.4 489.1 C 715.9 490.4 716.3 491.7 716.7 493.1 C 717 494.5 717.4 496 717.7 497.5 C 718 498.9 718.3 500.5 718.5 502 C 718.8 503.6 719 505.1 719.2 506.7 C 719.4 508.3 719.6 510 719.8 511.6 Z" fill="none" stroke="#FF7E9B" stroke-opacity="0.61" stroke-width="2.76"/>
    <path d="M 777 511.4 C 777.5 513.8 778 516.3 778.4 518.9 C 778.8 521.4 779.3 524 779.7 526.6 C 780 529.3 780.2 531.9 780.3 534.5 C 780.4 537.2 780.3 539.8 780.1 542.4 C 780 545.1 779.7 547.7 779.4 550.4 C 779.1 553 778.7 555.7 778.2 558.3 C 777.7 560.9 777.1 563.5 776.4 566.1 C 775.7 568.6 774.8 571.2 773.9 573.6 C 772.9 576.1 771.8 578.6 770.6 581 C 769.4 583.3 768 585.7 766.6 587.9 C 765.1 590.1 763.6 592.3 761.9 594.4 C 760.2 596.5 758.4 598.5 756.5 600.4 C 754.7 602.3 752.7 604.2 750.6 605.9 C 748.6 607.7 746.5 609.4 744.4 611 C 742.2 612.5 740 614.1 737.8 615.5 C 735.6 617 733.3 618.3 731.1 619.7 C 728.8 621 726.6 622.3 724.4 623.5 C 722.1 624.8 719.9 626 717.8 627.2 C 715.6 628.4 713.4 629.6 711.3 630.8 C 709.2 632 707.1 633.2 705.1 634.4 C 703 635.6 701 636.8 699 638.1 C 697.1 639.3 695.1 640.6 693.2 641.9 C 691.3 643.2 689.4 644.6 687.5 645.9 C 685.6 647.3 683.7 648.6 681.8 650 C 679.9 651.4 678 652.8 676 654.2 C 674.1 655.6 672.2 657 670.2 658.3 C 668.2 659.6 666.2 661 664.1 662.2 C 662.1 663.5 660 664.7 657.9 665.9 C 655.7 667 653.5 668.1 651.3 669.1 C 649.1 670.1 646.8 671 644.5 671.7 C 642.2 672.5 639.9 673.2 637.5 673.7 C 635.2 674.3 632.8 674.7 630.4 675 C 628 675.4 625.6 675.6 623.1 675.6 C 620.7 675.7 618.3 675.7 615.9 675.6 C 613.4 675.5 611 675.3 608.6 675 C 606.2 674.7 603.8 674.3 601.4 673.9 C 599.1 673.5 596.7 673 594.4 672.5 C 592.1 672 589.7 671.4 587.4 670.9 C 585.1 670.3 582.9 669.8 580.6 669.2 C 578.3 668.7 576.1 668.1 573.8 667.6 C 571.5 667.1 569.3 666.6 567 666.1 C 564.8 665.7 562.5 665.2 560.2 664.8 C 557.9 664.4 555.6 664.1 553.3 663.7 C 550.9 663.3 548.6 663 546.2 662.7 C 543.8 662.4 541.4 662.1 539 661.7 C 536.5 661.4 534.1 661.1 531.6 660.7 C 529.1 660.3 526.6 659.9 524.1 659.5 C 521.6 659 519 658.5 516.5 658 C 514 657.4 511.5 656.8 509 656 C 506.5 655.3 504 654.5 501.5 653.5 C 499.1 652.6 496.7 651.6 494.3 650.5 C 492 649.4 489.6 648.1 487.4 646.8 C 485.1 645.5 482.9 644.1 480.8 642.5 C 478.7 641 476.6 639.4 474.7 637.7 C 472.7 636 470.8 634.2 469 632.3 C 467.1 630.4 465.4 628.5 463.7 626.5 C 462 624.5 460.4 622.4 458.9 620.3 C 457.3 618.2 455.8 616 454.4 613.8 C 453 611.6 451.6 609.4 450.3 607.2 C 449 604.9 447.7 602.7 446.4 600.4 C 445.2 598.1 444 595.8 442.8 593.5 C 441.6 591.2 440.5 588.8 439.4 586.5 C 438.2 584.1 437.2 581.8 436.1 579.4 C 435.1 577 434.1 574.6 433.1 572.2 C 432.1 569.7 431.2 567.3 430.4 564.8 C 429.5 562.4 428.7 559.9 428 557.4 C 427.3 554.8 426.7 552.3 426.2 549.8 C 425.6 547.2 425.2 544.6 424.9 542 C 424.6 539.4 424.4 536.8 424.3 534.2 C 424.2 531.6 424.3 529 424.5 526.4 C 424.7 523.8 425.1 521.2 425.6 518.6 C 426.1 516.1 426.7 513.5 427.6 511 C 428.4 508.5 429.5 506.1 430.5 503.7 C 431.5 501.3 432.5 498.9 433.6 496.6 C 434.6 494.3 435.7 492 436.7 489.8 C 437.7 487.6 438.7 485.5 439.6 483.4 C 440.5 481.2 441.4 479.2 442.2 477.2 C 443 475.1 443.8 473.2 444.4 471.2 C 445.1 469.3 445.7 467.4 446.2 465.6 C 446.8 463.9 447.2 462.1 447.7 460.5 C 448.1 458.9 448.3 457.3 448.9 456 C 449.4 454.6 450.1 453.4 450.9 452.4 C 451.8 451.4 453 450.6 454 449.9 C 455.1 449.2 456.1 448.6 457.2 448 C 458.3 447.5 459.4 447.1 460.6 446.8 C 461.7 446.4 462.9 446.2 464.1 445.9 C 465.3 445.7 466.5 445.6 467.8 445.4 C 469 445.3 470.3 445.2 471.7 445.2 C 473 445.1 474.4 445.1 475.8 445.1 C 477.2 445.1 478.7 445.1 480.2 445.1 C 481.7 445.1 483.2 445.2 484.8 445.2 C 486.4 445.2 488.1 445.3 489.7 445.4 C 491.4 445.4 493.1 445.5 494.9 445.6 C 496.7 445.6 498.5 445.7 500.4 445.8 C 502.2 445.9 504.1 446 506.1 446.1 C 508 446.2 510 446.3 512 446.4 C 514 446.5 516.1 446.6 518.2 446.7 C 520.3 446.8 522.4 446.9 524.6 447 C 526.7 447.1 528.9 447.2 531.1 447.3 C 533.4 447.4 535.6 447.5 537.9 447.6 C 540.2 447.8 542.5 447.9 544.8 448 C 547.1 448.1 549.4 448.2 551.8 448.3 C 554.1 448.5 556.5 448.6 558.9 448.7 C 561.3 448.8 563.7 449 566.1 449.1 C 568.6 449.2 571 449.3 573.4 449.4 C 575.9 449.6 578.4 449.7 580.8 449.8 C 583.3 450 585.8 450.1 588.3 450.2 C 590.7 450.3 593.2 450.5 595.7 450.6 C 598.2 450.7 600.7 450.8 603.2 451 C 605.7 451.1 608.2 451.2 610.7 451.4 C 613.2 451.5 615.7 451.6 618.2 451.7 C 620.6 451.9 623.1 452 625.6 452.1 C 628 452.2 630.5 452.4 632.9 452.5 C 635.3 452.6 637.7 452.7 640.1 452.9 C 642.5 453 644.8 453.1 647.2 453.2 C 649.5 453.3 651.8 453.5 654.1 453.6 C 656.4 453.7 658.7 453.8 660.9 453.9 C 663.1 454 665.3 454.2 667.5 454.3 C 669.7 454.4 671.9 454.5 674 454.6 C 676.1 454.7 678.2 454.8 680.3 454.9 C 682.4 455 684.4 455.2 686.4 455.3 C 688.5 455.4 690.5 455.5 692.5 455.6 C 694.4 455.7 696.4 455.8 698.3 455.9 C 700.3 456 702.2 456.1 704.1 456.2 C 706 456.3 707.8 456.5 709.7 456.6 C 711.6 456.7 713.4 456.8 715.2 456.9 C 717 457 718.8 457.1 720.6 457.3 C 722.3 457.4 724.1 457.5 725.8 457.6 C 727.5 457.8 729.2 457.9 730.9 458.1 C 732.6 458.2 734.2 458.4 735.8 458.6 C 737.4 458.7 739 458.9 740.5 459.2 C 742 459.4 743.5 459.6 744.9 459.9 C 746.4 460.2 747.7 460.5 749.1 460.9 C 750.4 461.3 751.7 461.8 753 462.3 C 754.2 462.8 755.4 463.4 756.5 464.1 C 757.6 464.8 758.7 465.6 759.7 466.6 C 760.7 467.6 761.6 468.6 762.5 469.8 C 763.4 471.1 764.3 472.4 765.2 473.9 C 766.1 475.4 766.9 477 767.7 478.7 C 768.5 480.4 769.3 482.3 770 484.3 C 770.7 486.2 771.4 488.3 772.1 490.4 C 772.7 492.5 773.3 494.8 773.9 497.1 C 774.5 499.3 775 501.7 775.5 504.1 C 776.1 506.4 776.6 508.9 777 511.4 Z" fill="none" stroke="#FF7E9B" stroke-opacity="0.53" stroke-width="2.44"/>
    <path d="M 836.8 511.2 C 837.9 514.6 839.2 518 840 521.5 C 840.8 524.9 841.1 528.4 841.4 532 C 841.6 535.5 841.6 539 841.6 542.5 C 841.6 546.1 841.5 549.6 841.2 553.2 C 841 556.7 840.6 560.3 840.1 563.8 C 839.6 567.3 839 570.9 838.2 574.3 C 837.4 577.8 836.4 581.2 835.3 584.6 C 834.1 588 832.8 591.3 831.3 594.5 C 829.8 597.8 828.1 600.9 826.2 604 C 824.3 607 822.3 610 820 612.8 C 817.8 615.6 815.4 618.4 812.8 620.9 C 810.3 623.5 807.6 626 804.8 628.3 C 801.9 630.6 799 632.8 796 634.8 C 792.9 636.8 789.8 638.8 786.6 640.6 C 783.5 642.4 780.2 644 777 645.6 C 773.8 647.2 770.5 648.7 767.3 650.1 C 764.1 651.5 760.9 652.9 757.8 654.2 C 754.7 655.5 751.6 656.8 748.6 658 C 745.6 659.3 742.7 660.6 739.8 661.9 C 737 663.2 734.2 664.5 731.5 665.9 C 728.8 667.2 726.2 668.7 723.6 670.1 C 721.1 671.6 718.6 673.2 716.2 674.8 C 713.8 676.4 711.4 678.1 709.1 679.9 C 706.8 681.6 704.5 683.5 702.2 685.3 C 699.8 687.2 697.6 689.1 695.2 691.1 C 692.9 693 690.6 695 688.2 696.9 C 685.8 698.9 683.4 700.8 680.9 702.7 C 678.4 704.6 675.9 706.5 673.3 708.2 C 670.7 710 668 711.7 665.3 713.3 C 662.5 714.9 659.7 716.3 656.8 717.6 C 654 719 651 720.1 648.1 721.2 C 645.1 722.2 642 723.1 639 723.8 C 635.9 724.5 632.8 725 629.7 725.4 C 626.6 725.8 623.4 726 620.3 726.1 C 617.1 726.2 614 726.1 610.8 726 C 607.7 725.8 604.6 725.5 601.4 725.1 C 598.3 724.8 595.2 724.3 592.1 723.8 C 589.1 723.3 586 722.7 583 722.2 C 579.9 721.6 576.9 721 573.9 720.4 C 570.8 719.8 567.8 719.2 564.8 718.6 C 561.8 718.1 558.8 717.5 555.7 717 C 552.7 716.5 549.7 716 546.6 715.6 C 543.5 715.1 540.4 714.7 537.3 714.3 C 534.2 713.9 531 713.6 527.8 713.2 C 524.6 712.8 521.4 712.4 518.1 712 C 514.9 711.6 511.6 711.2 508.2 710.7 C 504.9 710.2 501.6 709.7 498.3 709.1 C 494.9 708.5 491.6 707.8 488.2 707 C 484.9 706.2 481.6 705.2 478.3 704.2 C 475 703.1 471.8 702 468.6 700.6 C 465.4 699.3 462.3 697.8 459.2 696.2 C 456.2 694.6 453.3 692.8 450.4 690.9 C 447.6 689 444.8 686.9 442.2 684.7 C 439.5 682.5 437 680.2 434.6 677.8 C 432.2 675.3 429.9 672.8 427.7 670.1 C 425.5 667.5 423.4 664.7 421.4 662 C 419.4 659.2 417.5 656.3 415.7 653.4 C 413.9 650.5 412.2 647.5 410.6 644.5 C 408.9 641.5 407.4 638.5 405.8 635.5 C 404.3 632.5 402.8 629.4 401.4 626.4 C 399.9 623.4 398.5 620.3 397.1 617.3 C 395.7 614.2 394.3 611.2 393 608.1 C 391.6 605 390.3 602 389 598.9 C 387.7 595.8 386.4 592.7 385.1 589.6 C 383.9 586.5 382.7 583.4 381.6 580.2 C 380.4 577.1 379.3 573.9 378.4 570.7 C 377.4 567.4 376.5 564.2 375.7 560.9 C 374.9 557.7 374.3 554.4 373.8 551 C 373.3 547.7 372.9 544.4 372.7 541 C 372.6 537.6 372.6 534.3 372.7 530.9 C 372.9 527.6 373.3 524.2 373.9 520.9 C 374.5 517.5 375.3 514.2 376.2 511 C 377.2 507.7 378.4 504.5 379.7 501.3 C 381 498.2 382.6 495.1 384.1 492.1 C 385.5 489.1 386.9 486.2 388.3 483.3 C 389.6 480.4 390.9 477.6 392 474.8 C 393.2 472 394.2 469.3 395.1 466.6 C 396 464 396.7 461.3 397.4 458.8 C 398 456.3 398.5 453.8 398.9 451.6 C 399.2 449.3 399.2 447 399.7 445.2 C 400.2 443.3 400.8 441.7 401.8 440.4 C 402.8 439.1 404.3 438.2 405.6 437.4 C 406.8 436.5 408.1 435.9 409.5 435.4 C 410.8 434.9 412.1 434.5 413.5 434.2 C 414.9 433.9 416.3 433.8 417.8 433.6 C 419.2 433.5 420.7 433.4 422.3 433.4 C 423.8 433.3 425.4 433.3 427 433.3 C 428.6 433.3 430.3 433.4 432 433.4 C 433.7 433.5 435.4 433.5 437.3 433.6 C 439.1 433.7 441 433.8 442.9 433.8 C 444.8 433.9 446.8 434 448.9 434.1 C 450.9 434.2 453 434.3 455.2 434.4 C 457.4 434.5 459.6 434.6 461.9 434.7 C 464.2 434.9 466.6 435 469 435.1 C 471.4 435.2 473.9 435.3 476.4 435.5 C 479 435.6 481.5 435.7 484.2 435.9 C 486.8 436 489.5 436.1 492.2 436.3 C 495 436.4 497.8 436.6 500.6 436.7 C 503.4 436.8 506.3 437 509.1 437.1 C 512 437.3 515 437.4 517.9 437.6 C 520.9 437.7 523.9 437.9 526.9 438.1 C 530 438.2 533 438.4 536.1 438.5 C 539.2 438.7 542.3 438.8 545.4 439 C 548.5 439.2 551.7 439.3 554.8 439.5 C 558 439.6 561.2 439.8 564.4 440 C 567.6 440.1 570.8 440.3 574 440.5 C 577.3 440.6 580.5 440.8 583.8 441 C 587 441.1 590.3 441.3 593.5 441.5 C 596.8 441.6 600 441.8 603.3 442 C 606.6 442.1 609.8 442.3 613.1 442.5 C 616.3 442.6 619.6 442.8 622.8 442.9 C 626 443.1 629.2 443.3 632.4 443.4 C 635.6 443.6 638.8 443.8 642 443.9 C 645.1 444.1 648.2 444.3 651.3 444.4 C 654.4 444.6 657.5 444.7 660.5 444.9 C 663.6 445 666.6 445.2 669.5 445.3 C 672.5 445.5 675.4 445.6 678.3 445.8 C 681.2 445.9 684.1 446.1 686.9 446.2 C 689.7 446.4 692.5 446.5 695.2 446.7 C 697.9 446.8 700.7 446.9 703.3 447.1 C 706 447.2 708.6 447.3 711.2 447.5 C 713.9 447.6 716.4 447.7 719 447.9 C 721.5 448 724.1 448.1 726.6 448.3 C 729.1 448.4 731.5 448.5 734 448.6 C 736.5 448.8 738.9 448.9 741.3 449 C 743.7 449.2 746.1 449.3 748.5 449.4 C 750.8 449.5 753.2 449.7 755.5 449.8 C 757.8 449.9 760.1 450 762.4 450.2 C 764.6 450.3 766.9 450.4 769.1 450.6 C 771.3 450.7 773.4 450.8 775.5 451 C 777.7 451.1 779.7 451.2 781.8 451.4 C 783.8 451.6 785.8 451.7 787.7 451.9 C 789.6 452.1 791.5 452.3 793.3 452.5 C 795.1 452.8 796.9 453 798.6 453.4 C 800.2 453.7 801.8 454.1 803.4 454.6 C 804.9 455.2 806.3 455.7 807.7 456.5 C 809.1 457.3 810.3 458.2 811.5 459.4 C 812.8 460.5 813.7 461.9 815 463.5 C 816.2 465 817.6 466.8 819 468.9 C 820.3 470.9 821.6 473.1 822.8 475.6 C 824.1 478 825.3 480.6 826.5 483.4 C 827.7 486.1 828.9 489 830.1 492 C 831.2 495 832.4 498.2 833.5 501.4 C 834.6 504.6 835.7 507.9 836.8 511.2 Z" fill="none" stroke="#FF7E9B" stroke-opacity="0.44" stroke-width="2.12" stroke-dasharray="6 10"/>
    <path d="M 900.2 511.1 C 901.9 515.4 903.2 519.8 904.1 524.2 C 904.9 528.6 904.8 533 905.1 537.5 C 905.3 541.9 905.4 546.4 905.3 550.9 C 905.2 555.4 905.1 559.9 904.7 564.4 C 904.3 568.8 903.7 573.3 902.9 577.7 C 902.2 582.1 901.2 586.6 900 590.9 C 898.8 595.2 897.4 599.5 895.7 603.7 C 894 607.8 892 611.9 889.8 615.8 C 887.6 619.8 885.2 623.6 882.5 627.3 C 879.8 630.9 876.8 634.5 873.6 637.8 C 870.4 641.1 867 644.3 863.4 647.2 C 859.8 650.2 855.9 653 852 655.5 C 848 658.1 843.8 660.4 839.6 662.6 C 835.4 664.8 831.1 666.8 826.7 668.6 C 822.4 670.5 817.9 672.1 813.5 673.6 C 809.2 675.2 804.8 676.6 800.5 677.9 C 796.2 679.2 791.9 680.4 787.8 681.6 C 783.6 682.8 779.6 683.9 775.7 685.1 C 771.8 686.3 768 687.5 764.4 688.7 C 760.8 690 757.3 691.3 754 692.7 C 750.7 694.1 747.5 695.6 744.4 697.2 C 741.4 698.8 738.4 700.6 735.6 702.5 C 732.8 704.4 730.1 706.4 727.4 708.6 C 724.7 710.7 722.1 713 719.5 715.4 C 716.9 717.8 714.4 720.3 711.8 722.9 C 709.2 725.5 706.7 728.2 704 730.8 C 701.4 733.5 698.7 736.3 695.9 738.9 C 693.1 741.6 690.3 744.3 687.3 746.9 C 684.4 749.4 681.4 752 678.2 754.4 C 675.1 756.7 671.8 759 668.5 761.1 C 665.1 763.2 661.7 765.1 658.2 766.8 C 654.7 768.5 651 770.1 647.4 771.4 C 643.7 772.7 640 773.8 636.2 774.7 C 632.4 775.6 628.6 776.3 624.7 776.8 C 620.9 777.3 617 777.6 613.1 777.8 C 609.2 777.9 605.3 777.9 601.4 777.8 C 597.6 777.6 593.7 777.3 589.8 777 C 586 776.7 582.1 776.2 578.3 775.7 C 574.4 775.3 570.6 774.7 566.8 774.2 C 562.9 773.7 559.1 773.1 555.3 772.6 C 551.5 772.1 547.6 771.6 543.8 771.1 C 539.9 770.6 536 770.1 532.1 769.6 C 528.2 769.2 524.3 768.8 520.3 768.3 C 516.3 767.9 512.3 767.5 508.2 767 C 504.1 766.6 500 766.2 495.9 765.6 C 491.8 765.1 487.6 764.6 483.5 763.9 C 479.3 763.2 475.1 762.5 470.9 761.6 C 466.8 760.7 462.6 759.7 458.5 758.5 C 454.3 757.4 450.2 756 446.2 754.5 C 442.2 753 438.3 751.3 434.4 749.4 C 430.6 747.5 426.9 745.4 423.3 743.1 C 419.7 740.8 416.2 738.3 412.9 735.6 C 409.6 732.9 406.4 730.1 403.4 727 C 400.4 724 397.5 720.8 394.9 717.5 C 392.2 714.1 389.7 710.6 387.3 707.1 C 385 703.5 382.8 699.8 380.7 696.1 C 378.6 692.4 376.7 688.6 374.8 684.8 C 373 680.9 371.3 677.1 369.6 673.2 C 367.9 669.4 366.4 665.5 364.8 661.6 C 363.3 657.8 361.8 653.9 360.3 650.1 C 358.8 646.3 357.3 642.5 355.8 638.8 C 354.3 635 352.8 631.2 351.3 627.5 C 349.8 623.8 348.3 620.1 346.8 616.4 C 345.3 612.6 343.8 608.9 342.3 605.2 C 340.8 601.5 339.3 597.8 337.8 594 C 336.4 590.2 334.9 586.5 333.6 582.6 C 332.3 578.8 331.1 575 330 571.1 C 328.9 567.2 327.8 563.2 327 559.3 C 326.2 555.3 325.6 551.3 325.1 547.3 C 324.7 543.2 324.5 539.2 324.5 535.1 C 324.5 531.1 324.8 527 325.3 523 C 325.8 518.9 326.6 514.9 327.6 510.9 C 328.6 506.9 329.9 503 331.4 499.2 C 332.9 495.3 334.9 491.6 336.5 487.9 C 338.2 484.2 339.9 480.5 341.4 477 C 343 473.4 344.4 469.9 345.7 466.5 C 346.9 463 348 459.6 348.9 456.3 C 349.7 452.9 350.4 449.6 350.9 446.5 C 351.3 443.4 351.4 440.3 351.6 437.7 C 351.8 435 351.2 432.4 352 430.5 C 352.8 428.6 354.9 427.4 356.3 426.2 C 357.8 425.1 359.3 424.4 360.8 423.7 C 362.4 423.1 363.9 422.8 365.5 422.4 C 367.1 422.1 368.8 422 370.4 421.9 C 372.1 421.8 373.8 421.7 375.6 421.7 C 377.3 421.7 379.1 421.8 381 421.8 C 382.8 421.8 384.7 421.9 386.7 422 C 388.7 422.1 390.7 422.1 392.8 422.2 C 394.9 422.3 397 422.4 399.2 422.5 C 401.4 422.6 403.7 422.8 406.1 422.9 C 408.4 423 410.9 423.1 413.4 423.2 C 415.9 423.4 418.5 423.5 421.2 423.6 C 423.8 423.8 426.6 423.9 429.4 424.1 C 432.2 424.2 435.1 424.3 438.1 424.5 C 441.1 424.7 444.1 424.8 447.2 425 C 450.4 425.1 453.5 425.3 456.8 425.5 C 460 425.6 463.3 425.8 466.7 426 C 470.1 426.1 473.5 426.3 477 426.5 C 480.5 426.7 484 426.8 487.6 427 C 491.1 427.2 494.7 427.4 498.4 427.6 C 502 427.8 505.7 428 509.5 428.1 C 513.2 428.3 517 428.5 520.7 428.7 C 524.5 428.9 528.4 429.1 532.2 429.3 C 536 429.5 539.9 429.7 543.8 429.9 C 547.7 430.1 551.6 430.3 555.5 430.5 C 559.5 430.7 563.4 430.9 567.4 431.1 C 571.4 431.3 575.4 431.5 579.3 431.7 C 583.3 431.9 587.3 432.1 591.3 432.3 C 595.4 432.5 599.4 432.7 603.4 432.9 C 607.4 433.1 611.4 433.4 615.4 433.6 C 619.4 433.8 623.4 434 627.3 434.2 C 631.3 434.4 635.2 434.6 639.2 434.8 C 643.1 435 647 435.2 650.9 435.4 C 654.7 435.6 658.6 435.8 662.3 436 C 666.1 436.2 669.9 436.3 673.6 436.5 C 677.3 436.7 681 436.9 684.6 437.1 C 688.2 437.3 691.8 437.5 695.3 437.6 C 698.8 437.8 702.3 438 705.7 438.2 C 709.2 438.4 712.5 438.5 715.9 438.7 C 719.2 438.9 722.5 439 725.7 439.2 C 729 439.4 732.2 439.5 735.4 439.7 C 738.5 439.9 741.7 440 744.8 440.2 C 747.9 440.3 750.9 440.5 754 440.6 C 757 440.8 760.1 441 763.1 441.1 C 766.1 441.3 769 441.4 772 441.6 C 774.9 441.7 777.9 441.9 780.8 442 C 783.7 442.2 786.6 442.3 789.4 442.5 C 792.3 442.6 795.1 442.8 797.9 442.9 C 800.7 443.1 803.5 443.2 806.3 443.3 C 809 443.5 811.7 443.6 814.3 443.8 C 817 443.9 819.6 444.1 822.1 444.2 C 824.7 444.4 827.2 444.5 829.6 444.7 C 832 444.8 834.4 445 836.7 445.2 C 839 445.4 841.2 445.5 843.3 445.8 C 845.4 446 847.5 446.3 849.4 446.6 C 851.3 447 853.2 447.3 855 447.9 C 856.7 448.5 858.4 449.2 859.9 450.2 C 861.4 451.2 862.7 452.3 864.2 453.9 C 865.7 455.4 867.3 457.3 869.2 459.5 C 871 461.7 873.2 464.2 875.3 467 C 877.4 469.8 879.4 472.9 881.5 476.3 C 883.6 479.6 885.7 483.2 887.8 486.9 C 889.8 490.6 891.9 494.6 894 498.6 C 896.1 502.6 898.5 506.8 900.2 511.1 Z" fill="none" stroke="#FF7E9B" stroke-opacity="0.36" stroke-width="1.80" stroke-dasharray="6 10"/>
    <line x1="97.9" y1="363.1" x2="1117.4" y2="415.2" stroke="#FF7E9B" stroke-opacity="0.090" stroke-width="1.3"/>
    <line x1="209.4" y1="336.7" x2="1009.2" y2="377.6" stroke="#FF7E9B" stroke-opacity="0.063" stroke-width="1.3"/>
    <line x1="321.1" y1="306.4" x2="901.2" y2="336" stroke="#FF7E9B" stroke-opacity="0.036" stroke-width="1.3"/>
    <line x1="-292.7" y1="373.1" x2="1505" y2="465" stroke="#E9F5EF" stroke-opacity="0.5" stroke-width="2"/>
    <line x1="-93" y1="383.3" x2="-92.5" y2="374.3" stroke="#E9F5EF" stroke-opacity="0.22" stroke-width="1.4"/>
    <line x1="6.9" y1="388.4" x2="7.4" y2="379.5" stroke="#E9F5EF" stroke-opacity="0.22" stroke-width="1.4"/>
    <line x1="106.8" y1="393.5" x2="107.2" y2="384.6" stroke="#E9F5EF" stroke-opacity="0.22" stroke-width="1.4"/>
    <line x1="206.7" y1="398.7" x2="207.1" y2="389.7" stroke="#E9F5EF" stroke-opacity="0.22" stroke-width="1.4"/>
    <line x1="306.5" y1="403.8" x2="307" y2="394.8" stroke="#E9F5EF" stroke-opacity="0.22" stroke-width="1.4"/>
    <line x1="406.4" y1="408.9" x2="406.9" y2="399.9" stroke="#E9F5EF" stroke-opacity="0.22" stroke-width="1.4"/>
    <line x1="506.3" y1="414" x2="506.7" y2="405" stroke="#E9F5EF" stroke-opacity="0.22" stroke-width="1.4"/>
    <line x1="606.1" y1="419.1" x2="606.6" y2="410.1" stroke="#E9F5EF" stroke-opacity="0.22" stroke-width="1.4"/>
    <line x1="706" y1="424.2" x2="706.5" y2="415.2" stroke="#E9F5EF" stroke-opacity="0.22" stroke-width="1.4"/>
    <line x1="805.9" y1="429.3" x2="806.3" y2="420.3" stroke="#E9F5EF" stroke-opacity="0.22" stroke-width="1.4"/>
    <line x1="905.7" y1="434.4" x2="906.2" y2="425.4" stroke="#E9F5EF" stroke-opacity="0.22" stroke-width="1.4"/>
    <line x1="1005.6" y1="439.5" x2="1006.1" y2="430.5" stroke="#E9F5EF" stroke-opacity="0.22" stroke-width="1.4"/>
    <line x1="1105.5" y1="444.6" x2="1105.9" y2="435.6" stroke="#E9F5EF" stroke-opacity="0.22" stroke-width="1.4"/>
    <line x1="1205.4" y1="449.7" x2="1205.8" y2="440.7" stroke="#E9F5EF" stroke-opacity="0.22" stroke-width="1.4"/>
    <line x1="1305.2" y1="454.8" x2="1305.7" y2="445.8" stroke="#E9F5EF" stroke-opacity="0.22" stroke-width="1.4"/>
    
    <line x1="331.4" y1="405" x2="891.3" y2="433.6" stroke="#FFD9E2" stroke-opacity="0.55" stroke-width="2.6"/>
    <circle cx="601.4" cy="510.9" r="10" fill="none" stroke="#FF7E9B" stroke-width="2.2"/>
    
    <circle cx="604" cy="460.1" r="6" fill="#E9F5EF"/>
    <circle cx="604" cy="460.1" r="12" fill="none" stroke="#E9F5EF" stroke-opacity="0.4" stroke-width="1.3"/>
  </g><!--/GEOM-->
  <g font-family="ui-monospace, 'Cascadia Mono', Menlo, Consolas, monospace" font-size="19" letter-spacing="2.5">
    <text x="72" y="1150" fill="#7E9A8F" fill-opacity="0.85">HWA 104/333 · SCALP</text>
    <text x="1128" y="1150" text-anchor="end" fill="#FF7E9B" fill-opacity="0.62">SHORT 50X · -70.2% · SIM</text>
  </g>
</svg>
