<?xml version="1.0" encoding="UTF-8"?>
<svg xmlns="http://www.w3.org/2000/svg" viewBox="0 0 1200 1200" role="img" aria-labelledby="hwa-142-t">
  <title id="hwa-142-t">HWA Genesis 142 — simulated short pressure field</title>
  <defs>
    <radialGradient id="hwa-S-bg" cx="50%" cy="44%" r="78%">
      <stop offset="0" stop-color="#0A2B21"/>
      <stop offset="0.55" stop-color="#061A14"/>
      <stop offset="1" stop-color="#030C09"/>
    </radialGradient>
    <radialGradient id="hwa-S-core" cx="50%" cy="50%" r="50%">
      <stop offset="0" stop-color="#FF7E9B" stop-opacity="0.16"/>
      <stop offset="1" stop-color="#FF7E9B" stop-opacity="0"/>
    </radialGradient>
  </defs>
  <rect width="1200" height="1200" fill="url(#hwa-S-bg)"/>
  <!--GEOM--><g>
    <circle cx="592.8" cy="575.2" r="184.5" fill="url(#hwa-S-core)"/>
    
    <path d="M 653 575.2 C 653.1 576.1 653.2 576.9 653.3 577.8 C 653.3 578.7 653.4 579.6 653.4 580.5 C 653.5 581.4 653.5 582.3 653.5 583.2 C 653.5 584.1 653.5 585 653.5 585.9 C 653.5 586.8 653.5 587.7 653.4 588.6 C 653.4 589.5 653.3 590.5 653.2 591.4 C 653.1 592.3 653 593.2 652.9 594.1 C 652.7 595 652.6 596 652.4 596.9 C 652.2 597.8 651.9 598.7 651.7 599.6 C 651.5 600.5 651.2 601.4 650.9 602.3 C 650.6 603.2 650.2 604 649.9 604.9 C 649.5 605.8 649.1 606.6 648.7 607.4 C 648.2 608.3 647.8 609.1 647.3 609.9 C 646.8 610.7 646.2 611.5 645.7 612.2 C 645.1 613 644.5 613.7 643.9 614.4 C 643.3 615.2 642.7 615.8 642 616.5 C 641.4 617.2 640.7 617.8 640 618.4 C 639.3 619.1 638.6 619.7 637.8 620.2 C 637.1 620.8 636.3 621.4 635.6 621.9 C 634.8 622.4 634 622.9 633.2 623.4 C 632.4 623.9 631.6 624.4 630.8 624.8 C 630 625.3 629.2 625.7 628.4 626.1 C 627.6 626.5 626.8 626.9 626 627.3 C 625.2 627.7 624.3 628.1 623.5 628.5 C 622.7 628.8 621.9 629.2 621.1 629.5 C 620.2 629.9 619.4 630.2 618.6 630.6 C 617.8 630.9 616.9 631.2 616.1 631.5 C 615.3 631.8 614.4 632.2 613.6 632.5 C 612.8 632.8 611.9 633.1 611.1 633.3 C 610.3 633.6 609.4 633.9 608.6 634.2 C 607.7 634.4 606.9 634.7 606 634.9 C 605.1 635.1 604.3 635.3 603.4 635.5 C 602.5 635.7 601.7 635.9 600.8 636 C 599.9 636.2 599 636.3 598.1 636.4 C 597.2 636.5 596.3 636.6 595.4 636.7 C 594.6 636.7 593.7 636.7 592.8 636.7 C 591.9 636.7 591 636.6 590.1 636.6 C 589.2 636.5 588.3 636.4 587.4 636.2 C 586.5 636.1 585.7 635.9 584.8 635.7 C 583.9 635.5 583.1 635.3 582.2 635 C 581.4 634.8 580.5 634.5 579.7 634.2 C 578.8 633.9 578 633.5 577.2 633.2 C 576.4 632.8 575.6 632.4 574.8 632 C 574 631.7 573.3 631.2 572.5 630.8 C 571.7 630.4 571 630 570.3 629.5 C 569.5 629.1 568.8 628.6 568.1 628.2 C 567.3 627.7 566.6 627.3 565.9 626.8 C 565.2 626.3 564.5 625.9 563.8 625.4 C 563 624.9 562.3 624.5 561.6 624 C 560.9 623.6 560.2 623.1 559.5 622.7 C 558.8 622.2 558.1 621.8 557.4 621.3 C 556.6 620.8 555.9 620.4 555.2 619.9 C 554.5 619.5 553.7 619 553 618.6 C 552.3 618.1 551.5 617.6 550.8 617.2 C 550 616.7 549.3 616.2 548.5 615.7 C 547.8 615.2 547 614.7 546.3 614.2 C 545.5 613.7 544.8 613.1 544 612.6 C 543.3 612 542.6 611.4 541.8 610.8 C 541.1 610.2 540.4 609.6 539.7 609 C 539 608.3 538.3 607.7 537.7 607 C 537 606.3 536.4 605.6 535.8 604.8 C 535.2 604.1 534.6 603.3 534 602.6 C 533.5 601.8 532.9 601 532.4 600.2 C 532 599.3 531.5 598.5 531.1 597.6 C 530.7 596.8 530.3 595.9 529.9 595 C 529.6 594.1 529.3 593.2 529 592.3 C 528.7 591.3 528.5 590.4 528.3 589.5 C 528.1 588.5 528 587.6 527.9 586.6 C 527.7 585.7 527.7 584.7 527.6 583.8 C 527.6 582.8 527.6 581.8 527.6 580.9 C 527.6 579.9 527.6 579 527.7 578 C 527.8 577.1 527.9 576.1 528.1 575.2 C 528.2 574.2 528.4 573.3 528.5 572.4 C 528.7 571.4 528.9 570.5 529.2 569.6 C 529.4 568.7 529.7 567.8 529.9 566.9 C 530.2 566 530.5 565.1 530.8 564.3 C 531.1 563.4 531.5 562.5 531.8 561.7 C 532.1 560.8 532.5 560 532.9 559.1 C 533.3 558.3 533.7 557.5 534.1 556.7 C 534.5 555.9 534.9 555.1 535.4 554.3 C 535.8 553.5 536.3 552.7 536.8 552 C 537.2 551.2 537.7 550.5 538.2 549.7 C 538.7 549 539.3 548.3 539.8 547.6 C 540.3 546.9 540.9 546.2 541.4 545.5 C 542 544.9 542.6 544.2 543.2 543.6 C 543.7 542.9 544.3 542.3 545 541.7 C 545.6 541.1 546.2 540.5 546.8 539.9 C 547.4 539.3 548.1 538.8 548.7 538.2 C 549.3 537.6 550 537.1 550.6 536.6 C 551.3 536 551.9 535.5 552.6 535 C 553.2 534.4 553.9 533.9 554.5 533.4 C 555.2 532.9 555.8 532.4 556.5 531.9 C 557.1 531.4 557.8 530.9 558.4 530.4 C 559 529.9 559.7 529.4 560.3 528.9 C 561 528.4 561.6 527.8 562.3 527.3 C 562.9 526.8 563.6 526.3 564.2 525.7 C 564.9 525.2 565.5 524.7 566.2 524.1 C 566.8 523.6 567.5 523 568.2 522.4 C 568.8 521.9 569.5 521.3 570.2 520.7 C 570.9 520.2 571.6 519.6 572.3 519 C 573 518.5 573.8 517.9 574.5 517.3 C 575.3 516.7 576 516.2 576.8 515.6 C 577.6 515.1 578.4 514.5 579.2 514 C 580 513.5 580.9 513 581.7 512.5 C 582.6 512 583.4 511.6 584.3 511.2 C 585.2 510.7 586.1 510.3 587.1 510 C 588 509.6 588.9 509.3 589.9 509.1 C 590.8 508.8 591.8 508.6 592.8 508.4 C 593.7 508.2 594.7 508.1 595.7 508 C 596.7 507.9 597.7 507.9 598.6 507.9 C 599.6 507.9 600.6 508 601.6 508.1 C 602.6 508.2 603.5 508.4 604.5 508.6 C 605.5 508.9 606.4 509.1 607.3 509.5 C 608.3 509.8 609.2 510.1 610.1 510.5 C 611 511 611.9 511.4 612.7 511.9 C 613.6 512.4 614.4 512.9 615.2 513.5 C 616 514 616.8 514.6 617.6 515.2 C 618.4 515.8 619.1 516.4 619.9 517.1 C 620.6 517.7 621.3 518.4 622 519.1 C 622.7 519.7 623.3 520.4 624 521.1 C 624.6 521.8 625.3 522.5 625.9 523.2 C 626.5 523.9 627.1 524.6 627.7 525.3 C 628.3 526 628.9 526.7 629.4 527.4 C 630 528.1 630.5 528.8 631.1 529.5 C 631.7 530.2 632.2 530.9 632.7 531.6 C 633.3 532.2 633.8 532.9 634.3 533.6 C 634.9 534.3 635.4 535 635.9 535.6 C 636.4 536.3 636.9 537 637.5 537.7 C 638 538.4 638.5 539 639 539.7 C 639.5 540.4 640 541.1 640.5 541.8 C 640.9 542.5 641.4 543.2 641.9 543.9 C 642.4 544.6 642.8 545.3 643.3 546 C 643.7 546.7 644.2 547.4 644.6 548.2 C 645 548.9 645.5 549.7 645.9 550.4 C 646.3 551.2 646.6 551.9 647 552.7 C 647.4 553.5 647.7 554.3 648.1 555 C 648.4 555.8 648.7 556.6 649 557.4 C 649.3 558.2 649.6 559.1 649.9 559.9 C 650.1 560.7 650.4 561.5 650.6 562.3 C 650.9 563.2 651.1 564 651.3 564.9 C 651.5 565.7 651.7 566.5 651.9 567.4 C 652 568.2 652.2 569.1 652.3 570 C 652.5 570.8 652.6 571.7 652.7 572.6 C 652.8 573.4 652.9 574.3 653 575.2 Z" fill="none" stroke="#FF7E9B" stroke-opacity="0.70" stroke-width="3.08"/>
    <path d="M 705.2 575.2 C 705.4 576.8 705.5 578.5 705.6 580.1 C 705.6 581.7 705.7 583.4 705.8 585.1 C 705.8 586.7 705.9 588.4 705.9 590.1 C 705.9 591.7 705.9 593.4 705.9 595.1 C 705.9 596.8 705.8 598.5 705.8 600.2 C 705.7 601.9 705.6 603.7 705.5 605.4 C 705.3 607.1 705.2 608.8 705 610.6 C 704.8 612.3 704.5 614 704.2 615.7 C 703.9 617.5 703.6 619.2 703.2 620.9 C 702.8 622.6 702.4 624.4 701.9 626.1 C 701.4 627.7 700.8 629.4 700.2 631.1 C 699.6 632.8 698.9 634.4 698.2 636 C 697.4 637.6 696.6 639.2 695.8 640.8 C 694.9 642.3 694 643.9 693 645.4 C 692 646.8 691 648.3 689.9 649.7 C 688.8 651.1 687.6 652.4 686.4 653.8 C 685.2 655.1 684 656.4 682.7 657.6 C 681.4 658.8 680.1 660 678.7 661.1 C 677.3 662.3 675.9 663.3 674.5 664.4 C 673.1 665.4 671.6 666.4 670.2 667.4 C 668.7 668.4 667.2 669.3 665.7 670.2 C 664.2 671.1 662.7 672 661.1 672.8 C 659.6 673.6 658.1 674.5 656.5 675.2 C 655 676 653.4 676.8 651.9 677.5 C 650.3 678.3 648.7 679 647.2 679.7 C 645.6 680.4 644 681.1 642.5 681.7 C 640.9 682.4 639.3 683.1 637.7 683.7 C 636.1 684.3 634.5 685 632.9 685.6 C 631.3 686.2 629.7 686.7 628.1 687.3 C 626.5 687.8 624.9 688.4 623.2 688.9 C 621.6 689.4 619.9 689.8 618.3 690.3 C 616.6 690.7 614.9 691.1 613.3 691.4 C 611.6 691.8 609.9 692.1 608.2 692.3 C 606.5 692.6 604.8 692.8 603.1 692.9 C 601.3 693 599.6 693.1 597.9 693.1 C 596.2 693.1 594.5 693 592.8 692.9 C 591.1 692.8 589.3 692.6 587.6 692.3 C 586 692 584.3 691.7 582.6 691.3 C 580.9 690.9 579.3 690.4 577.7 689.9 C 576 689.4 574.4 688.7 572.8 688.1 C 571.3 687.4 569.7 686.7 568.2 686 C 566.7 685.2 565.2 684.4 563.7 683.6 C 562.2 682.7 560.8 681.9 559.4 681 C 558 680.1 556.6 679.1 555.3 678.2 C 553.9 677.3 552.6 676.3 551.3 675.4 C 549.9 674.4 548.6 673.5 547.4 672.5 C 546.1 671.6 544.8 670.6 543.5 669.7 C 542.3 668.8 541 667.9 539.8 667 C 538.5 666.1 537.2 665.2 535.9 664.4 C 534.7 663.5 533.4 662.7 532.1 661.9 C 530.7 661 529.4 660.3 528.1 659.5 C 526.7 658.7 525.4 657.9 524 657.2 C 522.6 656.4 521.2 655.6 519.7 654.9 C 518.3 654.1 516.8 653.4 515.3 652.6 C 513.8 651.8 512.3 651.1 510.8 650.3 C 509.3 649.5 507.7 648.7 506.2 647.8 C 504.6 647 503.1 646.1 501.5 645.2 C 500 644.3 498.4 643.3 496.9 642.3 C 495.4 641.3 493.8 640.2 492.4 639.1 C 490.9 638 489.4 636.9 488 635.7 C 486.6 634.5 485.2 633.2 483.9 631.9 C 482.5 630.5 481.3 629.2 480.1 627.7 C 478.9 626.3 477.7 624.8 476.6 623.3 C 475.6 621.7 474.6 620.2 473.6 618.5 C 472.7 616.9 471.9 615.2 471.1 613.5 C 470.4 611.8 469.7 610.1 469.1 608.3 C 468.6 606.5 468.1 604.7 467.7 602.9 C 467.2 601.1 466.9 599.3 466.7 597.4 C 466.4 595.6 466.3 593.7 466.2 591.8 C 466.1 590 466.1 588.1 466.2 586.2 C 466.3 584.4 466.4 582.5 466.6 580.7 C 466.8 578.8 467.1 577 467.4 575.2 C 467.7 573.4 468.1 571.5 468.6 569.8 C 469 568 469.5 566.2 470 564.4 C 470.6 562.7 471.2 561 471.8 559.2 C 472.4 557.5 473.1 555.9 473.8 554.2 C 474.5 552.5 475.2 550.9 476 549.3 C 476.7 547.7 477.5 546.1 478.4 544.5 C 479.2 543 480.1 541.4 480.9 539.9 C 481.8 538.4 482.8 536.9 483.7 535.5 C 484.7 534 485.6 532.6 486.6 531.2 C 487.7 529.8 488.7 528.5 489.7 527.1 C 490.8 525.8 491.9 524.5 493 523.2 C 494.1 522 495.2 520.7 496.4 519.5 C 497.5 518.3 498.7 517.2 499.9 516 C 501.1 514.9 502.3 513.8 503.5 512.7 C 504.7 511.6 506 510.6 507.2 509.5 C 508.4 508.5 509.7 507.5 510.9 506.5 C 512.2 505.6 513.5 504.6 514.7 503.7 C 516 502.7 517.2 501.8 518.5 500.9 C 519.7 500 521 499.1 522.2 498.2 C 523.4 497.3 524.7 496.4 525.9 495.5 C 527.1 494.6 528.3 493.7 529.5 492.8 C 530.7 491.8 531.9 490.9 533.1 490 C 534.3 489 535.4 488.1 536.6 487.1 C 537.8 486.1 538.9 485.1 540.1 484 C 541.3 483 542.5 481.9 543.6 480.8 C 544.8 479.8 546 478.6 547.2 477.5 C 548.4 476.4 549.6 475.2 550.8 474 C 552.1 472.8 553.3 471.6 554.6 470.4 C 555.9 469.2 557.2 468 558.6 466.8 C 559.9 465.6 561.3 464.4 562.8 463.3 C 564.2 462.2 565.7 461.1 567.2 460 C 568.7 458.9 570.3 457.9 571.9 456.9 C 573.5 456 575.1 455 576.8 454.2 C 578.5 453.3 580.2 452.5 582 451.8 C 583.7 451.1 585.5 450.4 587.3 449.9 C 589.1 449.3 590.9 448.8 592.8 448.4 C 594.6 448 596.5 447.7 598.4 447.4 C 600.3 447.2 602.2 447.1 604 447 C 605.9 447 607.8 447.1 609.7 447.2 C 611.6 447.4 613.4 447.6 615.3 448 C 617.1 448.3 619 448.8 620.8 449.3 C 622.6 449.9 624.3 450.5 626.1 451.2 C 627.8 452 629.5 452.9 631.1 453.8 C 632.8 454.8 634.3 455.8 635.9 456.9 C 637.4 458.1 638.9 459.2 640.4 460.4 C 641.8 461.6 643.2 462.9 644.6 464.2 C 645.9 465.5 647.2 466.8 648.5 468.2 C 649.8 469.5 651 470.9 652.2 472.3 C 653.4 473.6 654.6 475 655.7 476.4 C 656.9 477.8 658 479.2 659.1 480.5 C 660.1 481.9 661.2 483.3 662.3 484.6 C 663.3 486 664.4 487.3 665.4 488.7 C 666.4 490 667.4 491.3 668.4 492.6 C 669.4 493.9 670.4 495.2 671.4 496.5 C 672.4 497.8 673.4 499.1 674.4 500.4 C 675.4 501.6 676.4 502.9 677.4 504.2 C 678.3 505.5 679.3 506.7 680.3 508 C 681.2 509.3 682.2 510.6 683.1 511.9 C 684 513.2 685 514.5 685.9 515.9 C 686.8 517.2 687.7 518.5 688.5 519.9 C 689.4 521.3 690.2 522.6 691 524 C 691.8 525.4 692.6 526.8 693.3 528.3 C 694.1 529.7 694.8 531.2 695.4 532.6 C 696.1 534.1 696.8 535.6 697.3 537.1 C 697.9 538.6 698.5 540.1 699 541.7 C 699.5 543.2 700 544.8 700.5 546.3 C 700.9 547.9 701.3 549.4 701.7 551 C 702.1 552.6 702.4 554.2 702.7 555.8 C 703 557.4 703.3 559 703.6 560.6 C 703.8 562.2 704 563.8 704.3 565.4 C 704.5 567 704.6 568.7 704.8 570.3 C 705 571.9 705.1 573.5 705.2 575.2 Z" fill="none" stroke="#FF7E9B" stroke-opacity="0.61" stroke-width="2.76"/>
    <path d="M 753.3 575.2 C 753.3 577.5 753.4 579.8 753.4 582.2 C 753.4 584.5 753.4 586.9 753.3 589.2 C 753.3 591.6 753.3 593.9 753.3 596.3 C 753.2 598.7 753.2 601.1 753.2 603.5 C 753.1 605.9 753 608.3 752.9 610.7 C 752.8 613.1 752.7 615.5 752.6 618 C 752.4 620.4 752.3 622.9 752 625.4 C 751.8 627.9 751.6 630.4 751.2 632.8 C 750.9 635.3 750.5 637.8 750.1 640.3 C 749.6 642.8 749.1 645.3 748.5 647.8 C 748 650.3 747.3 652.8 746.6 655.2 C 745.8 657.7 745 660.1 744.1 662.5 C 743.1 664.9 742.1 667.3 741 669.6 C 739.9 672 738.8 674.3 737.5 676.5 C 736.2 678.7 734.8 680.9 733.4 683.1 C 731.9 685.2 730.4 687.3 728.8 689.3 C 727.2 691.3 725.5 693.3 723.8 695.2 C 722 697.1 720.2 698.9 718.3 700.7 C 716.4 702.5 714.5 704.2 712.5 705.8 C 710.5 707.5 708.5 709.1 706.4 710.6 C 704.3 712.2 702.2 713.6 700.1 715.1 C 698 716.5 695.8 717.9 693.6 719.2 C 691.4 720.6 689.2 721.8 687 723.1 C 684.8 724.4 682.5 725.6 680.3 726.8 C 678 728 675.8 729.1 673.5 730.2 C 671.2 731.4 668.9 732.5 666.6 733.5 C 664.3 734.6 662 735.6 659.6 736.7 C 657.3 737.7 655 738.6 652.6 739.6 C 650.2 740.5 647.8 741.4 645.4 742.2 C 643 743.1 640.6 743.9 638.2 744.6 C 635.7 745.3 633.3 746 630.8 746.6 C 628.3 747.2 625.8 747.8 623.3 748.2 C 620.8 748.7 618.2 749 615.7 749.3 C 613.1 749.6 610.6 749.8 608 749.8 C 605.5 749.9 602.9 749.8 600.4 749.7 C 597.8 749.5 595.3 749.3 592.8 748.9 C 590.2 748.5 587.7 748 585.2 747.4 C 582.8 746.8 580.3 746 577.9 745.2 C 575.5 744.3 573.1 743.4 570.8 742.3 C 568.4 741.3 566.1 740.1 563.9 738.9 C 561.7 737.7 559.5 736.3 557.3 734.9 C 555.2 733.6 553.1 732.1 551.1 730.6 C 549.1 729.1 547.1 727.6 545.2 726 C 543.3 724.4 541.4 722.8 539.6 721.3 C 537.8 719.7 536 718.1 534.2 716.5 C 532.5 714.9 530.7 713.4 529 711.9 C 527.3 710.3 525.6 708.8 523.9 707.4 C 522.2 706 520.5 704.6 518.8 703.2 C 517.1 701.9 515.4 700.6 513.6 699.4 C 511.9 698.2 510.1 697 508.3 695.9 C 506.4 694.7 504.6 693.7 502.6 692.6 C 500.7 691.6 498.7 690.6 496.7 689.7 C 494.6 688.7 492.5 687.8 490.4 686.9 C 488.2 686 486 685.1 483.7 684.2 C 481.5 683.3 479.1 682.4 476.8 681.4 C 474.4 680.5 472 679.6 469.6 678.5 C 467.1 677.5 464.7 676.5 462.2 675.4 C 459.7 674.2 457.2 673.1 454.8 671.8 C 452.3 670.5 449.8 669.2 447.4 667.8 C 445 666.3 442.6 664.8 440.3 663.2 C 437.9 661.6 435.6 659.9 433.5 658.1 C 431.3 656.3 429.2 654.4 427.2 652.4 C 425.2 650.4 423.3 648.3 421.5 646.1 C 419.7 643.9 418 641.7 416.5 639.3 C 415 637 413.6 634.5 412.4 632.1 C 411.1 629.6 410 627 409 624.4 C 408.1 621.8 407.3 619.1 406.6 616.4 C 405.9 613.8 405.4 611 405 608.3 C 404.6 605.5 404.4 602.8 404.2 600 C 404.1 597.2 404.1 594.4 404.3 591.7 C 404.4 588.9 404.7 586.1 405 583.4 C 405.4 580.6 405.9 577.9 406.4 575.2 C 407 572.5 407.7 569.8 408.4 567.1 C 409.2 564.5 410 561.8 410.9 559.3 C 411.8 556.7 412.8 554.1 413.8 551.6 C 414.8 549.1 416 546.6 417.1 544.2 C 418.3 541.8 419.5 539.4 420.7 537 C 422 534.7 423.3 532.4 424.7 530.1 C 426 527.9 427.4 525.7 428.9 523.5 C 430.3 521.3 431.8 519.2 433.3 517.1 C 434.8 515.1 436.4 513 438 511.1 C 439.6 509.1 441.2 507.2 442.9 505.3 C 444.6 503.4 446.3 501.6 448 499.8 C 449.7 498.1 451.5 496.3 453.3 494.7 C 455.1 493 456.9 491.4 458.8 489.8 C 460.6 488.3 462.5 486.7 464.3 485.3 C 466.2 483.8 468.1 482.4 470 481 C 471.9 479.6 473.9 478.4 475.7 477 C 477.5 475.6 479.2 474.2 480.8 472.7 C 482.5 471.2 484 469.6 485.6 468.1 C 487.2 466.6 488.7 465 490.3 463.5 C 491.9 461.9 493.4 460.4 495 458.8 C 496.5 457.2 498.1 455.6 499.6 454 C 501.2 452.4 502.8 450.8 504.4 449.2 C 506 447.6 507.6 446 509.2 444.4 C 510.9 442.8 512.5 441.2 514.2 439.7 C 515.9 438.1 517.7 436.5 519.4 435 C 521.2 433.5 523 432 524.9 430.5 C 526.8 429.1 528.7 427.7 530.6 426.3 C 532.6 424.9 534.6 423.6 536.6 422.4 C 538.7 421.1 540.7 419.9 542.9 418.8 C 545 417.6 547.2 416.5 549.4 415.5 C 551.7 414.5 553.9 413.6 556.2 412.7 C 558.5 411.8 560.9 411 563.3 410.3 C 565.6 409.5 568.1 408.8 570.5 408.2 C 572.9 407.6 575.4 407 577.9 406.5 C 580.4 406 582.9 405.6 585.4 405.2 C 588 404.8 590.5 404.5 593.1 404.2 C 595.7 403.9 598.2 403.7 600.8 403.5 C 603.4 403.4 606 403.3 608.6 403.2 C 611.2 403.2 613.8 403.2 616.4 403.3 C 619 403.4 621.5 403.5 624.1 403.7 C 626.7 404 629.2 404.2 631.8 404.6 C 634.3 405 636.8 405.5 639.3 406 C 641.8 406.6 644.2 407.2 646.6 408 C 649 408.7 651.4 409.6 653.7 410.5 C 656 411.5 658.3 412.5 660.5 413.7 C 662.8 414.8 664.9 416.1 667 417.4 C 669.2 418.8 671.2 420.2 673.2 421.8 C 675.2 423.3 677.1 424.9 679 426.6 C 680.9 428.2 682.7 430 684.5 431.8 C 686.2 433.5 687.9 435.4 689.6 437.3 C 691.2 439.1 692.8 441 694.4 443 C 695.9 444.9 697.4 446.9 698.9 448.8 C 700.4 450.7 701.9 452.7 703.3 454.6 C 704.8 456.5 706.3 458.3 707.8 460.2 C 709.3 462 710.8 463.8 712.3 465.7 C 713.8 467.5 715.3 469.3 716.8 471.2 C 718.2 473 719.7 474.8 721.1 476.7 C 722.6 478.5 724 480.4 725.4 482.3 C 726.8 484.2 728.2 486.1 729.5 488.1 C 730.9 490 732.2 492 733.4 494 C 734.7 496 735.9 498 737 500.1 C 738.2 502.1 739.3 504.2 740.3 506.4 C 741.4 508.5 742.3 510.7 743.2 512.8 C 744.1 515 745 517.3 745.8 519.5 C 746.5 521.7 747.2 524 747.8 526.3 C 748.5 528.6 749 530.9 749.5 533.2 C 750 535.5 750.5 537.8 750.8 540.1 C 751.2 542.5 751.5 544.8 751.8 547.1 C 752.1 549.5 752.3 551.8 752.5 554.1 C 752.7 556.5 752.8 558.8 752.9 561.2 C 753 563.5 753.1 565.8 753.2 568.2 C 753.2 570.5 753.3 572.8 753.3 575.2 Z" fill="none" stroke="#FF7E9B" stroke-opacity="0.53" stroke-width="2.44"/>
    <path d="M 797.9 575.2 C 797.7 578.2 797.4 581.1 797.1 584.1 C 796.9 587.1 796.6 590 796.4 593 C 796.2 596 796 598.9 795.8 601.9 C 795.6 604.9 795.4 607.9 795.2 610.9 C 795 613.9 794.9 616.9 794.7 619.9 C 794.6 623 794.4 626.1 794.2 629.2 C 794.1 632.3 793.9 635.4 793.7 638.5 C 793.5 641.7 793.2 644.8 792.9 648 C 792.7 651.2 792.3 654.4 791.9 657.7 C 791.5 660.9 791.1 664.1 790.5 667.4 C 789.9 670.6 789.3 673.9 788.6 677.1 C 787.8 680.3 787 683.6 786.1 686.8 C 785.1 690 784.1 693.2 782.9 696.3 C 781.7 699.4 780.4 702.6 779 705.6 C 777.6 708.7 776.1 711.7 774.5 714.6 C 772.9 717.6 771.1 720.5 769.2 723.3 C 767.4 726.1 765.4 728.8 763.4 731.5 C 761.3 734.2 759.1 736.8 756.9 739.3 C 754.6 741.8 752.3 744.3 749.9 746.6 C 747.5 749 745 751.3 742.4 753.5 C 739.9 755.8 737.2 757.9 734.6 760 C 731.9 762.1 729.2 764.1 726.4 766.1 C 723.7 768.1 720.9 770 718 771.8 C 715.2 773.7 712.3 775.5 709.4 777.3 C 706.5 779 703.6 780.7 700.6 782.4 C 697.7 784 694.7 785.7 691.6 787.2 C 688.6 788.8 685.6 790.3 682.5 791.7 C 679.4 793.2 676.3 794.6 673.1 795.9 C 669.9 797.2 666.8 798.5 663.5 799.7 C 660.3 800.8 657.1 801.9 653.8 802.9 C 650.5 803.9 647.2 804.8 643.8 805.6 C 640.5 806.3 637.1 807 633.7 807.5 C 630.3 808 626.9 808.4 623.5 808.6 C 620.1 808.8 616.6 808.9 613.2 808.8 C 609.8 808.7 606.3 808.4 602.9 808 C 599.5 807.5 596.1 806.9 592.8 806.1 C 589.4 805.3 586.1 804.3 582.8 803.2 C 579.5 802 576.3 800.7 573.2 799.2 C 570 797.8 566.9 796.1 563.9 794.3 C 560.9 792.6 558 790.6 555.1 788.6 C 552.3 786.6 549.5 784.4 546.9 782.2 C 544.2 780 541.6 777.7 539.1 775.3 C 536.6 773 534.2 770.6 531.9 768.2 C 529.6 765.8 527.3 763.3 525.2 760.9 C 523 758.5 520.9 756.1 518.8 753.8 C 516.7 751.5 514.7 749.2 512.6 747 C 510.6 744.8 508.6 742.7 506.6 740.7 C 504.6 738.6 502.6 736.7 500.5 734.9 C 498.5 733.1 496.4 731.4 494.3 729.8 C 492.1 728.2 489.9 726.7 487.6 725.3 C 485.4 723.9 483 722.6 480.5 721.4 C 478.1 720.2 475.5 719.1 472.8 718.1 C 470.2 717 467.4 716.1 464.5 715.1 C 461.7 714.2 458.7 713.3 455.6 712.4 C 452.5 711.4 449.3 710.6 446 709.6 C 442.8 708.7 439.4 707.7 436 706.7 C 432.6 705.7 429.1 704.6 425.6 703.4 C 422.1 702.3 418.6 701 415 699.6 C 411.5 698.2 407.9 696.8 404.5 695.1 C 401 693.5 397.5 691.8 394.1 689.8 C 390.8 687.9 387.5 685.9 384.3 683.7 C 381.1 681.5 378 679.2 375.1 676.7 C 372.2 674.2 369.4 671.5 366.8 668.8 C 364.2 666 361.8 663.1 359.5 660.1 C 357.3 657 355.3 653.9 353.4 650.6 C 351.6 647.4 350 644 348.6 640.6 C 347.1 637.2 345.9 633.7 345 630.1 C 344 626.6 343.2 622.9 342.7 619.3 C 342.1 615.6 341.7 611.9 341.6 608.2 C 341.4 604.6 341.4 600.8 341.6 597.1 C 341.8 593.5 342.2 589.8 342.8 586.1 C 343.3 582.4 344 578.8 344.8 575.2 C 345.6 571.6 346.6 568 347.7 564.5 C 348.8 561 350 557.5 351.3 554 C 352.6 550.6 354 547.3 355.5 543.9 C 357 540.6 358.6 537.4 360.2 534.2 C 361.9 531 363.6 527.8 365.4 524.8 C 367.2 521.7 369 518.7 371 515.7 C 372.9 512.8 374.8 509.9 376.9 507.1 C 378.9 504.3 380.9 501.5 383.1 498.9 C 385.2 496.2 387.4 493.6 389.6 491 C 391.8 488.5 394.1 486 396.4 483.6 C 398.7 481.2 401.1 478.9 403.4 476.7 C 405.8 474.4 408.3 472.3 410.7 470.1 C 413.1 468 415.7 466 417.9 463.9 C 420.2 461.7 422.2 459.5 424.2 457.3 C 426.3 455.1 428.3 452.9 430.3 450.7 C 432.3 448.5 434.3 446.3 436.2 444.1 C 438.2 441.9 440.1 439.7 442 437.5 C 443.9 435.3 445.8 433 447.7 430.8 C 449.6 428.6 451.5 426.4 453.4 424.2 C 455.3 422 457.2 419.8 459.2 417.7 C 461.2 415.6 463.2 413.5 465.2 411.5 C 467.3 409.6 469.4 407.7 471.6 405.9 C 473.8 404.1 476 402.4 478.3 400.9 C 480.6 399.3 482.9 397.8 485.5 396.7 C 488 395.5 490.9 394.7 493.6 393.8 C 496.4 392.9 499.2 392.1 502 391.3 C 504.8 390.6 507.7 389.9 510.6 389.3 C 513.5 388.6 516.4 388 519.3 387.5 C 522.3 386.9 525.3 386.5 528.3 386 C 531.3 385.5 534.3 385.1 537.3 384.7 C 540.4 384.3 543.5 383.9 546.6 383.5 C 549.7 383.2 552.8 382.8 556 382.5 C 559.1 382.2 562.3 381.9 565.5 381.6 C 568.7 381.3 571.9 381.1 575.1 380.8 C 578.3 380.6 581.6 380.3 584.8 380.1 C 588 379.9 591.3 379.7 594.5 379.5 C 597.8 379.3 601.1 379.1 604.3 378.9 C 607.6 378.7 610.8 378.6 614 378.4 C 617.3 378.3 620.5 378.2 623.7 378.1 C 626.9 378 630.1 377.9 633.3 377.9 C 636.5 377.8 639.6 377.8 642.7 377.8 C 645.9 377.9 649 377.9 652 378 C 655.1 378.2 658.1 378.3 661.1 378.6 C 664.1 378.8 667.1 379.1 670.1 379.4 C 673 379.8 675.9 380.3 678.8 380.8 C 681.7 381.3 684.7 381.7 687.6 382.4 C 690.5 383 693.4 383.8 696.2 384.7 C 699 385.6 701.7 386.6 704.3 387.8 C 707 389.1 709.6 390.4 712.1 391.9 C 714.6 393.4 717.1 395.1 719.5 396.9 C 721.9 398.7 724.2 400.6 726.5 402.6 C 728.8 404.6 731 406.8 733.1 408.9 C 735.3 411.1 737.4 413.4 739.5 415.7 C 741.6 418 743.6 420.3 745.6 422.7 C 747.7 425.1 749.6 427.5 751.6 429.9 C 753.6 432.3 755.5 434.7 757.4 437.1 C 759.4 439.6 761.4 441.9 763.4 444.3 C 765.3 446.8 767.3 449.2 769.3 451.6 C 771.2 454.1 773.1 456.6 774.9 459.2 C 776.7 461.7 778.5 464.4 780.1 467 C 781.8 469.7 783.4 472.4 784.8 475.2 C 786.3 478 787.7 480.8 789 483.7 C 790.3 486.6 791.4 489.5 792.5 492.4 C 793.5 495.4 794.5 498.4 795.3 501.5 C 796.1 504.5 796.8 507.6 797.4 510.6 C 798 513.7 798.5 516.8 798.9 519.9 C 799.2 523.1 799.5 526.2 799.7 529.3 C 799.9 532.4 800 535.5 800 538.6 C 800 541.7 799.9 544.8 799.8 547.9 C 799.7 551 799.6 554.1 799.4 557.1 C 799.2 560.1 798.9 563.2 798.7 566.2 C 798.5 569.2 798.2 572.2 797.9 575.2 Z" fill="none" stroke="#FF7E9B" stroke-opacity="0.44" stroke-width="2.12" stroke-dasharray="6 10"/>
    <path d="M 839.5 575.2 C 838.7 578.8 837.8 582.3 837.1 585.8 C 836.4 589.4 835.7 592.9 835 596.4 C 834.4 599.9 833.8 603.3 833.2 606.8 C 832.7 610.3 832.3 613.8 831.8 617.3 C 831.4 620.8 831.1 624.4 830.8 627.9 C 830.5 631.5 830.3 635.1 830 638.8 C 829.8 642.4 829.6 646.1 829.4 649.8 C 829.2 653.5 829.1 657.3 828.9 661.1 C 828.7 664.9 828.5 668.8 828.2 672.7 C 827.9 676.6 827.6 680.5 827.2 684.5 C 826.8 688.5 826.3 692.5 825.7 696.5 C 825.2 700.5 824.5 704.5 823.7 708.5 C 822.9 712.5 822 716.5 820.9 720.5 C 819.8 724.5 818.6 728.5 817.3 732.4 C 816 736.3 814.5 740.2 812.9 744.1 C 811.2 747.9 809.4 751.7 807.5 755.4 C 805.6 759.1 803.5 762.7 801.3 766.3 C 799.1 769.9 796.8 773.3 794.3 776.8 C 791.9 780.2 789.3 783.5 786.6 786.7 C 783.9 790 781.1 793.1 778.2 796.2 C 775.3 799.2 772.3 802.2 769.2 805.1 C 766.1 808.1 763 810.9 759.7 813.6 C 756.5 816.4 753.2 819.1 749.8 821.7 C 746.4 824.3 743 826.8 739.5 829.3 C 736 831.8 732.4 834.2 728.8 836.5 C 725.2 838.8 721.5 841.1 717.8 843.2 C 714 845.4 710.2 847.5 706.4 849.5 C 702.5 851.5 698.6 853.4 694.7 855.2 C 690.7 856.9 686.7 858.6 682.6 860.2 C 678.6 861.7 674.4 863.2 670.3 864.4 C 666.1 865.7 661.9 866.8 657.6 867.7 C 653.4 868.6 649.1 869.4 644.7 869.9 C 640.4 870.4 636 870.8 631.7 870.9 C 627.3 871 623 870.9 618.6 870.5 C 614.2 870.1 609.9 869.5 605.6 868.7 C 601.3 867.8 597 866.7 592.8 865.4 C 588.5 864 584.4 862.4 580.3 860.5 C 576.2 858.7 572.2 856.6 568.3 854.3 C 564.5 852 560.7 849.5 557 846.8 C 553.3 844.1 549.8 841.2 546.4 838.2 C 543 835.2 539.7 832 536.5 828.7 C 533.4 825.5 530.4 822.1 527.5 818.7 C 524.6 815.3 521.9 811.8 519.2 808.4 C 516.6 805 514.1 801.5 511.6 798.1 C 509.2 794.8 506.8 791.4 504.5 788.2 C 502.2 785 500 781.8 497.8 778.9 C 495.6 775.9 493.4 773 491.2 770.3 C 488.9 767.7 486.7 765.1 484.4 762.8 C 482.1 760.5 479.8 758.3 477.4 756.3 C 474.9 754.4 472.4 752.6 469.7 750.9 C 467 749.3 464.2 747.8 461.3 746.5 C 458.3 745.2 455.2 744 452 743 C 448.7 741.9 445.3 740.9 441.7 740 C 438.1 739.1 434.3 738.3 430.4 737.5 C 426.5 736.7 422.4 736 418.2 735.1 C 414 734.3 409.6 733.5 405.2 732.6 C 400.7 731.7 396.1 730.7 391.5 729.6 C 386.9 728.5 382.2 727.3 377.5 725.9 C 372.9 724.5 368.1 723 363.5 721.2 C 358.9 719.5 354.2 717.6 349.7 715.5 C 345.2 713.4 340.8 711.1 336.5 708.6 C 332.2 706.1 328.1 703.3 324.2 700.4 C 320.2 697.5 316.5 694.4 313 691.1 C 309.5 687.8 306.2 684.2 303.2 680.6 C 300.2 676.9 297.4 673 294.9 669.1 C 292.5 665.1 290.3 661 288.4 656.7 C 286.5 652.5 284.9 648.1 283.6 643.7 C 282.2 639.3 281.2 634.8 280.5 630.2 C 279.7 625.7 279.2 621.1 279 616.5 C 278.8 611.9 278.8 607.2 279.1 602.6 C 279.3 598 279.9 593.4 280.6 588.8 C 281.3 584.2 282.2 579.7 283.3 575.2 C 284.4 570.7 285.7 566.2 287.1 561.8 C 288.5 557.4 290.1 553.1 291.8 548.8 C 293.5 544.6 295.3 540.4 297.2 536.3 C 299.2 532.2 301.2 528.1 303.3 524.1 C 305.5 520.2 307.7 516.3 310 512.5 C 312.3 508.7 314.6 504.9 317.1 501.3 C 319.5 497.7 322 494.1 324.6 490.6 C 327.1 487.1 329.8 483.8 332.4 480.5 C 335.1 477.1 337.9 473.9 340.7 470.8 C 343.5 467.7 346.4 464.7 349.3 461.7 C 352.2 458.8 355.2 456 358 453.1 C 360.8 450.2 363.5 447.4 366.1 444.5 C 368.7 441.7 371.2 438.8 373.6 435.9 C 376 433.1 378.4 430.2 380.7 427.4 C 383 424.5 385.2 421.6 387.4 418.8 C 389.6 416 391.8 413.1 393.9 410.4 C 396.1 407.7 398.2 404.9 400.3 402.4 C 402.4 399.9 404.3 397.3 406.7 395.3 C 409.1 393.2 411.7 391.5 414.5 390 C 417.3 388.5 420.5 387.4 423.6 386.4 C 426.7 385.3 429.9 384.4 433 383.5 C 436.2 382.7 439.4 382 442.7 381.3 C 445.9 380.7 449.2 380.1 452.5 379.6 C 455.9 379.1 459.2 378.7 462.6 378.2 C 466 377.8 469.4 377.4 472.8 377.1 C 476.3 376.7 479.7 376.4 483.2 376 C 486.8 375.7 490.3 375.4 493.9 375.1 C 497.4 374.8 501 374.5 504.7 374.2 C 508.3 374 512 373.7 515.7 373.4 C 519.3 373.2 523.1 372.9 526.8 372.6 C 530.6 372.4 534.4 372.1 538.2 371.8 C 542 371.6 545.8 371.3 549.7 371.1 C 553.6 370.8 557.5 370.6 561.4 370.3 C 565.3 370 569.2 369.8 573.2 369.5 C 577.1 369.3 581.1 369 585.1 368.8 C 589.1 368.5 593.1 368.3 597 368 C 601 367.7 605 367.5 609 367.2 C 613 367 617 366.7 620.9 366.5 C 624.9 366.3 628.8 366 632.8 365.8 C 636.7 365.5 640.6 365.3 644.5 365.1 C 648.4 364.8 652.2 364.6 656 364.4 C 659.9 364.2 663.6 363.9 667.4 363.7 C 671.1 363.5 674.8 363.4 678.5 363.2 C 682.2 363 685.8 362.8 689.4 362.7 C 692.9 362.5 696.5 362.4 700 362.3 C 703.4 362.2 706.9 362.2 710.3 362.2 C 713.7 362.2 717 362.2 720.3 362.3 C 723.6 362.4 726.9 362.6 730.1 362.9 C 733.3 363.2 736.5 363.6 739.6 364.1 C 742.8 364.7 745.9 365.4 748.9 366.2 C 752 367.1 755.1 368.1 758.1 369.4 C 761.1 370.7 764 372.2 766.9 373.9 C 769.8 375.6 772.6 377.5 775.4 379.6 C 778.2 381.7 781 384 783.7 386.4 C 786.5 388.8 789.2 391.3 792 393.9 C 794.7 396.5 797.4 399.2 800.1 401.9 C 802.8 404.6 805.5 407.4 808.1 410.3 C 810.8 413.1 813.5 416 816.1 419 C 818.6 422 821.1 425.1 823.5 428.3 C 825.9 431.5 828.1 434.8 830.2 438.1 C 832.3 441.5 834.3 445 836 448.6 C 837.8 452.1 839.5 455.7 841 459.5 C 842.4 463.2 843.7 466.9 844.8 470.8 C 845.9 474.6 846.8 478.5 847.6 482.4 C 848.3 486.4 848.8 490.3 849.2 494.3 C 849.6 498.3 849.8 502.3 849.8 506.3 C 849.9 510.3 849.7 514.3 849.5 518.3 C 849.2 522.2 848.8 526.2 848.3 530.1 C 847.8 534 847.2 537.9 846.6 541.8 C 845.9 545.6 845.1 549.4 844.4 553.2 C 843.6 556.9 842.7 560.6 841.9 564.3 C 841.1 568 840.3 571.6 839.5 575.2 Z" fill="none" stroke="#FF7E9B" stroke-opacity="0.36" stroke-width="1.80" stroke-dasharray="6 10"/>
    <line x1="67.5" y1="357.5" x2="1086.2" y2="292.6" stroke="#FF7E9B" stroke-opacity="0.090" stroke-width="1.3"/>
    <line x1="175.2" y1="318.5" x2="974.4" y2="267.6" stroke="#FF7E9B" stroke-opacity="0.063" stroke-width="1.3"/>
    <line x1="282.7" y1="275.6" x2="862.3" y2="238.7" stroke="#FF7E9B" stroke-opacity="0.036" stroke-width="1.3"/>
    <line x1="-319.4" y1="412.2" x2="1476.9" y2="297.8" stroke="#E9F5EF" stroke-opacity="0.5" stroke-width="2"/>
    <line x1="-119.8" y1="399.5" x2="-120.4" y2="390.5" stroke="#E9F5EF" stroke-opacity="0.22" stroke-width="1.4"/>
    <line x1="-20" y1="393.1" x2="-20.6" y2="384.1" stroke="#E9F5EF" stroke-opacity="0.22" stroke-width="1.4"/>
    <line x1="79.7" y1="386.8" x2="79.2" y2="377.8" stroke="#E9F5EF" stroke-opacity="0.22" stroke-width="1.4"/>
    <line x1="179.5" y1="380.4" x2="179" y2="371.4" stroke="#E9F5EF" stroke-opacity="0.22" stroke-width="1.4"/>
    <line x1="279.3" y1="374" x2="278.8" y2="365.1" stroke="#E9F5EF" stroke-opacity="0.22" stroke-width="1.4"/>
    <line x1="379.1" y1="367.7" x2="378.6" y2="358.7" stroke="#E9F5EF" stroke-opacity="0.22" stroke-width="1.4"/>
    <line x1="478.9" y1="361.3" x2="478.4" y2="352.3" stroke="#E9F5EF" stroke-opacity="0.22" stroke-width="1.4"/>
    <line x1="578.7" y1="355" x2="578.2" y2="346" stroke="#E9F5EF" stroke-opacity="0.22" stroke-width="1.4"/>
    <line x1="678.5" y1="348.6" x2="678" y2="339.6" stroke="#E9F5EF" stroke-opacity="0.22" stroke-width="1.4"/>
    <line x1="778.3" y1="342.3" x2="777.8" y2="333.3" stroke="#E9F5EF" stroke-opacity="0.22" stroke-width="1.4"/>
    <line x1="878.1" y1="335.9" x2="877.6" y2="326.9" stroke="#E9F5EF" stroke-opacity="0.22" stroke-width="1.4"/>
    <line x1="977.9" y1="329.5" x2="977.4" y2="320.6" stroke="#E9F5EF" stroke-opacity="0.22" stroke-width="1.4"/>
    <line x1="1077.7" y1="323.2" x2="1077.2" y2="314.2" stroke="#E9F5EF" stroke-opacity="0.22" stroke-width="1.4"/>
    <line x1="1177.5" y1="316.8" x2="1177" y2="307.9" stroke="#E9F5EF" stroke-opacity="0.22" stroke-width="1.4"/>
    <line x1="1277.3" y1="310.5" x2="1276.7" y2="301.5" stroke="#E9F5EF" stroke-opacity="0.22" stroke-width="1.4"/>
    
    <line x1="396.3" y1="366.6" x2="773.5" y2="342.6" stroke="#FFD9E2" stroke-opacity="0.55" stroke-width="2.6"/>
    <circle cx="592.8" cy="575.2" r="10" fill="none" stroke="#FF7E9B" stroke-width="2.2"/>
    
    <circle cx="584.6" cy="446.3" r="6" fill="#E9F5EF"/>
    <circle cx="584.6" cy="446.3" r="12" fill="none" stroke="#E9F5EF" stroke-opacity="0.4" stroke-width="1.3"/>
  </g><!--/GEOM-->
  <g font-family="ui-monospace, 'Cascadia Mono', Menlo, Consolas, monospace" font-size="19" letter-spacing="2.5">
    <text x="72" y="1150" fill="#7E9A8F" fill-opacity="0.85">HWA 142/333 · SCALP</text>
    <text x="1128" y="1150" text-anchor="end" fill="#FF7E9B" fill-opacity="0.62">SHORT 15X · -52.2% · SIM</text>
  </g>
</svg>
