<?xml version="1.0" encoding="UTF-8"?>
<svg xmlns="http://www.w3.org/2000/svg" viewBox="0 0 1200 1200" role="img" aria-labelledby="hwa-235-title hwa-235-desc">
  <title id="hwa-235-title">HWA Genesis Position #235</title>
  <desc id="hwa-235-desc">A deterministic simulated long HWA position in the scalp visual class.</desc>
  <defs>
    <linearGradient id="hwa-235-edge" x1="0" y1="0" x2="1" y2="1">
      <stop offset="0" stop-color="#FFB45C"/>
      <stop offset="0.56" stop-color="#C8FF3D"/>
      <stop offset="1" stop-color="#FF6685"/>
    </linearGradient>
    <radialGradient id="hwa-235-field" cx="50%" cy="50%" r="50%">
      <stop offset="0" stop-color="#FFB45C" stop-opacity="0.13"/>
      <stop offset="1" stop-color="#070A0D" stop-opacity="0"/>
    </radialGradient>
    <filter id="hwa-235-shadow" x="-30%" y="-30%" width="160%" height="160%">
      <feDropShadow dx="0" dy="22" stdDeviation="24" flood-color="#000000" flood-opacity="0.62"/>
    </filter>
    <clipPath id="hwa-235-clip"><rect x="170" y="90" width="860" height="1020" rx="36"/></clipPath>
  </defs>

  <rect width="1200" height="1200" fill="#070A0D"/>
  <rect width="1200" height="1200" fill="url(#hwa-235-field)"/>
  <g transform="rotate(-22 600 600)"><ellipse cx="599" cy="532" rx="98" ry="70.6" fill="none" stroke="#C8FF3D" stroke-opacity="0.070" stroke-width="2"/>
<ellipse cx="599" cy="532" rx="154" ry="110.9" fill="none" stroke="#FFB45C" stroke-opacity="0.078" stroke-width="2"/>
<ellipse cx="599" cy="532" rx="210" ry="151.2" fill="none" stroke="#FFB45C" stroke-opacity="0.086" stroke-width="2"/>
<ellipse cx="599" cy="532" rx="266" ry="191.5" fill="none" stroke="#C8FF3D" stroke-opacity="0.094" stroke-width="2"/>
<ellipse cx="599" cy="532" rx="322" ry="231.8" fill="none" stroke="#FFB45C" stroke-opacity="0.102" stroke-width="2"/>
<ellipse cx="599" cy="532" rx="378" ry="272.2" fill="none" stroke="#FFB45C" stroke-opacity="0.110" stroke-width="2"/>
<ellipse cx="599" cy="532" rx="434" ry="312.5" fill="none" stroke="#C8FF3D" stroke-opacity="0.118" stroke-width="2"/>
<ellipse cx="599" cy="532" rx="490" ry="352.8" fill="none" stroke="#FFB45C" stroke-opacity="0.126" stroke-width="2"/>
<ellipse cx="599" cy="532" rx="546" ry="393.1" fill="none" stroke="#FFB45C" stroke-opacity="0.134" stroke-width="2"/></g>
  <g opacity="0.2" stroke="#8DA19E" stroke-width="1">
    <path d="M 0 210 H 1200 M 0 600 H 1200 M 0 990 H 1200"/>
    <path d="M 210 0 V 1200 M 600 0 V 1200 M 990 0 V 1200"/>
  </g>

  <g transform="translate(600 600) scale(0.72) translate(-600 -600)" filter="url(#hwa-235-shadow)">
    <rect x="145" y="65" width="910" height="1070" rx="50" fill="#0B1115" stroke="url(#hwa-235-edge)" stroke-width="3"/>
    
    <g clip-path="url(#hwa-235-clip)">
      <rect x="170" y="90" width="860" height="1020" fill="#0B1115"/>
      <rect x="170" y="90" width="860" height="1020" fill="url(#hwa-235-field)"/>
      <path d="M 170 350 H 1030 M 170 775 H 1030" stroke="#223036" stroke-width="2"/>
      <g opacity="0.14" stroke="#8DA19E" stroke-width="1">
        <path d="M 220 420 H 980 M 220 520 H 980 M 220 620 H 980 M 220 720 H 980"/>
      </g>
      <path d="M 235.0 503.6 L 296.0 528.8 L 357.0 556.8 L 418.0 592.1 L 479.0 644.1 L 540.0 595.6 L 601.0 550.9 L 662.0 530.6 L 723.0 579.8 L 784.0 611.5 L 845.0 664.1 L 906.0 679.0 L 967.0 645.5" fill="none" stroke="#FF6685" stroke-opacity="0.32" stroke-width="4" stroke-linecap="round" stroke-linejoin="round"/>
      <circle cx="967" cy="645.5" r="8" fill="#FF6685"/>
      <g><ellipse cx="510" cy="544" rx="64" ry="35.8" fill="none" stroke="#FFB45C" stroke-opacity="0.28" stroke-width="2"/>
<ellipse cx="510" cy="544" rx="106" ry="59.4" fill="none" stroke="#C8FF3D" stroke-opacity="0.34" stroke-width="2" stroke-dasharray="5 15"/>
<ellipse cx="510" cy="544" rx="148" ry="82.9" fill="none" stroke="#FFB45C" stroke-opacity="0.40" stroke-width="2"/><circle cx="451.9" cy="559.1" r="5.0" fill="#FFB45C"/>
<circle cx="453.9" cy="594.4" r="5.8" fill="#C8FF3D"/>
<circle cx="637.3" cy="501.8" r="5.7" fill="#FFB45C"/>
<circle cx="565.7" cy="526.4" r="7.2" fill="#C8FF3D"/>
<circle cx="582.1" cy="500.5" r="4.1" fill="#FFB45C"/><rect x="467" y="501" width="26" height="26" rx="6" fill="#FFB45C"/>
<rect x="467" y="561" width="26" height="26" rx="6" fill="#C8FF3D"/>
<rect x="527" y="501" width="26" height="26" rx="6" fill="#C8FF3D"/>
<rect x="527" y="561" width="26" height="26" rx="6" fill="#FFB45C"/></g>
    </g>

    
    <text x="205" y="151" fill="#F1F7F5" font-family="Arial, sans-serif" font-size="27" font-weight="700" letter-spacing="2">HWA</text>
    <text x="282" y="151" fill="#7F9491" font-family="Arial, sans-serif" font-size="20" letter-spacing="3">GENESIS POSITION</text>
    <text x="995" y="151" text-anchor="end" fill="#7F9491" font-family="monospace" font-size="19">#235</text>

    <text x="205" y="218" fill="#7F9491" font-family="monospace" font-size="18" letter-spacing="2">HWA/HYPE · 5M</text>
    <text x="205" y="319" fill="#FF6685" font-family="Arial, sans-serif" font-size="104" font-weight="300" letter-spacing="-5">-11.8%</text>
    <rect x="846" y="250" width="149" height="50" rx="25" fill="#FF6685" fill-opacity="0.12" stroke="#FF6685" stroke-opacity="0.55"/>
    <text x="920.5" y="283" text-anchor="middle" fill="#FF6685" font-family="monospace" font-size="21" font-weight="700">LONG</text>

    <g font-family="monospace">
      <text x="205" y="850" fill="#6F8582" font-size="17" letter-spacing="2">SIZE</text>
      <text x="205" y="892" fill="#F1F7F5" font-size="27">0.305 HYPE</text>
      <text x="490" y="850" fill="#6F8582" font-size="17" letter-spacing="2">ENTRY</text>
      <text x="490" y="892" fill="#F1F7F5" font-size="27">0.013701</text>
      <text x="740" y="850" fill="#6F8582" font-size="17" letter-spacing="2">MARK</text>
      <text x="740" y="892" fill="#F1F7F5" font-size="27">0.013664</text>
      <text x="205" y="972" fill="#6F8582" font-size="17" letter-spacing="2">LEVERAGE</text>
      <text x="205" y="1014" fill="#F1F7F5" font-size="25">44x</text>
      <text x="490" y="972" fill="#6F8582" font-size="17" letter-spacing="2">SIGNAL</text>
      <text x="490" y="1014" fill="#F1F7F5" font-size="22">HIGH CONVICTION</text>
    </g>
    <text x="995" y="978" text-anchor="end" fill="#FFB45C" font-family="monospace" font-size="20" font-weight="700" letter-spacing="2">SCALP</text>
    <text x="995" y="1015" text-anchor="end" fill="#6F8582" font-family="monospace" font-size="16">GENESIS / SIM</text>
    <path d="M 205 1052 H 995" stroke="#223036" stroke-width="2"/>
    <text x="205" y="1084" fill="#60736F" font-family="monospace" font-size="14" letter-spacing="1.5">ONE OF 333 · EQUAL SNAPSHOT UNIT · HWA-GEN-1.0.0</text>
  </g>
</svg>
