<?xml version="1.0" encoding="UTF-8"?>
<svg xmlns="http://www.w3.org/2000/svg" viewBox="0 0 1200 1200" role="img" aria-labelledby="hwa-021-t">
  <title id="hwa-021-t">HWA Genesis 021 — simulated short pressure field</title>
  <defs>
    <radialGradient id="hwa-S-bg" cx="50%" cy="44%" r="78%">
      <stop offset="0" stop-color="#0A2B21"/>
      <stop offset="0.55" stop-color="#061A14"/>
      <stop offset="1" stop-color="#030C09"/>
    </radialGradient>
    <radialGradient id="hwa-S-core" cx="50%" cy="50%" r="50%">
      <stop offset="0" stop-color="#FF7E9B" stop-opacity="0.16"/>
      <stop offset="1" stop-color="#FF7E9B" stop-opacity="0"/>
    </radialGradient>
  </defs>
  <rect width="1200" height="1200" fill="url(#hwa-S-bg)"/>
  <!--GEOM--><g>
    <circle cx="589.1" cy="588" r="184.5" fill="url(#hwa-S-core)"/>
    
    <path d="M 650.4 588 C 650.3 588.9 650.2 589.8 650.2 590.7 C 650.1 591.5 650 592.4 649.8 593.3 C 649.7 594.2 649.6 595.1 649.4 595.9 C 649.3 596.8 649.1 597.7 648.9 598.5 C 648.7 599.4 648.5 600.3 648.3 601.1 C 648.1 602 647.8 602.8 647.6 603.7 C 647.3 604.5 647.1 605.4 646.8 606.2 C 646.5 607 646.2 607.8 645.9 608.7 C 645.6 609.5 645.3 610.3 644.9 611.1 C 644.6 611.9 644.2 612.7 643.8 613.5 C 643.4 614.3 643 615.1 642.6 615.8 C 642.2 616.6 641.7 617.4 641.2 618.1 C 640.8 618.8 640.3 619.6 639.8 620.3 C 639.3 621 638.8 621.7 638.2 622.4 C 637.7 623.1 637.1 623.8 636.6 624.4 C 636 625.1 635.4 625.7 634.8 626.4 C 634.3 627 633.7 627.6 633.1 628.3 C 632.5 628.9 631.8 629.5 631.2 630.1 C 630.6 630.7 630 631.3 629.3 631.9 C 628.7 632.5 628.1 633.1 627.4 633.7 C 626.8 634.2 626.1 634.8 625.5 635.4 C 624.8 636 624.2 636.6 623.5 637.1 C 622.8 637.7 622.2 638.3 621.5 638.8 C 620.8 639.4 620.1 639.9 619.4 640.5 C 618.7 641 618 641.6 617.3 642.1 C 616.5 642.6 615.8 643.2 615.1 643.7 C 614.3 644.2 613.5 644.6 612.8 645.1 C 612 645.6 611.2 646 610.4 646.4 C 609.6 646.8 608.7 647.2 607.9 647.6 C 607.1 648 606.2 648.3 605.3 648.6 C 604.5 648.9 603.6 649.2 602.7 649.4 C 601.8 649.6 600.9 649.8 600 650 C 599.1 650.2 598.2 650.3 597.3 650.4 C 596.4 650.5 595.5 650.6 594.6 650.6 C 593.7 650.7 592.8 650.7 591.8 650.7 C 590.9 650.7 590 650.6 589.1 650.6 C 588.2 650.5 587.3 650.4 586.4 650.3 C 585.5 650.2 584.6 650.1 583.7 650 C 582.8 649.8 581.9 649.7 581 649.5 C 580.1 649.4 579.2 649.2 578.3 649 C 577.5 648.9 576.6 648.7 575.7 648.5 C 574.8 648.3 573.9 648.1 573.1 647.8 C 572.2 647.6 571.3 647.4 570.5 647.1 C 569.6 646.9 568.7 646.6 567.9 646.3 C 567 646.1 566.1 645.8 565.3 645.5 C 564.4 645.2 563.6 644.9 562.8 644.5 C 561.9 644.2 561.1 643.8 560.3 643.4 C 559.4 643 558.6 642.6 557.8 642.2 C 557 641.8 556.2 641.3 555.4 640.9 C 554.6 640.4 553.9 639.9 553.1 639.4 C 552.4 638.9 551.6 638.3 550.9 637.8 C 550.2 637.2 549.5 636.7 548.8 636.1 C 548.1 635.5 547.4 634.9 546.7 634.2 C 546.1 633.6 545.4 633 544.8 632.3 C 544.1 631.7 543.5 631 542.9 630.3 C 542.3 629.6 541.7 628.9 541.1 628.2 C 540.6 627.5 540 626.8 539.5 626.1 C 538.9 625.4 538.4 624.6 537.9 623.9 C 537.3 623.1 536.8 622.4 536.3 621.6 C 535.9 620.8 535.4 620.1 534.9 619.3 C 534.5 618.5 534 617.7 533.6 616.9 C 533.2 616.1 532.8 615.3 532.4 614.4 C 532.1 613.6 531.7 612.8 531.4 611.9 C 531.1 611.1 530.8 610.2 530.5 609.3 C 530.2 608.5 530 607.6 529.8 606.7 C 529.5 605.8 529.4 604.9 529.2 604 C 529 603.2 528.9 602.3 528.8 601.4 C 528.7 600.5 528.6 599.6 528.6 598.7 C 528.6 597.8 528.5 596.9 528.5 596 C 528.6 595.1 528.6 594.2 528.6 593.3 C 528.7 592.4 528.7 591.5 528.8 590.6 C 528.9 589.7 529 588.9 529.1 588 C 529.2 587.1 529.3 586.3 529.5 585.4 C 529.6 584.5 529.7 583.7 529.9 582.8 C 530 582 530.1 581.1 530.3 580.3 C 530.4 579.4 530.6 578.6 530.7 577.7 C 530.9 576.9 531 576 531.2 575.2 C 531.3 574.3 531.5 573.5 531.7 572.6 C 531.9 571.8 532 570.9 532.2 570.1 C 532.4 569.2 532.6 568.4 532.8 567.5 C 533 566.7 533.3 565.8 533.5 565 C 533.8 564.1 534 563.3 534.3 562.5 C 534.6 561.6 534.9 560.8 535.3 560 C 535.6 559.2 536 558.3 536.4 557.5 C 536.8 556.7 537.2 556 537.6 555.2 C 538 554.4 538.5 553.7 539 552.9 C 539.5 552.2 540 551.4 540.6 550.7 C 541.1 550 541.7 549.3 542.2 548.7 C 542.8 548 543.4 547.3 544.1 546.7 C 544.7 546.1 545.3 545.5 546 544.9 C 546.6 544.3 547.3 543.7 548 543.1 C 548.6 542.5 549.3 542 550 541.4 C 550.7 540.9 551.4 540.4 552.1 539.8 C 552.9 539.3 553.6 538.8 554.3 538.3 C 555 537.8 555.8 537.3 556.5 536.9 C 557.3 536.4 558 535.9 558.8 535.5 C 559.5 535 560.3 534.6 561.1 534.1 C 561.8 533.7 562.6 533.3 563.4 532.9 C 564.2 532.5 565 532.1 565.8 531.7 C 566.6 531.3 567.4 531 568.2 530.6 C 569 530.3 569.9 529.9 570.7 529.6 C 571.5 529.3 572.4 529.1 573.2 528.8 C 574.1 528.5 575 528.3 575.8 528.1 C 576.7 527.8 577.6 527.6 578.4 527.5 C 579.3 527.3 580.2 527.1 581.1 527 C 582 526.8 582.8 526.7 583.7 526.6 C 584.6 526.5 585.5 526.4 586.4 526.4 C 587.3 526.3 588.2 526.3 589.1 526.2 C 590 526.2 590.9 526.2 591.8 526.2 C 592.7 526.2 593.6 526.2 594.5 526.2 C 595.4 526.2 596.3 526.3 597.2 526.3 C 598.1 526.4 599 526.4 599.9 526.5 C 600.9 526.6 601.8 526.7 602.7 526.8 C 603.6 526.9 604.5 527 605.4 527.2 C 606.3 527.3 607.2 527.5 608.1 527.7 C 609 527.9 609.9 528.1 610.8 528.3 C 611.7 528.6 612.6 528.9 613.5 529.2 C 614.4 529.4 615.2 529.8 616.1 530.1 C 616.9 530.5 617.8 530.9 618.6 531.3 C 619.5 531.7 620.3 532.2 621.1 532.6 C 621.9 533.1 622.6 533.6 623.4 534.2 C 624.2 534.7 624.9 535.3 625.6 535.9 C 626.3 536.5 627 537.1 627.7 537.7 C 628.4 538.3 629 539 629.6 539.7 C 630.3 540.4 630.9 541.1 631.5 541.8 C 632.1 542.5 632.6 543.2 633.2 543.9 C 633.8 544.6 634.3 545.4 634.8 546.1 C 635.3 546.8 635.9 547.6 636.4 548.3 C 636.9 549.1 637.3 549.9 637.8 550.6 C 638.3 551.4 638.8 552.1 639.3 552.9 C 639.7 553.6 640.2 554.4 640.6 555.2 C 641.1 555.9 641.5 556.7 642 557.5 C 642.4 558.2 642.9 559 643.3 559.8 C 643.7 560.6 644.1 561.4 644.5 562.2 C 644.9 562.9 645.3 563.7 645.7 564.6 C 646.1 565.4 646.4 566.2 646.8 567 C 647.1 567.8 647.4 568.7 647.7 569.5 C 648 570.3 648.3 571.2 648.6 572.1 C 648.8 572.9 649.1 573.8 649.3 574.7 C 649.5 575.5 649.7 576.4 649.8 577.3 C 650 578.2 650.1 579.1 650.2 580 C 650.3 580.8 650.3 581.7 650.4 582.6 C 650.4 583.5 650.5 584.4 650.5 585.3 C 650.4 586.2 650.4 587.1 650.4 588 Z" fill="none" stroke="#FF7E9B" stroke-opacity="0.70" stroke-width="3.08"/>
    <path d="M 704.8 588 C 704.7 589.7 704.5 591.4 704.3 593 C 704.2 594.7 703.9 596.4 703.7 598 C 703.4 599.7 703.1 601.3 702.8 603 C 702.5 604.6 702.2 606.2 701.8 607.9 C 701.4 609.5 701 611.1 700.6 612.7 C 700.2 614.3 699.7 615.9 699.3 617.5 C 698.8 619.1 698.3 620.7 697.8 622.3 C 697.2 623.8 696.7 625.4 696.1 626.9 C 695.5 628.5 694.9 630 694.2 631.5 C 693.5 633 692.8 634.5 692.1 636 C 691.4 637.5 690.6 639 689.8 640.4 C 689 641.8 688.1 643.3 687.2 644.6 C 686.3 646 685.4 647.4 684.4 648.7 C 683.5 650.1 682.5 651.4 681.4 652.7 C 680.4 653.9 679.4 655.2 678.3 656.4 C 677.2 657.7 676.1 658.9 675 660.1 C 673.9 661.2 672.7 662.4 671.6 663.6 C 670.4 664.7 669.3 665.9 668.1 667 C 666.9 668.1 665.8 669.2 664.6 670.4 C 663.4 671.5 662.2 672.6 661 673.7 C 659.8 674.8 658.6 675.9 657.4 677 C 656.2 678.1 655 679.2 653.8 680.3 C 652.5 681.4 651.3 682.6 650 683.7 C 648.8 684.8 647.5 685.9 646.2 687 C 644.9 688 643.6 689.1 642.3 690.2 C 641 691.2 639.6 692.3 638.2 693.3 C 636.8 694.3 635.4 695.3 633.9 696.2 C 632.5 697.2 631 698.1 629.5 698.9 C 628 699.8 626.4 700.6 624.8 701.3 C 623.2 702 621.6 702.7 620 703.3 C 618.4 703.9 616.7 704.5 615 704.9 C 613.4 705.4 611.6 705.8 609.9 706.1 C 608.2 706.5 606.5 706.7 604.8 706.9 C 603 707.1 601.3 707.2 599.5 707.3 C 597.8 707.4 596.1 707.4 594.3 707.3 C 592.6 707.3 590.8 707.2 589.1 707 C 587.4 706.9 585.6 706.7 583.9 706.5 C 582.2 706.3 580.5 706 578.8 705.7 C 577.1 705.5 575.4 705.2 573.7 704.8 C 572 704.5 570.4 704.2 568.7 703.8 C 567 703.5 565.3 703.1 563.7 702.7 C 562 702.3 560.4 701.9 558.7 701.5 C 557 701.1 555.4 700.6 553.7 700.2 C 552.1 699.7 550.4 699.2 548.8 698.7 C 547.2 698.2 545.5 697.7 543.9 697.1 C 542.3 696.6 540.7 696 539.1 695.3 C 537.5 694.7 535.9 694 534.3 693.3 C 532.7 692.6 531.2 691.8 529.6 691 C 528.1 690.2 526.6 689.4 525.1 688.5 C 523.6 687.6 522.1 686.7 520.7 685.7 C 519.2 684.7 517.8 683.7 516.5 682.7 C 515.1 681.6 513.7 680.5 512.4 679.4 C 511.1 678.3 509.8 677.1 508.6 675.9 C 507.3 674.7 506.1 673.5 504.9 672.2 C 503.7 671 502.5 669.7 501.4 668.4 C 500.2 667.1 499.1 665.8 498 664.4 C 496.9 663.1 495.9 661.7 494.8 660.3 C 493.8 659 492.8 657.6 491.8 656.1 C 490.8 654.7 489.8 653.3 488.9 651.8 C 488 650.4 487.1 648.9 486.2 647.4 C 485.3 645.9 484.5 644.4 483.7 642.9 C 482.9 641.3 482.2 639.8 481.5 638.2 C 480.8 636.6 480.1 635 479.5 633.4 C 478.9 631.8 478.3 630.1 477.8 628.5 C 477.3 626.8 476.9 625.2 476.5 623.5 C 476.1 621.8 475.8 620.1 475.5 618.4 C 475.3 616.7 475.1 615 475 613.3 C 474.8 611.6 474.7 609.9 474.7 608.2 C 474.7 606.5 474.7 604.7 474.8 603 C 474.8 601.3 475 599.7 475.1 598 C 475.3 596.3 475.5 594.6 475.7 592.9 C 475.9 591.3 476.1 589.6 476.4 588 C 476.7 586.4 476.9 584.7 477.2 583.1 C 477.5 581.5 477.8 579.9 478.1 578.3 C 478.4 576.7 478.7 575.1 479 573.5 C 479.2 571.9 479.5 570.3 479.8 568.7 C 480.1 567.1 480.4 565.5 480.7 564 C 481 562.4 481.2 560.8 481.5 559.2 C 481.8 557.6 482.1 556 482.4 554.4 C 482.8 552.8 483.1 551.2 483.5 549.5 C 483.8 547.9 484.2 546.3 484.6 544.7 C 485.1 543.1 485.5 541.5 486 539.9 C 486.5 538.3 487.1 536.8 487.7 535.2 C 488.3 533.6 488.9 532.1 489.6 530.6 C 490.3 529 491.1 527.5 491.9 526.1 C 492.7 524.6 493.5 523.1 494.5 521.7 C 495.4 520.3 496.3 518.9 497.4 517.6 C 498.4 516.3 499.4 515 500.5 513.7 C 501.6 512.4 502.8 511.2 504 510 C 505.2 508.8 506.4 507.6 507.6 506.5 C 508.9 505.4 510.1 504.3 511.4 503.2 C 512.7 502.1 514 501.1 515.3 500.1 C 516.7 499.1 518 498.1 519.4 497.1 C 520.7 496.1 522.1 495.2 523.5 494.3 C 524.8 493.3 526.2 492.4 527.6 491.5 C 529 490.6 530.4 489.7 531.9 488.9 C 533.3 488 534.7 487.1 536.2 486.3 C 537.6 485.5 539.1 484.7 540.6 483.9 C 542 483.1 543.5 482.4 545 481.6 C 546.6 480.9 548.1 480.2 549.6 479.5 C 551.2 478.9 552.7 478.3 554.3 477.7 C 555.9 477.1 557.5 476.5 559.1 476 C 560.7 475.5 562.3 475 564 474.6 C 565.6 474.1 567.2 473.8 568.9 473.4 C 570.5 473.1 572.2 472.8 573.9 472.5 C 575.6 472.2 577.2 472 578.9 471.8 C 580.6 471.6 582.3 471.4 584 471.3 C 585.7 471.2 587.4 471.1 589.1 471 C 590.8 470.9 592.5 470.9 594.2 470.8 C 595.9 470.8 597.6 470.8 599.4 470.8 C 601.1 470.8 602.8 470.9 604.5 470.9 C 606.2 471 608 471.1 609.7 471.2 C 611.4 471.3 613.2 471.5 614.9 471.6 C 616.6 471.8 618.4 472 620.1 472.2 C 621.9 472.5 623.6 472.8 625.3 473.1 C 627.1 473.4 628.8 473.8 630.5 474.2 C 632.3 474.6 634 475.1 635.7 475.6 C 637.3 476.2 639 476.8 640.7 477.4 C 642.3 478.1 643.9 478.8 645.5 479.6 C 647.1 480.4 648.7 481.3 650.2 482.2 C 651.7 483.1 653.2 484.1 654.6 485.1 C 656.1 486.2 657.5 487.3 658.8 488.5 C 660.2 489.6 661.5 490.8 662.7 492.1 C 664 493.3 665.2 494.6 666.3 496 C 667.5 497.3 668.6 498.7 669.7 500 C 670.8 501.4 671.8 502.9 672.8 504.3 C 673.8 505.7 674.8 507.1 675.8 508.6 C 676.7 510 677.6 511.5 678.6 512.9 C 679.5 514.4 680.4 515.8 681.2 517.3 C 682.1 518.8 683 520.2 683.8 521.7 C 684.7 523.1 685.6 524.6 686.4 526 C 687.2 527.5 688.1 528.9 688.9 530.4 C 689.7 531.8 690.5 533.3 691.3 534.8 C 692.1 536.2 692.9 537.7 693.7 539.2 C 694.5 540.7 695.2 542.2 696 543.7 C 696.7 545.3 697.4 546.8 698.1 548.3 C 698.7 549.9 699.3 551.5 699.9 553.1 C 700.5 554.6 701.1 556.2 701.6 557.9 C 702 559.5 702.5 561.1 702.9 562.8 C 703.3 564.4 703.6 566.1 703.9 567.8 C 704.2 569.4 704.4 571.1 704.6 572.8 C 704.8 574.5 704.9 576.2 705 577.9 C 705 579.6 705 581.2 705 582.9 C 705 584.6 704.9 586.3 704.8 588 Z" fill="none" stroke="#FF7E9B" stroke-opacity="0.61" stroke-width="2.76"/>
    <path d="M 756.7 588 C 756.5 590.4 756.3 592.9 756 595.3 C 755.7 597.7 755.3 600.1 754.9 602.5 C 754.5 604.9 754.1 607.3 753.6 609.7 C 753.1 612 752.6 614.4 752.1 616.7 C 751.5 619.1 751 621.4 750.3 623.7 C 749.7 626.1 749.1 628.4 748.4 630.7 C 747.7 633 747 635.3 746.2 637.5 C 745.4 639.8 744.6 642.1 743.8 644.3 C 742.9 646.5 742 648.7 741 650.9 C 740.1 653.1 739 655.3 738 657.4 C 736.9 659.5 735.8 661.7 734.6 663.7 C 733.4 665.8 732.1 667.8 730.8 669.8 C 729.5 671.8 728.1 673.8 726.7 675.7 C 725.3 677.6 723.8 679.5 722.3 681.3 C 720.8 683.1 719.3 684.9 717.7 686.7 C 716.1 688.4 714.5 690.1 712.9 691.8 C 711.2 693.5 709.6 695.2 707.9 696.8 C 706.2 698.5 704.5 700.1 702.8 701.7 C 701.2 703.4 699.5 705 697.8 706.6 C 696.1 708.2 694.4 709.8 692.7 711.4 C 691 713 689.3 714.6 687.5 716.3 C 685.8 717.9 684.1 719.6 682.4 721.2 C 680.6 722.9 678.9 724.5 677.1 726.2 C 675.4 727.8 673.6 729.5 671.8 731.2 C 669.9 732.8 668.1 734.5 666.2 736.1 C 664.3 737.7 662.4 739.3 660.4 740.9 C 658.4 742.5 656.4 744 654.3 745.4 C 652.2 746.9 650.1 748.3 647.9 749.6 C 645.8 750.9 643.5 752.2 641.2 753.3 C 639 754.5 636.6 755.5 634.2 756.5 C 631.9 757.4 629.5 758.2 627 759 C 624.6 759.7 622.1 760.3 619.6 760.8 C 617.1 761.3 614.5 761.7 612 761.9 C 609.5 762.2 606.9 762.4 604.4 762.5 C 601.8 762.5 599.3 762.5 596.7 762.4 C 594.2 762.3 591.6 762.1 589.1 761.9 C 586.6 761.6 584.1 761.3 581.6 760.9 C 579 760.6 576.6 760.2 574.1 759.7 C 571.6 759.3 569.1 758.8 566.7 758.3 C 564.2 757.8 561.8 757.3 559.4 756.7 C 556.9 756.2 554.5 755.6 552.1 755 C 549.7 754.5 547.2 753.9 544.8 753.3 C 542.4 752.6 540 752 537.6 751.3 C 535.2 750.7 532.8 750 530.4 749.3 C 528 748.5 525.6 747.8 523.2 747 C 520.9 746.2 518.5 745.3 516.2 744.4 C 513.8 743.5 511.5 742.6 509.2 741.5 C 506.9 740.5 504.6 739.4 502.3 738.3 C 500.1 737.1 497.9 735.9 495.7 734.6 C 493.5 733.3 491.4 732 489.3 730.5 C 487.2 729.1 485.1 727.6 483.1 726.1 C 481.1 724.6 479.2 722.9 477.3 721.3 C 475.3 719.6 473.5 717.9 471.6 716.2 C 469.8 714.4 468 712.6 466.3 710.8 C 464.6 709 462.9 707.1 461.2 705.2 C 459.6 703.3 457.9 701.3 456.4 699.4 C 454.8 697.4 453.2 695.4 451.7 693.4 C 450.2 691.4 448.7 689.4 447.3 687.3 C 445.9 685.2 444.5 683.1 443.1 681 C 441.7 678.9 440.4 676.7 439.2 674.6 C 437.9 672.4 436.7 670.2 435.5 668 C 434.4 665.7 433.3 663.4 432.2 661.1 C 431.2 658.8 430.2 656.5 429.4 654.2 C 428.5 651.8 427.7 649.4 427 647 C 426.3 644.6 425.7 642.1 425.2 639.7 C 424.7 637.2 424.2 634.7 423.9 632.3 C 423.6 629.8 423.4 627.3 423.2 624.8 C 423.1 622.3 423.1 619.8 423.1 617.3 C 423.2 614.8 423.3 612.3 423.5 609.8 C 423.7 607.3 423.9 604.9 424.3 602.4 C 424.6 600 425 597.5 425.4 595.1 C 425.8 592.7 426.2 590.4 426.7 588 C 427.1 585.6 427.6 583.3 428.1 581 C 428.5 578.6 429 576.3 429.5 574 C 430 571.7 430.4 569.4 430.9 567.2 C 431.3 564.9 431.7 562.6 432.2 560.3 C 432.6 558 433 555.8 433.4 553.5 C 433.8 551.2 434.1 548.9 434.5 546.6 C 434.9 544.3 435.3 541.9 435.7 539.6 C 436.1 537.3 436.5 535 437 532.6 C 437.4 530.3 437.9 527.9 438.4 525.6 C 439 523.3 439.6 520.9 440.2 518.6 C 440.9 516.3 441.6 513.9 442.4 511.6 C 443.2 509.4 444.1 507.1 445.1 504.8 C 446 502.6 447.1 500.4 448.2 498.3 C 449.4 496.1 450.6 494 451.9 491.9 C 453.2 489.9 454.6 487.9 456.1 485.9 C 457.5 484 459.1 482.1 460.7 480.2 C 462.3 478.4 463.9 476.6 465.6 474.9 C 467.4 473.2 469.1 471.5 470.9 469.9 C 472.8 468.2 474.6 466.7 476.5 465.1 C 478.4 463.6 480.3 462.1 482.2 460.6 C 484.1 459.2 486.1 457.8 488.1 456.4 C 490 455 492 453.6 494 452.3 C 496 450.9 498 449.6 500 448.3 C 502.1 447 504.1 445.7 506.2 444.4 C 508.2 443.2 510.2 441.9 512.3 440.6 C 514.4 439.4 516.5 438.2 518.6 437 C 520.7 435.9 522.9 434.8 525.1 433.7 C 527.3 432.6 529.5 431.6 531.7 430.6 C 534 429.7 536.2 428.8 538.5 427.9 C 540.8 427.1 543.1 426.3 545.5 425.6 C 547.8 424.9 550.2 424.2 552.5 423.6 C 554.9 423 557.3 422.5 559.7 422 C 562.1 421.5 564.6 421.1 567 420.8 C 569.4 420.4 571.9 420.1 574.3 419.8 C 576.8 419.6 579.2 419.4 581.7 419.2 C 584.2 419.1 586.6 418.9 589.1 418.9 C 591.6 418.8 594 418.7 596.5 418.7 C 599 418.7 601.5 418.7 604 418.8 C 606.4 418.8 608.9 418.9 611.4 419 C 613.9 419.1 616.4 419.3 618.9 419.4 C 621.4 419.6 624 419.8 626.5 420.1 C 629 420.3 631.5 420.6 634 420.9 C 636.6 421.2 639.1 421.6 641.6 422 C 644.2 422.4 646.7 422.8 649.2 423.4 C 651.7 423.9 654.3 424.5 656.8 425.1 C 659.3 425.8 661.8 426.5 664.2 427.4 C 666.7 428.2 669.1 429.1 671.5 430.1 C 673.9 431.1 676.2 432.2 678.5 433.4 C 680.8 434.6 683.1 435.9 685.2 437.4 C 687.3 438.9 689.3 440.6 691.3 442.3 C 693.2 444 695.1 445.8 696.9 447.7 C 698.6 449.6 700.4 451.5 702 453.5 C 703.7 455.5 705.2 457.6 706.7 459.7 C 708.3 461.7 709.7 463.9 711.1 466 C 712.5 468.1 713.9 470.3 715.2 472.5 C 716.5 474.6 717.8 476.8 719.1 479 C 720.3 481.1 721.6 483.3 722.8 485.4 C 724 487.6 725.2 489.7 726.4 491.9 C 727.6 494 728.8 496.1 730 498.2 C 731.2 500.3 732.4 502.5 733.6 504.6 C 734.8 506.7 736 508.8 737.1 510.9 C 738.3 513.1 739.5 515.2 740.6 517.4 C 741.7 519.5 742.8 521.7 743.9 523.9 C 745 526.1 746 528.3 747 530.5 C 748 532.8 748.9 535 749.8 537.3 C 750.6 539.6 751.5 542 752.2 544.3 C 752.9 546.6 753.6 549 754.2 551.4 C 754.7 553.8 755.2 556.2 755.6 558.6 C 756.1 561.1 756.4 563.5 756.6 565.9 C 756.9 568.4 757 570.8 757.1 573.3 C 757.2 575.8 757.2 578.2 757.1 580.7 C 757.1 583.1 756.9 585.6 756.7 588 Z" fill="none" stroke="#FF7E9B" stroke-opacity="0.53" stroke-width="2.44"/>
    <path d="M 807 588 C 806.7 591.2 806.3 594.3 805.9 597.5 C 805.5 600.6 804.9 603.7 804.4 606.8 C 803.9 609.9 803.3 613 802.6 616.1 C 802 619.2 801.3 622.2 800.6 625.3 C 799.9 628.3 799.1 631.4 798.3 634.4 C 797.5 637.4 796.6 640.4 795.7 643.4 C 794.8 646.3 793.9 649.3 792.9 652.3 C 791.9 655.2 790.9 658.1 789.7 661 C 788.6 663.9 787.4 666.8 786.2 669.6 C 784.9 672.5 783.6 675.3 782.2 678 C 780.8 680.8 779.3 683.5 777.7 686.2 C 776.2 688.9 774.5 691.5 772.8 694.1 C 771.1 696.6 769.3 699.1 767.4 701.6 C 765.6 704.1 763.6 706.5 761.6 708.8 C 759.7 711.2 757.6 713.4 755.5 715.7 C 753.4 717.9 751.3 720.1 749.2 722.3 C 747 724.5 744.8 726.6 742.7 728.7 C 740.5 730.8 738.3 732.9 736.1 735 C 733.9 737.1 731.7 739.1 729.5 741.2 C 727.3 743.3 725.1 745.4 722.9 747.5 C 720.8 749.6 718.6 751.7 716.4 753.9 C 714.2 756 712 758.2 709.8 760.4 C 707.7 762.6 705.5 764.9 703.2 767.1 C 701 769.4 698.7 771.6 696.4 773.9 C 694.1 776.2 691.8 778.4 689.4 780.7 C 687 782.9 684.6 785.1 682 787.3 C 679.5 789.4 676.9 791.6 674.3 793.6 C 671.6 795.6 668.9 797.6 666 799.4 C 663.2 801.2 660.3 802.9 657.4 804.5 C 654.4 806.1 651.4 807.6 648.3 808.9 C 645.2 810.2 642 811.3 638.8 812.3 C 635.6 813.3 632.4 814.2 629.1 814.8 C 625.8 815.5 622.5 816 619.2 816.4 C 615.8 816.7 612.5 816.9 609.1 817 C 605.8 817.1 602.4 817 599.1 816.8 C 595.8 816.6 592.4 816.3 589.1 815.9 C 585.8 815.6 582.5 815.1 579.2 814.6 C 575.9 814 572.7 813.4 569.4 812.8 C 566.2 812.2 563 811.5 559.8 810.8 C 556.6 810.1 553.4 809.3 550.2 808.6 C 547 807.9 543.9 807.1 540.7 806.3 C 537.5 805.6 534.4 804.8 531.2 804 C 528.1 803.1 524.9 802.3 521.8 801.5 C 518.7 800.6 515.5 799.7 512.4 798.8 C 509.2 797.9 506.1 796.9 503 795.9 C 499.9 794.8 496.8 793.7 493.7 792.6 C 490.6 791.4 487.6 790.2 484.5 788.8 C 481.5 787.5 478.5 786.1 475.6 784.6 C 472.6 783.1 469.7 781.5 466.9 779.9 C 464 778.2 461.2 776.4 458.5 774.5 C 455.7 772.7 453.1 770.7 450.4 768.7 C 447.8 766.7 445.3 764.6 442.8 762.4 C 440.3 760.2 437.9 758 435.5 755.6 C 433.1 753.3 430.8 751 428.5 748.6 C 426.3 746.2 424.1 743.7 421.9 741.2 C 419.8 738.7 417.7 736.2 415.6 733.6 C 413.5 731 411.5 728.4 409.5 725.8 C 407.6 723.1 405.6 720.5 403.8 717.8 C 401.9 715.1 400 712.3 398.3 709.6 C 396.5 706.8 394.7 704 393.1 701.2 C 391.4 698.3 389.8 695.4 388.3 692.5 C 386.8 689.6 385.4 686.6 384 683.6 C 382.7 680.6 381.4 677.6 380.3 674.5 C 379.2 671.4 378.2 668.3 377.3 665.1 C 376.4 661.9 375.6 658.7 375 655.5 C 374.4 652.3 373.9 649 373.5 645.8 C 373.2 642.5 373 639.2 372.9 635.9 C 372.8 632.7 372.9 629.4 373 626.1 C 373.2 622.8 373.5 619.6 373.8 616.3 C 374.2 613.1 374.7 609.9 375.2 606.7 C 375.7 603.5 376.4 600.4 377 597.3 C 377.7 594.1 378.4 591.1 379.1 588 C 379.8 584.9 380.5 581.9 381.2 578.9 C 381.9 575.9 382.6 572.9 383.3 570 C 383.9 567 384.6 564.1 385.2 561.2 C 385.8 558.2 386.4 555.3 386.9 552.3 C 387.5 549.4 388 546.5 388.4 543.5 C 388.9 540.6 389.4 537.6 389.8 534.6 C 390.3 531.6 390.7 528.6 391.1 525.6 C 391.6 522.6 392 519.5 392.5 516.5 C 393 513.4 393.6 510.3 394.2 507.3 C 394.8 504.2 395.5 501.1 396.2 498.1 C 397 495 397.9 492 398.8 488.9 C 399.8 485.9 400.8 482.9 402 480 C 403.2 477.1 404.5 474.2 406 471.3 C 407.4 468.5 408.9 465.7 410.6 463 C 412.3 460.3 414.1 457.7 415.9 455.2 C 417.8 452.6 419.8 450.1 421.9 447.8 C 424 445.4 426.2 443.1 428.4 440.8 C 430.6 438.6 433 436.5 435.3 434.3 C 437.7 432.2 440 430.1 442.4 428.1 C 444.8 426 447.2 424.1 449.7 422.1 C 452.1 420.1 454.6 418.2 457.1 416.4 C 459.6 414.5 462.1 412.6 464.6 410.8 C 467.2 409.1 469.8 407.3 472.4 405.6 C 475 403.9 477.6 402.3 480.2 400.7 C 482.9 399.1 485.6 397.6 488.3 396.2 C 491.1 394.7 493.9 393.4 496.7 392.1 C 499.5 390.8 502.3 389.6 505.2 388.6 C 508.1 387.5 511 386.4 514 385.5 C 516.9 384.6 519.9 383.8 522.9 383 C 525.9 382.3 529 381.6 532.1 381 C 535.1 380.4 538.2 379.9 541.3 379.4 C 544.4 378.9 547.6 378.6 550.7 378.2 C 553.9 377.9 557 377.6 560.2 377.4 C 563.4 377.1 566.6 376.9 569.8 376.8 C 572.9 376.6 576.1 376.5 579.3 376.5 C 582.5 376.4 585.8 376.4 589 376.4 C 592.2 376.4 595.4 376.4 598.6 376.5 C 601.8 376.6 605 376.7 608.2 376.8 C 611.4 376.9 614.6 377.1 617.8 377.3 C 621 377.5 624.2 377.7 627.4 378 C 630.6 378.2 633.8 378.5 637 378.9 C 640.2 379.2 643.4 379.5 646.6 379.9 C 649.8 380.3 653 380.8 656.2 381.2 C 659.4 381.7 662.6 382.2 665.8 382.8 C 669 383.3 672.2 383.9 675.3 384.6 C 678.5 385.3 681.7 386 684.8 386.9 C 687.9 387.7 691.1 388.6 694.2 389.6 C 697.2 390.6 700.3 391.7 703.3 392.9 C 706.3 394.1 709.3 395.4 712.1 396.9 C 715 398.4 717.8 400 720.6 401.7 C 723.3 403.4 725.9 405.3 728.5 407.3 C 731 409.4 733.5 411.5 735.8 413.8 C 738.1 416.1 740.3 418.5 742.4 421 C 744.6 423.6 746.5 426.2 748.4 428.9 C 750.3 431.6 752 434.4 753.7 437.3 C 755.4 440.1 756.9 443.1 758.5 445.9 C 760.1 448.8 761.6 451.7 763.1 454.5 C 764.6 457.4 766.1 460.2 767.7 463 C 769.2 465.8 770.7 468.6 772.2 471.4 C 773.7 474.1 775.2 476.9 776.8 479.7 C 778.3 482.4 779.8 485.2 781.3 487.9 C 782.9 490.7 784.4 493.5 785.9 496.3 C 787.3 499 788.8 501.9 790.2 504.7 C 791.6 507.5 793 510.4 794.3 513.3 C 795.6 516.2 796.9 519.1 798 522.1 C 799.2 525.1 800.3 528.1 801.2 531.2 C 802.2 534.2 803.1 537.3 803.8 540.4 C 804.6 543.5 805.3 546.6 805.8 549.8 C 806.3 552.9 806.7 556.1 807 559.3 C 807.3 562.5 807.5 565.7 807.6 568.9 C 807.7 572.1 807.7 575.3 807.6 578.5 C 807.5 581.6 807.2 584.8 807 588 Z" fill="none" stroke="#FF7E9B" stroke-opacity="0.44" stroke-width="2.12" stroke-dasharray="6 10"/>
    <path d="M 855.8 588 C 855.4 591.9 854.9 595.7 854.4 599.6 C 853.8 603.4 853.2 607.2 852.5 611 C 851.8 614.8 851 618.6 850.2 622.4 C 849.4 626.1 848.6 629.9 847.7 633.6 C 846.8 637.3 845.8 641 844.8 644.7 C 843.8 648.4 842.8 652 841.7 655.7 C 840.6 659.3 839.5 663 838.3 666.6 C 837 670.2 835.8 673.7 834.4 677.3 C 833 680.8 831.6 684.3 830.1 687.8 C 828.5 691.3 826.9 694.7 825.2 698.1 C 823.4 701.4 821.6 704.8 819.7 708 C 817.8 711.3 815.7 714.5 813.6 717.6 C 811.5 720.7 809.2 723.8 806.9 726.7 C 804.6 729.7 802.2 732.6 799.7 735.5 C 797.2 738.3 794.7 741.1 792.1 743.8 C 789.5 746.5 786.9 749.1 784.2 751.7 C 781.6 754.3 778.9 756.9 776.2 759.4 C 773.5 762 770.8 764.5 768.1 767 C 765.4 769.5 762.7 772 760.1 774.6 C 757.4 777.1 754.8 779.7 752.1 782.3 C 749.5 784.9 746.9 787.5 744.3 790.2 C 741.6 792.9 739 795.6 736.4 798.4 C 733.8 801.2 731.2 804 728.5 806.8 C 725.9 809.7 723.2 812.6 720.4 815.5 C 717.7 818.4 714.9 821.3 712.1 824.2 C 709.2 827.1 706.3 830 703.2 832.8 C 700.2 835.6 697.1 838.3 693.9 841 C 690.7 843.6 687.4 846.2 683.9 848.5 C 680.5 850.9 677 853.2 673.4 855.3 C 669.8 857.4 666 859.3 662.2 861 C 658.5 862.7 654.6 864.2 650.6 865.4 C 646.7 866.7 642.6 867.8 638.6 868.7 C 634.5 869.5 630.4 870.1 626.3 870.6 C 622.2 871 618 871.2 613.9 871.3 C 609.7 871.3 605.6 871.2 601.5 870.9 C 597.3 870.7 593.2 870.2 589.1 869.7 C 585 869.2 580.9 868.5 576.9 867.8 C 572.8 867.1 568.8 866.3 564.8 865.4 C 560.8 864.6 556.9 863.6 552.9 862.7 C 549 861.8 545.1 860.9 541.2 859.9 C 537.3 858.9 533.4 858 529.5 857 C 525.6 856 521.7 855 517.8 854 C 513.9 853 510.1 852 506.2 850.9 C 502.3 849.9 498.5 848.8 494.6 847.7 C 490.7 846.5 486.9 845.4 483 844.1 C 479.2 842.8 475.3 841.5 471.5 840.1 C 467.7 838.7 464 837.2 460.2 835.6 C 456.5 834 452.8 832.2 449.1 830.4 C 445.5 828.6 441.9 826.6 438.4 824.5 C 434.9 822.5 431.4 820.3 428.1 818 C 424.7 815.7 421.4 813.3 418.2 810.8 C 415 808.2 411.8 805.6 408.8 802.9 C 405.7 800.2 402.7 797.4 399.8 794.6 C 396.9 791.7 394.1 788.8 391.3 785.8 C 388.6 782.8 385.9 779.7 383.2 776.6 C 380.6 773.6 378 770.4 375.5 767.2 C 373 764.1 370.5 760.9 368.1 757.6 C 365.6 754.4 363.2 751.1 360.9 747.8 C 358.6 744.4 356.3 741.1 354.1 737.7 C 351.9 734.3 349.8 730.8 347.7 727.4 C 345.7 723.9 343.7 720.3 341.8 716.7 C 339.9 713.1 338.2 709.5 336.5 705.8 C 334.9 702.1 333.3 698.3 332 694.5 C 330.6 690.7 329.4 686.8 328.3 682.9 C 327.2 679 326.3 675 325.6 671.1 C 324.9 667.1 324.4 663.1 324 659 C 323.7 655 323.5 650.9 323.5 646.9 C 323.5 642.8 323.7 638.8 324 634.7 C 324.4 630.7 324.9 626.7 325.4 622.7 C 326 618.7 326.8 614.8 327.6 610.9 C 328.4 607 329.3 603.1 330.3 599.3 C 331.2 595.5 332.2 591.7 333.2 588 C 334.2 584.3 335.2 580.6 336.2 577 C 337.2 573.3 338.1 569.7 339 566.1 C 339.9 562.5 340.8 559 341.6 555.4 C 342.4 551.8 343.1 548.3 343.7 544.7 C 344.4 541.2 345 537.6 345.6 534 C 346.1 530.4 346.6 526.8 347.1 523.1 C 347.5 519.5 348 515.8 348.4 512.1 C 348.9 508.4 349.3 504.7 349.8 500.9 C 350.4 497.2 350.9 493.4 351.5 489.6 C 352.2 485.8 352.8 482 353.7 478.2 C 354.5 474.4 355.4 470.7 356.5 466.9 C 357.6 463.2 358.8 459.5 360.2 455.8 C 361.5 452.2 363.1 448.6 364.8 445.1 C 366.4 441.6 368.3 438.2 370.3 434.8 C 372.3 431.5 374.5 428.3 376.7 425.2 C 379 422 381.3 418.9 383.8 415.9 C 386.3 413 388.9 410.1 391.5 407.3 C 394.2 404.5 396.9 401.8 399.7 399.2 C 402.5 396.6 405.3 394.1 408.2 391.7 C 411 389.2 414 386.9 416.9 384.7 C 419.9 382.4 422.8 380.3 425.9 378.3 C 428.9 376.3 431.9 374.4 435 372.7 C 438.1 371 441.3 369.4 444.5 368 C 447.7 366.6 450.9 365.4 454.2 364.3 C 457.5 363.3 461 362.4 464.4 361.7 C 467.8 360.9 471.3 360.3 474.8 359.8 C 478.4 359.2 481.9 358.8 485.5 358.4 C 489.1 358.1 492.7 357.8 496.4 357.5 C 500 357.3 503.7 357.1 507.4 357 C 511.1 356.8 514.9 356.7 518.7 356.6 C 522.4 356.5 526.2 356.4 530 356.4 C 533.9 356.3 537.7 356.3 541.6 356.3 C 545.4 356.3 549.3 356.3 553.2 356.3 C 557.1 356.3 561 356.4 564.9 356.4 C 568.8 356.4 572.7 356.5 576.7 356.5 C 580.6 356.5 584.5 356.6 588.5 356.6 C 592.4 356.7 596.3 356.8 600.3 356.8 C 604.2 356.9 608.2 357 612.1 357.1 C 616 357.1 620 357.2 623.9 357.3 C 627.8 357.4 631.8 357.5 635.7 357.6 C 639.6 357.7 643.5 357.8 647.4 358 C 651.3 358.1 655.2 358.2 659.1 358.4 C 662.9 358.5 666.8 358.7 670.6 358.9 C 674.5 359.1 678.3 359.3 682.1 359.5 C 685.8 359.8 689.6 360 693.3 360.4 C 697 360.7 700.7 361 704.4 361.5 C 708 361.9 711.7 362.4 715.2 363 C 718.8 363.6 722.2 364.3 725.7 365.1 C 729.2 365.9 732.7 366.8 736.2 367.7 C 739.7 368.7 743.4 369.6 746.9 370.8 C 750.4 371.9 753.8 373.3 757.1 374.8 C 760.5 376.4 763.7 378.1 766.8 380.1 C 769.8 382.1 772.8 384.4 775.6 386.8 C 778.4 389.3 781.1 392 783.6 394.9 C 786.1 397.7 788.5 400.8 790.7 404 C 792.9 407.2 795 410.5 797 413.9 C 799 417.3 800.8 420.9 802.6 424.4 C 804.4 427.8 806.1 431.4 807.9 434.9 C 809.6 438.4 811.4 441.8 813.3 445.2 C 815.1 448.7 816.9 452.1 818.7 455.4 C 820.6 458.8 822.4 462.2 824.3 465.6 C 826.1 469 828 472.3 829.8 475.8 C 831.7 479.2 833.5 482.6 835.2 486 C 837 489.5 838.7 493 840.3 496.6 C 842 500.1 843.5 503.7 845 507.3 C 846.4 511 847.8 514.6 849 518.4 C 850.2 522.1 851.3 525.9 852.3 529.7 C 853.2 533.5 854 537.3 854.7 541.2 C 855.3 545 855.8 548.9 856.2 552.8 C 856.5 556.7 856.7 560.7 856.8 564.6 C 856.9 568.5 856.8 572.4 856.7 576.3 C 856.5 580.2 856.2 584.1 855.8 588 Z" fill="none" stroke="#FF7E9B" stroke-opacity="0.36" stroke-width="1.80" stroke-dasharray="6 10"/>
    <line x1="83.3" y1="303.3" x2="1103.9" y2="320" stroke="#FF7E9B" stroke-opacity="0.090" stroke-width="1.3"/>
    <line x1="193.8" y1="273.1" x2="994.5" y2="286.2" stroke="#FF7E9B" stroke-opacity="0.063" stroke-width="1.3"/>
    <line x1="304.4" y1="238.9" x2="885.1" y2="248.4" stroke="#FF7E9B" stroke-opacity="0.036" stroke-width="1.3"/>
    <line x1="-306.8" y1="327" x2="1493" y2="356.3" stroke="#E9F5EF" stroke-opacity="0.5" stroke-width="2"/>
    <line x1="-106.8" y1="330.2" x2="-106.6" y2="321.2" stroke="#E9F5EF" stroke-opacity="0.22" stroke-width="1.4"/>
    <line x1="-6.8" y1="331.9" x2="-6.7" y2="322.9" stroke="#E9F5EF" stroke-opacity="0.22" stroke-width="1.4"/>
    <line x1="93.2" y1="333.5" x2="93.3" y2="324.5" stroke="#E9F5EF" stroke-opacity="0.22" stroke-width="1.4"/>
    <line x1="193.2" y1="335.1" x2="193.3" y2="326.1" stroke="#E9F5EF" stroke-opacity="0.22" stroke-width="1.4"/>
    <line x1="293.2" y1="336.8" x2="293.3" y2="327.8" stroke="#E9F5EF" stroke-opacity="0.22" stroke-width="1.4"/>
    <line x1="393.1" y1="338.4" x2="393.3" y2="329.4" stroke="#E9F5EF" stroke-opacity="0.22" stroke-width="1.4"/>
    <line x1="493.1" y1="340" x2="493.3" y2="331" stroke="#E9F5EF" stroke-opacity="0.22" stroke-width="1.4"/>
    <line x1="593.1" y1="341.6" x2="593.3" y2="332.6" stroke="#E9F5EF" stroke-opacity="0.22" stroke-width="1.4"/>
    <line x1="693.1" y1="343.3" x2="693.3" y2="334.3" stroke="#E9F5EF" stroke-opacity="0.22" stroke-width="1.4"/>
    <line x1="793.1" y1="344.9" x2="793.2" y2="335.9" stroke="#E9F5EF" stroke-opacity="0.22" stroke-width="1.4"/>
    <line x1="893.1" y1="346.5" x2="893.2" y2="337.5" stroke="#E9F5EF" stroke-opacity="0.22" stroke-width="1.4"/>
    <line x1="993.1" y1="348.2" x2="993.2" y2="339.2" stroke="#E9F5EF" stroke-opacity="0.22" stroke-width="1.4"/>
    <line x1="1093.1" y1="349.8" x2="1093.2" y2="340.8" stroke="#E9F5EF" stroke-opacity="0.22" stroke-width="1.4"/>
    <line x1="1193" y1="351.4" x2="1193.2" y2="342.4" stroke="#E9F5EF" stroke-opacity="0.22" stroke-width="1.4"/>
    <line x1="1293" y1="353" x2="1293.2" y2="344.1" stroke="#E9F5EF" stroke-opacity="0.22" stroke-width="1.4"/>
    
    <line x1="438.8" y1="339.1" x2="752.1" y2="344.2" stroke="#FFD9E2" stroke-opacity="0.55" stroke-width="2.6"/>
    <circle cx="589.1" cy="588" r="10" fill="none" stroke="#FF7E9B" stroke-width="2.2"/>
    
    <circle cx="591.7" cy="431.3" r="6" fill="#E9F5EF"/>
    <circle cx="591.7" cy="431.3" r="12" fill="none" stroke="#E9F5EF" stroke-opacity="0.4" stroke-width="1.3"/>
  </g><!--/GEOM-->
  <g font-family="ui-monospace, 'Cascadia Mono', Menlo, Consolas, monospace" font-size="19" letter-spacing="2.5">
    <text x="72" y="1150" fill="#7E9A8F" fill-opacity="0.85">HWA 021/333 · SCALP</text>
    <text x="1128" y="1150" text-anchor="end" fill="#FF7E9B" fill-opacity="0.62">SHORT 8X · -60.2% · SIM</text>
  </g>
</svg>
