<?xml version="1.0" encoding="UTF-8"?>
<svg xmlns="http://www.w3.org/2000/svg" viewBox="0 0 1200 1200" role="img" aria-labelledby="hwa-269-t">
  <title id="hwa-269-t">HWA Genesis 269 — simulated long pressure field</title>
  <defs>
    <radialGradient id="hwa-L-bg" cx="50%" cy="44%" r="78%">
      <stop offset="0" stop-color="#0A2B21"/>
      <stop offset="0.55" stop-color="#061A14"/>
      <stop offset="1" stop-color="#030C09"/>
    </radialGradient>
    <radialGradient id="hwa-L-core" cx="50%" cy="50%" r="50%">
      <stop offset="0" stop-color="#6FEFC6" stop-opacity="0.16"/>
      <stop offset="1" stop-color="#6FEFC6" stop-opacity="0"/>
    </radialGradient>
  </defs>
  <rect width="1200" height="1200" fill="url(#hwa-L-bg)"/>
  <!--GEOM--><g>
    <circle cx="600" cy="612" r="184.5" fill="url(#hwa-L-core)"/>
    
    <path d="M 661.9 612 C 661.9 612.9 662 613.8 662 614.7 C 662 615.6 662 616.5 662 617.4 C 662 618.3 662 619.2 662 620.1 C 662 621.1 662 622 662 622.9 C 661.9 623.8 661.9 624.8 661.8 625.7 C 661.7 626.6 661.6 627.5 661.5 628.4 C 661.3 629.4 661.2 630.3 661 631.2 C 660.8 632.1 660.6 633 660.3 633.9 C 660 634.8 659.8 635.7 659.4 636.6 C 659.1 637.5 658.8 638.3 658.4 639.2 C 658 640.1 657.6 640.9 657.2 641.8 C 656.8 642.6 656.4 643.4 655.9 644.2 C 655.4 645.1 655 645.9 654.5 646.7 C 654 647.5 653.5 648.3 653 649 C 652.5 649.8 651.9 650.6 651.4 651.4 C 650.8 652.2 650.3 652.9 649.7 653.7 C 649.2 654.4 648.6 655.2 648 655.9 C 647.4 656.7 646.8 657.4 646.2 658.2 C 645.6 658.9 645 659.6 644.3 660.3 C 643.7 661 643 661.7 642.3 662.3 C 641.6 663 640.9 663.6 640.1 664.2 C 639.4 664.8 638.6 665.4 637.8 665.9 C 637 666.4 636.2 666.9 635.3 667.4 C 634.5 667.8 633.6 668.2 632.7 668.6 C 631.8 668.9 630.9 669.2 630 669.5 C 629.1 669.7 628.1 670 627.2 670.1 C 626.2 670.3 625.2 670.4 624.3 670.5 C 623.3 670.5 622.3 670.6 621.4 670.6 C 620.4 670.6 619.4 670.5 618.5 670.5 C 617.5 670.4 616.6 670.3 615.6 670.2 C 614.7 670.1 613.8 670 612.9 669.9 C 612 669.8 611.1 669.7 610.2 669.6 C 609.3 669.5 608.4 669.4 607.6 669.3 C 606.7 669.2 605.9 669.1 605 669.1 C 604.2 669 603.4 669 602.5 669 C 601.7 669 600.9 669 600 669 C 599.2 669 598.4 669.1 597.5 669.1 C 596.7 669.2 595.9 669.3 595 669.3 C 594.2 669.4 593.3 669.4 592.5 669.5 C 591.6 669.5 590.7 669.6 589.9 669.6 C 589 669.6 588.1 669.7 587.3 669.6 C 586.4 669.6 585.5 669.6 584.6 669.5 C 583.8 669.4 582.9 669.3 582 669.1 C 581.2 668.9 580.3 668.7 579.5 668.5 C 578.6 668.3 577.8 668 577 667.6 C 576.2 667.3 575.4 667 574.6 666.6 C 573.8 666.2 573 665.7 572.3 665.3 C 571.6 664.8 570.8 664.3 570.1 663.8 C 569.4 663.3 568.7 662.8 568 662.2 C 567.4 661.7 566.7 661.1 566.1 660.5 C 565.4 659.9 564.8 659.4 564.1 658.8 C 563.5 658.2 562.9 657.6 562.3 657 C 561.7 656.4 561 655.8 560.4 655.2 C 559.8 654.6 559.2 654 558.6 653.4 C 558 652.8 557.4 652.2 556.8 651.6 C 556.2 651 555.7 650.3 555.1 649.7 C 554.5 649.1 553.9 648.5 553.3 647.8 C 552.8 647.2 552.2 646.5 551.7 645.8 C 551.1 645.2 550.6 644.5 550.1 643.8 C 549.6 643.1 549.1 642.4 548.6 641.7 C 548.1 641 547.7 640.2 547.3 639.5 C 546.8 638.7 546.4 638 546 637.2 C 545.6 636.4 545.3 635.6 544.9 634.8 C 544.6 634 544.2 633.2 543.9 632.4 C 543.6 631.6 543.3 630.8 543 630 C 542.7 629.2 542.4 628.3 542.1 627.5 C 541.9 626.7 541.6 625.8 541.3 625 C 541 624.2 540.7 623.3 540.5 622.5 C 540.2 621.6 539.9 620.8 539.6 619.9 C 539.3 619.1 539 618.2 538.7 617.3 C 538.4 616.5 538.1 615.6 537.8 614.7 C 537.6 613.8 537.3 612.9 537 612 C 536.7 611.1 536.4 610.1 536.2 609.2 C 535.9 608.3 535.7 607.3 535.5 606.3 C 535.3 605.4 535.1 604.4 534.9 603.4 C 534.8 602.4 534.7 601.4 534.6 600.5 C 534.6 599.5 534.6 598.5 534.6 597.5 C 534.7 596.5 534.8 595.5 535 594.5 C 535.1 593.6 535.3 592.6 535.6 591.7 C 535.9 590.7 536.2 589.8 536.6 588.9 C 537 588 537.5 587.1 538 586.3 C 538.5 585.4 539 584.6 539.6 583.8 C 540.2 583 540.8 582.2 541.5 581.5 C 542.1 580.8 542.8 580 543.5 579.3 C 544.2 578.7 544.9 578 545.7 577.3 C 546.4 576.7 547.1 576.1 547.8 575.4 C 548.6 574.8 549.3 574.2 550 573.6 C 550.7 573 551.5 572.4 552.2 571.8 C 552.9 571.2 553.6 570.6 554.2 570 C 554.9 569.4 555.6 568.8 556.3 568.2 C 556.9 567.6 557.6 567 558.3 566.4 C 558.9 565.8 559.6 565.2 560.2 564.6 C 560.9 563.9 561.6 563.3 562.2 562.7 C 562.9 562.1 563.6 561.5 564.3 560.9 C 565 560.3 565.7 559.8 566.4 559.2 C 567.1 558.6 567.9 558.1 568.6 557.6 C 569.4 557.1 570.2 556.6 571 556.1 C 571.8 555.7 572.6 555.2 573.4 554.8 C 574.2 554.4 575.1 554.1 575.9 553.8 C 576.8 553.4 577.7 553.1 578.5 552.9 C 579.4 552.6 580.3 552.4 581.2 552.2 C 582.1 552 583 551.9 583.9 551.7 C 584.8 551.6 585.7 551.5 586.6 551.4 C 587.5 551.3 588.4 551.3 589.3 551.2 C 590.2 551.2 591.1 551.1 592 551.1 C 592.9 551.1 593.8 551.1 594.7 551.1 C 595.6 551.1 596.5 551.2 597.4 551.2 C 598.3 551.2 599.2 551.3 600 551.3 C 600.9 551.4 601.8 551.5 602.7 551.6 C 603.6 551.7 604.4 551.8 605.3 551.9 C 606.2 552 607 552.2 607.9 552.4 C 608.8 552.5 609.6 552.7 610.4 553 C 611.3 553.2 612.1 553.5 613 553.8 C 613.8 554 614.6 554.4 615.4 554.7 C 616.2 555.1 617 555.5 617.7 555.9 C 618.5 556.3 619.3 556.7 620 557.2 C 620.7 557.6 621.4 558.1 622.1 558.6 C 622.8 559.1 623.5 559.6 624.2 560.2 C 624.9 560.7 625.5 561.2 626.2 561.8 C 626.8 562.3 627.5 562.9 628.1 563.4 C 628.7 563.9 629.4 564.4 630 565 C 630.6 565.5 631.3 566 631.9 566.5 C 632.6 567 633.2 567.4 633.9 567.9 C 634.5 568.4 635.2 568.8 635.9 569.3 C 636.6 569.7 637.3 570.1 638 570.5 C 638.8 571 639.5 571.4 640.3 571.8 C 641 572.2 641.8 572.6 642.6 573 C 643.3 573.4 644.1 573.9 644.9 574.3 C 645.7 574.8 646.5 575.2 647.3 575.7 C 648.1 576.2 648.9 576.7 649.6 577.3 C 650.4 577.8 651.2 578.4 651.9 579 C 652.6 579.6 653.3 580.2 653.9 580.9 C 654.6 581.5 655.2 582.2 655.8 583 C 656.4 583.7 656.9 584.5 657.4 585.3 C 657.9 586 658.3 586.9 658.7 587.7 C 659.1 588.5 659.4 589.4 659.7 590.3 C 660 591.1 660.3 592 660.5 592.9 C 660.7 593.8 660.9 594.7 661 595.6 C 661.2 596.6 661.3 597.5 661.4 598.4 C 661.5 599.3 661.5 600.2 661.6 601.1 C 661.6 602 661.7 603 661.7 603.9 C 661.7 604.8 661.8 605.7 661.8 606.6 C 661.8 607.5 661.8 608.4 661.8 609.3 C 661.9 610.2 661.9 611.1 661.9 612 Z" fill="none" stroke="#6FEFC6" stroke-opacity="0.70" stroke-width="3.08"/>
    <path d="M 719.4 612 C 719.4 613.7 719.5 615.5 719.5 617.2 C 719.5 618.9 719.5 620.7 719.5 622.4 C 719.5 624.2 719.4 625.9 719.4 627.7 C 719.3 629.5 719.3 631.2 719.2 633 C 719 634.8 718.9 636.5 718.7 638.3 C 718.5 640.1 718.2 641.8 717.9 643.6 C 717.6 645.3 717.2 647.1 716.8 648.8 C 716.4 650.5 715.9 652.2 715.3 653.9 C 714.8 655.6 714.2 657.3 713.5 659 C 712.8 660.6 712.1 662.3 711.3 663.9 C 710.5 665.5 709.7 667.1 708.8 668.6 C 708 670.2 707.1 671.7 706.2 673.3 C 705.2 674.8 704.3 676.3 703.3 677.8 C 702.4 679.3 701.4 680.8 700.4 682.2 C 699.4 683.7 698.4 685.2 697.4 686.7 C 696.3 688.1 695.3 689.6 694.3 691 C 693.2 692.5 692.2 693.9 691.1 695.4 C 690 696.8 688.9 698.3 687.8 699.7 C 686.6 701.1 685.5 702.5 684.3 703.9 C 683 705.2 681.8 706.6 680.5 707.9 C 679.2 709.2 677.9 710.4 676.5 711.6 C 675.1 712.8 673.6 713.9 672.1 714.9 C 670.6 715.9 669 716.9 667.4 717.7 C 665.8 718.6 664.1 719.3 662.4 720 C 660.7 720.6 658.9 721.1 657.1 721.6 C 655.3 722 653.4 722.3 651.6 722.5 C 649.7 722.7 647.8 722.8 646 722.8 C 644.1 722.8 642.2 722.7 640.3 722.5 C 638.4 722.4 636.5 722.1 634.7 721.8 C 632.8 721.5 631 721.1 629.2 720.8 C 627.4 720.4 625.6 720 623.9 719.6 C 622.2 719.2 620.5 718.8 618.8 718.4 C 617.1 718 615.5 717.7 613.9 717.4 C 612.3 717.1 610.8 716.8 609.2 716.6 C 607.6 716.4 606.1 716.3 604.6 716.2 C 603.1 716.1 601.6 716.1 600 716.1 C 598.5 716.1 597 716.2 595.5 716.3 C 594 716.5 592.4 716.6 590.9 716.8 C 589.3 717 587.8 717.2 586.2 717.4 C 584.6 717.5 583 717.7 581.4 717.9 C 579.8 718 578.1 718.2 576.5 718.2 C 574.8 718.3 573.2 718.3 571.6 718.3 C 569.9 718.3 568.3 718.1 566.6 718 C 565 717.8 563.4 717.5 561.8 717.1 C 560.2 716.8 558.6 716.3 557 715.8 C 555.5 715.3 553.9 714.7 552.4 714 C 551 713.4 549.5 712.6 548.1 711.8 C 546.6 711 545.2 710.2 543.9 709.2 C 542.5 708.3 541.2 707.4 539.9 706.4 C 538.6 705.4 537.3 704.4 536.1 703.4 C 534.8 702.3 533.6 701.3 532.3 700.2 C 531.1 699.1 529.9 698.1 528.7 697 C 527.5 695.9 526.3 694.8 525.1 693.8 C 523.9 692.7 522.7 691.6 521.5 690.5 C 520.4 689.4 519.2 688.3 518 687.2 C 516.8 686.1 515.6 684.9 514.5 683.8 C 513.3 682.6 512.2 681.5 511.1 680.3 C 509.9 679.1 508.8 677.8 507.8 676.6 C 506.7 675.3 505.7 674.1 504.7 672.7 C 503.7 671.4 502.7 670.1 501.8 668.7 C 500.9 667.3 500.1 665.9 499.3 664.4 C 498.5 663 497.7 661.5 497 660 C 496.3 658.6 495.6 657 495 655.5 C 494.4 654 493.8 652.4 493.2 650.9 C 492.7 649.3 492.1 647.7 491.6 646.2 C 491.1 644.6 490.6 643 490.1 641.4 C 489.6 639.9 489.1 638.3 488.6 636.7 C 488.1 635.1 487.6 633.5 487 631.9 C 486.5 630.3 485.9 628.7 485.3 627.1 C 484.7 625.5 484.1 623.8 483.5 622.2 C 482.8 620.5 482.2 618.9 481.5 617.2 C 480.8 615.5 480.2 613.7 479.5 612 C 478.8 610.2 478.2 608.4 477.5 606.6 C 476.9 604.8 476.3 603 475.8 601.1 C 475.2 599.2 474.7 597.3 474.3 595.4 C 473.9 593.5 473.6 591.6 473.4 589.6 C 473.1 587.7 473 585.8 473 583.8 C 473 581.9 473.2 580 473.4 578.1 C 473.7 576.2 474.1 574.3 474.6 572.4 C 475.1 570.6 475.8 568.8 476.6 567 C 477.3 565.3 478.3 563.6 479.3 562 C 480.3 560.3 481.4 558.8 482.7 557.2 C 483.9 555.7 485.2 554.3 486.6 552.9 C 487.9 551.5 489.4 550.2 490.9 548.9 C 492.3 547.7 493.9 546.5 495.4 545.3 C 496.9 544.1 498.5 543 500 541.9 C 501.5 540.8 503.1 539.8 504.6 538.7 C 506.1 537.7 507.6 536.7 509 535.6 C 510.5 534.6 511.9 533.6 513.3 532.5 C 514.7 531.5 516.1 530.4 517.4 529.4 C 518.8 528.3 520.1 527.3 521.4 526.2 C 522.7 525.1 524 524 525.3 522.9 C 526.6 521.8 527.9 520.7 529.2 519.6 C 530.5 518.5 531.8 517.4 533.1 516.4 C 534.4 515.3 535.7 514.2 537.1 513.2 C 538.5 512.2 539.9 511.2 541.3 510.3 C 542.7 509.3 544.2 508.4 545.7 507.6 C 547.2 506.8 548.7 506 550.3 505.3 C 551.8 504.6 553.4 503.9 555 503.4 C 556.7 502.8 558.3 502.3 559.9 501.8 C 561.6 501.4 563.3 501 564.9 500.7 C 566.6 500.3 568.3 500.1 570 499.8 C 571.7 499.6 573.4 499.4 575.1 499.3 C 576.7 499.1 578.4 499 580.1 498.9 C 581.8 498.8 583.5 498.8 585.1 498.7 C 586.8 498.7 588.5 498.7 590.1 498.7 C 591.8 498.6 593.4 498.6 595.1 498.7 C 596.7 498.7 598.4 498.7 600 498.8 C 601.7 498.8 603.3 498.9 605 499 C 606.6 499.1 608.3 499.3 609.9 499.5 C 611.5 499.7 613.1 499.9 614.8 500.2 C 616.4 500.5 618 500.8 619.6 501.2 C 621.2 501.6 622.7 502.1 624.3 502.6 C 625.8 503.2 627.4 503.8 628.9 504.5 C 630.3 505.2 631.8 505.9 633.2 506.7 C 634.7 507.5 636 508.4 637.4 509.4 C 638.7 510.3 640.1 511.3 641.3 512.3 C 642.6 513.3 643.8 514.4 645 515.5 C 646.2 516.6 647.4 517.7 648.6 518.8 C 649.7 519.8 650.9 521 652 522 C 653.1 523.1 654.2 524.1 655.4 525.2 C 656.5 526.2 657.6 527.1 658.8 528.1 C 660 529 661.1 529.9 662.4 530.8 C 663.6 531.6 664.8 532.4 666.2 533.2 C 667.5 534 668.8 534.7 670.2 535.4 C 671.6 536.1 673.1 536.8 674.6 537.4 C 676.1 538.1 677.6 538.8 679.2 539.4 C 680.8 540.1 682.4 540.8 684.1 541.5 C 685.7 542.2 687.4 542.9 689 543.7 C 690.6 544.5 692.3 545.4 693.9 546.3 C 695.5 547.2 697.1 548.1 698.6 549.2 C 700.2 550.2 701.7 551.3 703 552.5 C 704.4 553.7 705.8 555 707 556.3 C 708.2 557.6 709.4 559 710.4 560.5 C 711.5 562 712.4 563.5 713.3 565.1 C 714.1 566.7 714.8 568.3 715.4 570 C 716.1 571.6 716.6 573.4 717.1 575.1 C 717.5 576.8 717.9 578.6 718.1 580.3 C 718.4 582.1 718.6 583.9 718.8 585.7 C 719 587.4 719.1 589.2 719.2 591 C 719.3 592.8 719.3 594.5 719.3 596.3 C 719.4 598 719.4 599.8 719.4 601.5 C 719.4 603.3 719.4 605 719.4 606.8 C 719.4 608.5 719.4 610.2 719.4 612 Z" fill="none" stroke="#6FEFC6" stroke-opacity="0.61" stroke-width="2.76"/>
    <path d="M 777.8 612 C 777.7 614.6 777.7 617.2 777.6 619.7 C 777.5 622.3 777.5 624.9 777.4 627.5 C 777.3 630.1 777.2 632.7 777 635.3 C 776.8 637.9 776.7 640.5 776.4 643.1 C 776.1 645.7 775.8 648.3 775.3 650.8 C 774.9 653.4 774.4 656 773.8 658.5 C 773.2 661.1 772.5 663.6 771.7 666.1 C 770.9 668.6 770 671.1 769.1 673.5 C 768.1 675.9 767 678.3 765.9 680.7 C 764.7 683 763.5 685.3 762.2 687.6 C 760.9 689.9 759.5 692.1 758.1 694.3 C 756.8 696.5 755.3 698.6 753.9 700.8 C 752.4 702.9 750.9 705 749.4 707.1 C 747.9 709.2 746.4 711.3 744.9 713.4 C 743.4 715.5 741.9 717.6 740.5 719.7 C 739 721.8 737.5 723.9 736 726 C 734.5 728.1 733 730.3 731.5 732.4 C 729.9 734.5 728.4 736.6 726.8 738.7 C 725.3 740.8 723.7 742.9 722 745 C 720.3 747 718.6 749 716.8 751 C 715 752.9 713.1 754.8 711.1 756.6 C 709.2 758.3 707.2 760.1 705 761.5 C 702.7 763 700.3 764.2 697.9 765.3 C 695.5 766.4 692.9 767.3 690.4 768.1 C 687.8 768.9 685.2 769.5 682.5 770 C 679.8 770.5 677.1 770.8 674.4 771 C 671.7 771.3 669 771.4 666.2 771.4 C 663.5 771.4 660.8 771.3 658.1 771.1 C 655.4 770.9 652.7 770.6 650.1 770.3 C 647.4 770 644.8 769.6 642.3 769.3 C 639.7 768.9 637.2 768.5 634.7 768.1 C 632.2 767.7 629.8 767.3 627.4 766.9 C 625 766.5 622.6 766.2 620.3 765.8 C 618 765.5 615.7 765.2 613.4 765 C 611.2 764.8 608.9 764.6 606.7 764.5 C 604.5 764.3 602.3 764.3 600 764.2 C 597.8 764.2 595.6 764.2 593.4 764.2 C 591.1 764.3 588.9 764.3 586.7 764.4 C 584.4 764.5 582.2 764.6 579.9 764.7 C 577.6 764.8 575.3 764.9 573 764.9 C 570.7 765 568.4 765 566.1 765 C 563.7 765 561.4 764.9 559 764.8 C 556.7 764.6 554.3 764.4 552 764.1 C 549.7 763.8 547.3 763.4 545 762.9 C 542.7 762.4 540.5 761.8 538.2 761.1 C 536 760.4 533.8 759.5 531.6 758.6 C 529.4 757.7 527.3 756.6 525.2 755.6 C 523.2 754.5 521.1 753.4 519 752.2 C 517 751 515 749.8 513.1 748.5 C 511.1 747.2 509.2 745.8 507.3 744.4 C 505.4 743.1 503.5 741.6 501.6 740.2 C 499.7 738.8 497.9 737.4 496 735.9 C 494.2 734.5 492.3 733 490.5 731.5 C 488.6 730.1 486.8 728.6 484.9 727.1 C 483.1 725.6 481.2 724.1 479.4 722.5 C 477.6 721 475.7 719.4 474 717.8 C 472.2 716.2 470.4 714.5 468.7 712.8 C 466.9 711.1 465.2 709.3 463.6 707.5 C 462 705.7 460.4 703.8 458.9 701.9 C 457.4 699.9 456 697.9 454.7 695.9 C 453.4 693.8 452.1 691.7 451 689.6 C 449.8 687.4 448.8 685.2 447.8 683 C 446.8 680.7 446 678.4 445.1 676.1 C 444.3 673.9 443.6 671.5 442.9 669.2 C 442.2 666.9 441.5 664.5 440.9 662.2 C 440.2 659.8 439.6 657.5 439 655.1 C 438.4 652.8 437.8 650.4 437.1 648.1 C 436.4 645.8 435.7 643.4 435 641.1 C 434.2 638.7 433.4 636.4 432.6 634 C 431.7 631.7 430.8 629.3 429.8 626.9 C 428.8 624.5 427.8 622 426.7 619.6 C 425.6 617.1 424.5 614.6 423.4 612 C 422.3 609.4 421.1 606.8 420 604.1 C 418.9 601.5 417.9 598.7 416.9 596 C 415.9 593.2 415 590.4 414.2 587.5 C 413.4 584.7 412.7 581.8 412.3 578.9 C 411.8 576 411.4 573 411.3 570.1 C 411.2 567.2 411.3 564.3 411.6 561.5 C 411.9 558.6 412.4 555.8 413.1 553 C 413.8 550.3 414.8 547.6 416 545 C 417.2 542.4 418.6 539.9 420.1 537.5 C 421.7 535.1 423.5 532.8 425.4 530.6 C 427.3 528.4 429.4 526.3 431.6 524.3 C 433.8 522.3 436.1 520.5 438.5 518.7 C 440.8 516.9 443.3 515.3 445.7 513.7 C 448.2 512.1 450.7 510.6 453.1 509.1 C 455.6 507.7 458.1 506.3 460.5 504.9 C 462.9 503.5 465.2 502.2 467.6 500.8 C 469.9 499.5 472.1 498.1 474.3 496.8 C 476.5 495.4 478.7 494.1 480.7 492.7 C 482.8 491.3 484.9 489.9 486.9 488.5 C 488.9 487 490.8 485.6 492.8 484.1 C 494.7 482.7 496.6 481.2 498.6 479.7 C 500.5 478.3 502.4 476.8 504.4 475.3 C 506.3 473.9 508.3 472.4 510.3 471.1 C 512.3 469.7 514.3 468.3 516.4 467.1 C 518.5 465.8 520.6 464.6 522.7 463.5 C 524.9 462.4 527.1 461.4 529.4 460.4 C 531.6 459.5 533.9 458.6 536.2 457.9 C 538.5 457.1 540.9 456.4 543.2 455.8 C 545.6 455.3 548 454.8 550.3 454.3 C 552.7 453.9 555.1 453.6 557.5 453.2 C 559.9 452.9 562.3 452.7 564.7 452.5 C 567.1 452.2 569.4 452.1 571.8 451.9 C 574.2 451.7 576.5 451.6 578.9 451.4 C 581.3 451.3 583.6 451.2 586 451 C 588.3 450.9 590.7 450.8 593 450.7 C 595.3 450.6 597.7 450.5 600 450.4 C 602.4 450.3 604.7 450.3 607.1 450.3 C 609.5 450.3 611.8 450.3 614.2 450.4 C 616.5 450.5 618.9 450.7 621.2 451 C 623.6 451.3 625.9 451.6 628.2 452.1 C 630.5 452.6 632.8 453.2 635.1 453.9 C 637.3 454.7 639.6 455.5 641.7 456.5 C 643.9 457.4 646 458.5 648 459.8 C 650.1 461 652.1 462.3 654 463.7 C 655.9 465.1 657.8 466.7 659.6 468.2 C 661.4 469.8 663.1 471.5 664.8 473.1 C 666.5 474.8 668.1 476.5 669.7 478.2 C 671.3 479.9 672.8 481.6 674.3 483.3 C 675.9 484.9 677.4 486.6 679 488.1 C 680.5 489.6 682.1 491.1 683.7 492.5 C 685.3 493.9 687 495.2 688.7 496.5 C 690.4 497.7 692.2 498.8 694.1 499.9 C 696 500.9 698 501.9 700.1 502.8 C 702.1 503.8 704.3 504.6 706.6 505.4 C 708.9 506.3 711.2 507.1 713.7 507.9 C 716.1 508.7 718.6 509.5 721.2 510.4 C 723.7 511.2 726.3 512.1 728.9 513.1 C 731.5 514.1 734.2 515.1 736.8 516.3 C 739.3 517.4 741.9 518.7 744.4 520 C 746.9 521.4 749.3 522.9 751.6 524.5 C 753.8 526.1 756 527.9 758 529.7 C 760 531.6 761.9 533.6 763.6 535.7 C 765.4 537.8 766.9 540 768.3 542.3 C 769.7 544.6 770.9 547 771.9 549.4 C 773 551.9 773.8 554.4 774.5 557 C 775.3 559.5 775.8 562.1 776.3 564.8 C 776.8 567.4 777.1 570 777.4 572.7 C 777.6 575.3 777.8 578 777.9 580.6 C 778 583.3 778 585.9 778 588.6 C 778.1 591.2 778 593.8 778 596.4 C 778 599 777.9 601.6 777.9 604.2 C 777.9 606.8 777.8 609.4 777.8 612 Z" fill="none" stroke="#6FEFC6" stroke-opacity="0.53" stroke-width="2.44"/>
    <path d="M 838.1 612 C 838 615.4 837.8 618.9 837.6 622.4 C 837.5 625.8 837.3 629.3 837 632.7 C 836.7 636.2 836.4 639.6 836 643.1 C 835.6 646.5 835.2 649.9 834.6 653.3 C 834.1 656.8 833.4 660.2 832.6 663.5 C 831.8 666.9 830.9 670.3 829.8 673.6 C 828.8 676.9 827.6 680.1 826.3 683.3 C 825 686.5 823.5 689.7 821.9 692.7 C 820.3 695.8 818.6 698.8 816.8 701.8 C 815 704.7 813.1 707.6 811.1 710.4 C 809.2 713.2 807.1 716 805 718.7 C 803 721.4 800.8 724 798.7 726.7 C 796.6 729.3 794.5 731.9 792.4 734.5 C 790.3 737.1 788.2 739.7 786.2 742.3 C 784.1 744.9 782.1 747.5 780.2 750.1 C 778.2 752.7 776.3 755.4 774.3 758.1 C 772.4 760.7 770.3 763.3 768.3 765.9 C 766.2 768.5 764.1 771 761.9 773.5 C 759.8 775.9 757.6 778.4 755.2 780.7 C 752.9 783 750.5 785.3 748 787.4 C 745.5 789.5 743 791.4 740.3 793.3 C 737.6 795.1 734.8 796.8 731.9 798.3 C 729 799.8 726 801.2 723 802.4 C 720 803.7 716.9 804.8 713.7 805.8 C 710.6 806.8 707.4 807.6 704.2 808.4 C 701 809.2 697.7 809.8 694.5 810.5 C 691.2 811.1 688 811.6 684.7 812.1 C 681.5 812.6 678.2 813.1 675 813.5 C 671.8 813.9 668.6 814.3 665.4 814.7 C 662.2 815 659 815.4 655.9 815.7 C 652.7 816.1 649.5 816.4 646.4 816.7 C 643.3 816.9 640.1 817.2 637 817.5 C 633.9 817.7 630.8 818 627.6 818.1 C 624.5 818.3 621.4 818.5 618.3 818.7 C 615.2 818.8 612.1 818.9 609 819 C 605.9 819 602.8 819.1 599.7 819.1 C 596.6 819 593.5 819 590.4 818.9 C 587.4 818.8 584.3 818.7 581.2 818.5 C 578.2 818.4 575.1 818.2 572 817.9 C 569 817.7 565.9 817.4 562.9 817 C 559.9 816.7 556.8 816.3 553.8 815.9 C 550.8 815.5 547.8 815 544.7 814.5 C 541.7 814 538.7 813.4 535.8 812.7 C 532.8 812.1 529.8 811.3 526.9 810.5 C 523.9 809.7 521 808.8 518.1 807.8 C 515.2 806.9 512.3 805.8 509.5 804.6 C 506.7 803.4 503.9 802.2 501.2 800.8 C 498.4 799.5 495.7 798 493.1 796.5 C 490.4 794.9 487.8 793.3 485.3 791.6 C 482.7 789.9 480.2 788.2 477.7 786.4 C 475.1 784.6 472.7 782.8 470.2 781 C 467.7 779.1 465.3 777.2 462.8 775.4 C 460.3 773.5 457.9 771.6 455.3 769.8 C 452.8 768 450.1 766.3 447.4 764.5 C 444.8 762.7 442.2 760.9 439.6 759 C 437 757.1 434.4 755.1 431.8 753.1 C 429.3 751.1 426.8 749 424.4 746.8 C 421.9 744.6 419.6 742.3 417.3 739.9 C 415.1 737.5 412.9 735.1 410.9 732.5 C 408.9 729.9 407 727.2 405.2 724.5 C 403.5 721.7 401.9 718.8 400.4 715.9 C 399 713 397.7 709.9 396.5 706.9 C 395.4 703.8 394.4 700.7 393.5 697.6 C 392.5 694.4 391.8 691.2 391.1 688 C 390.3 684.9 389.7 681.7 389.1 678.5 C 388.5 675.3 387.9 672.1 387.3 669 C 386.7 665.8 386.1 662.7 385.4 659.6 C 384.8 656.4 384 653.3 383.2 650.2 C 382.4 647.1 381.4 644 380.4 640.9 C 379.3 637.8 378.2 634.7 376.9 631.5 C 375.7 628.3 374.3 625.2 372.8 621.9 C 371.4 618.7 369.8 615.4 368.2 612 C 366.7 608.6 365 605.2 363.4 601.7 C 361.8 598.1 360.2 594.5 358.8 590.9 C 357.3 587.2 355.8 583.5 354.6 579.7 C 353.4 575.9 352.3 572 351.5 568.2 C 350.6 564.3 350 560.4 349.7 556.5 C 349.4 552.6 349.3 548.7 349.6 544.9 C 349.8 541.1 350.4 537.2 351.3 533.6 C 352.3 529.9 353.5 526.3 355.1 522.8 C 356.6 519.4 358.5 516 360.7 512.8 C 362.8 509.7 365.3 506.6 368 503.8 C 370.6 500.9 373.6 498.2 376.6 495.7 C 379.7 493.2 383 490.8 386.3 488.6 C 389.6 486.4 393.1 484.3 396.6 482.4 C 400 480.4 403.6 478.6 407.1 476.9 C 410.5 475.1 414 473.5 417.4 471.9 C 420.8 470.2 424.2 468.7 427.4 467.2 C 430.7 465.6 433.9 464.1 437 462.5 C 440 461 443 459.5 445.9 457.9 C 448.8 456.3 451.6 454.7 454.4 453 C 457.1 451.4 459.8 449.7 462.4 448 C 465.1 446.3 467.6 444.5 470.2 442.8 C 472.8 441.1 475.4 439.4 478 437.7 C 480.6 436 483.2 434.3 485.8 432.7 C 488.4 431 491.1 429.5 493.8 428 C 496.5 426.5 499.3 425.1 502.1 423.8 C 504.9 422.5 507.7 421.3 510.6 420.3 C 513.5 419.2 516.5 418.2 519.4 417.4 C 522.4 416.5 525.4 415.8 528.4 415.1 C 531.4 414.4 534.4 413.9 537.4 413.4 C 540.4 412.9 543.5 412.5 546.5 412.1 C 549.5 411.7 552.5 411.4 555.5 411.1 C 558.5 410.8 561.5 410.5 564.5 410.2 C 567.4 409.8 570.4 409.5 573.3 409.2 C 576.3 408.9 579.2 408.5 582.2 408.1 C 585.2 407.7 588.1 407.3 591.1 406.9 C 594.1 406.5 597 406.1 600 405.7 C 603 405.4 606.1 405 609.1 404.7 C 612.1 404.4 615.2 404.1 618.2 403.9 C 621.3 403.8 624.4 403.7 627.5 403.8 C 630.5 403.9 633.6 404.1 636.6 404.5 C 639.7 404.9 642.7 405.4 645.7 406.2 C 648.6 407 651.6 407.9 654.4 409.1 C 657.3 410.2 660.1 411.6 662.7 413.2 C 665.4 414.7 668 416.4 670.5 418.3 C 673 420.2 675.4 422.3 677.7 424.4 C 680.1 426.5 682.3 428.8 684.4 431.1 C 686.5 433.4 688.5 435.8 690.5 438.2 C 692.5 440.5 694.4 442.9 696.3 445.2 C 698.3 447.5 700.1 449.8 702 451.9 C 704 454 705.9 456.1 707.9 458 C 709.9 459.8 712 461.6 714.2 463.2 C 716.4 464.9 718.7 466.3 721.1 467.7 C 723.6 469.1 726.1 470.3 728.9 471.4 C 731.6 472.5 734.5 473.5 737.6 474.5 C 740.6 475.4 743.8 476.3 747.1 477.2 C 750.5 478.1 753.9 478.9 757.5 479.9 C 761 480.8 764.7 481.8 768.3 482.9 C 772 484 775.7 485.1 779.3 486.4 C 783 487.8 786.7 489.2 790.2 490.9 C 793.7 492.5 797.2 494.3 800.5 496.3 C 803.7 498.3 806.9 500.4 809.8 502.8 C 812.7 505.1 815.5 507.7 818 510.4 C 820.5 513.1 822.7 515.9 824.7 518.9 C 826.8 521.9 828.5 525 830.1 528.3 C 831.6 531.5 832.9 534.8 834 538.2 C 835 541.6 835.9 545.1 836.6 548.6 C 837.3 552.1 837.7 555.7 838.1 559.2 C 838.5 562.7 838.7 566.3 838.9 569.9 C 839 573.4 839 577 839 580.5 C 839.1 584.1 839 587.6 838.9 591.1 C 838.8 594.6 838.7 598.1 838.6 601.6 C 838.4 605.1 838.3 608.5 838.1 612 Z" fill="none" stroke="#6FEFC6" stroke-opacity="0.44" stroke-width="2.12"/>
    <path d="M 900.9 612 C 900.6 616.4 900.3 620.7 899.9 625.1 C 899.5 629.4 899.1 633.8 898.5 638.1 C 898 642.4 897.4 646.8 896.7 651 C 896 655.3 895.2 659.6 894.2 663.8 C 893.1 668.1 892 672.3 890.7 676.4 C 889.4 680.6 887.9 684.6 886.2 688.6 C 884.5 692.6 882.6 696.6 880.5 700.4 C 878.5 704.2 876.2 708 873.8 711.6 C 871.4 715.2 868.8 718.8 866.1 722.2 C 863.5 725.6 860.6 728.9 857.8 732.2 C 854.9 735.4 852 738.5 849 741.6 C 846.1 744.6 843.1 747.6 840.2 750.6 C 837.3 753.5 834.4 756.4 831.5 759.4 C 828.7 762.3 825.9 765.1 823.2 768 C 820.5 771 817.9 773.9 815.4 776.9 C 812.9 779.9 810.5 782.9 808.1 785.9 C 805.6 788.9 803.2 791.9 800.8 794.8 C 798.3 797.6 795.8 800.5 793.1 803.1 C 790.5 805.8 787.8 808.3 785 810.5 C 782.1 812.8 779.2 814.9 776.1 816.7 C 773 818.6 769.8 820.2 766.5 821.6 C 763.2 823.1 759.6 824.3 756.2 825.4 C 752.8 826.6 749.4 827.6 746 828.6 C 742.5 829.6 739.1 830.4 735.5 831.2 C 732 831.9 728.4 832.6 724.7 833.2 C 721.1 833.7 717.3 834.2 713.6 834.7 C 709.8 835.2 706 835.6 702.2 836 C 698.4 836.4 694.6 836.7 690.7 837.1 C 686.8 837.4 682.9 837.7 679.1 838 C 675.2 838.3 671.3 838.6 667.4 838.9 C 663.5 839.2 659.6 839.4 655.7 839.7 C 651.9 839.9 648 840.2 644.1 840.4 C 640.3 840.6 636.4 840.9 632.6 841.1 C 628.7 841.3 624.9 841.5 621.1 841.7 C 617.2 841.9 613.4 842.2 609.6 842.4 C 605.8 842.6 602 842.8 598.2 843 C 594.4 843.2 590.6 843.3 586.8 843.5 C 583 843.7 579.2 843.9 575.4 844.1 C 571.6 844.2 567.8 844.4 564 844.5 C 560.2 844.7 556.4 844.8 552.6 844.9 C 548.8 845 545.1 845.1 541.3 845.2 C 537.5 845.3 533.7 845.3 530 845.4 C 526.2 845.4 522.5 845.4 518.8 845.3 C 515.1 845.2 511.4 845.1 507.7 844.9 C 504.1 844.7 500.4 844.4 496.9 844.1 C 493.3 843.7 489.7 843.3 486.2 842.7 C 482.6 842.1 479.1 841.5 475.7 840.6 C 472.3 839.7 469.2 838.4 465.9 837.1 C 462.7 835.8 459.5 834.4 456.4 832.8 C 453.2 831.2 450.1 829.4 446.9 827.6 C 443.8 825.8 440.7 823.8 437.5 821.9 C 434.4 819.9 431.3 817.8 428.1 815.8 C 424.9 813.7 421.7 811.6 418.4 809.5 C 415.1 807.4 411.7 805.3 408.3 803.3 C 404.9 801.2 401.4 799.1 397.8 797 C 394.3 794.9 390.5 792.9 387 790.6 C 383.5 788.2 380.2 785.7 377 783.1 C 373.7 780.4 370.5 777.6 367.6 774.7 C 364.6 771.7 361.8 768.6 359.2 765.4 C 356.6 762.1 354.2 758.7 352 755.2 C 349.9 751.6 347.9 747.9 346.2 744.1 C 344.5 740.3 343 736.4 341.8 732.4 C 340.5 728.4 339.5 724.4 338.6 720.3 C 337.7 716.2 337.1 712 336.5 707.9 C 335.9 703.8 335.6 699.6 335.1 695.5 C 334.7 691.4 334.5 687.3 334.1 683.3 C 333.7 679.2 333.3 675.2 332.8 671.2 C 332.3 667.2 331.8 663.3 331.1 659.4 C 330.3 655.5 329.5 651.6 328.4 647.7 C 327.4 643.9 326.1 640 324.7 636.1 C 323.3 632.1 321.7 628.2 320 624.2 C 318.3 620.2 316.4 616.1 314.4 612 C 312.4 607.8 310.3 603.6 308.2 599.2 C 306.2 594.9 304 590.5 302.1 585.9 C 300.1 581.4 298.1 576.7 296.4 572 C 294.7 567.3 293.1 562.5 291.9 557.7 C 290.7 552.8 289.7 547.9 289.1 543.1 C 288.6 538.2 288.3 533.3 288.5 528.5 C 288.7 523.7 289.3 518.9 290.4 514.3 C 291.4 509.7 292.9 505.2 294.8 500.9 C 296.7 496.6 299.1 492.4 301.8 488.5 C 304.6 484.5 307.7 480.8 311.2 477.3 C 314.6 473.8 318.4 470.5 322.4 467.4 C 326.3 464.4 330.6 461.6 334.9 458.9 C 339.3 456.3 343.8 453.9 348.4 451.7 C 352.9 449.4 357.6 447.4 362.1 445.4 C 366.7 443.4 371.3 441.7 375.8 439.9 C 380.2 438.1 384.6 436.5 388.9 434.8 C 393.2 433.2 397.3 431.6 401.3 429.9 C 405.4 428.3 409.2 426.6 413 424.9 C 416.8 423.3 420.4 421.5 423.9 419.8 C 427.5 418 430.9 416.2 434.2 414.4 C 437.6 412.6 440.9 410.7 444.2 408.9 C 447.5 407 450.7 405.1 453.9 403.3 C 457.2 401.5 460.4 399.7 463.7 398 C 467 396.3 470.3 394.7 473.6 393 C 476.9 391.3 480.1 389.6 483.4 387.9 C 486.7 386.3 490 384.7 493.3 383.2 C 496.7 381.7 500.1 380.4 503.6 379.1 C 507 377.9 510.5 376.7 514 375.6 C 517.5 374.6 521 373.6 524.5 372.6 C 528.1 371.7 531.6 370.8 535.2 370 C 538.7 369.2 542.3 368.4 545.8 367.6 C 549.4 366.9 553 366.1 556.5 365.4 C 560.1 364.7 563.7 364 567.3 363.2 C 570.9 362.5 574.5 361.8 578.1 361.2 C 581.7 360.5 585.3 359.8 589 359.2 C 592.7 358.5 596.4 357.9 600.1 357.4 C 603.8 356.8 607.5 356.2 611.3 355.8 C 615 355.4 618.8 355 622.6 354.7 C 626.4 354.4 630.2 354.3 634 354.3 C 637.8 354.3 641.7 354.4 645.5 354.7 C 649.3 355.1 653.1 355.6 656.8 356.4 C 660.5 357.2 664.2 358.2 667.8 359.5 C 671.3 360.8 674.9 362.4 678.2 364.2 C 681.6 366.1 684.8 368.3 687.9 370.8 C 690.9 373.3 693.7 376.3 696.5 379.1 C 699.3 381.9 702.1 384.7 704.7 387.6 C 707.3 390.6 709.7 393.7 712.1 396.7 C 714.5 399.8 716.7 402.9 719 405.9 C 721.3 408.9 723.5 411.9 725.7 414.7 C 728 417.5 730.2 420.2 732.6 422.7 C 735 425.1 737.4 427.4 740 429.5 C 742.7 431.6 745.4 433.5 748.4 435.2 C 751.3 436.9 754.5 438.4 757.8 439.8 C 761.2 441.1 764.8 442.3 768.6 443.4 C 772.4 444.5 776.5 445.4 780.7 446.4 C 784.9 447.4 789.4 448.3 793.9 449.3 C 798.5 450.3 803.2 451.3 807.9 452.5 C 812.7 453.6 817.6 454.9 822.3 456.3 C 827.1 457.8 832 459.4 836.6 461.3 C 841.3 463.1 845.9 465.2 850.2 467.5 C 854.6 469.9 858.8 472.4 862.7 475.2 C 866.6 478.1 870.3 481.1 873.7 484.4 C 877 487.7 880.1 491.2 882.8 494.9 C 885.6 498.5 888 502.4 890.1 506.4 C 892.2 510.4 893.9 514.6 895.4 518.9 C 896.9 523.1 898.1 527.5 899 531.9 C 900 536.3 900.7 540.7 901.2 545.2 C 901.7 549.7 902 554.2 902.3 558.7 C 902.5 563.2 902.5 567.7 902.5 572.2 C 902.5 576.6 902.4 581.1 902.2 585.5 C 902.1 590 901.9 594.4 901.7 598.8 C 901.4 603.2 901.2 607.6 900.9 612 Z" fill="none" stroke="#6FEFC6" stroke-opacity="0.36" stroke-width="1.80"/>
    <line x1="106.8" y1="918" x2="1125.8" y2="857.8" stroke="#6FEFC6" stroke-opacity="0.090" stroke-width="1.3"/>
    <line x1="218.5" y1="943.4" x2="1017.9" y2="896.2" stroke="#6FEFC6" stroke-opacity="0.063" stroke-width="1.3"/>
    <line x1="330.4" y1="972.9" x2="910.2" y2="938.7" stroke="#6FEFC6" stroke-opacity="0.036" stroke-width="1.3"/>
    <line x1="-283.9" y1="911" x2="1513" y2="804.9" stroke="#E9F5EF" stroke-opacity="0.5" stroke-width="2"/>
    <line x1="-84.2" y1="899.2" x2="-83.7" y2="908.2" stroke="#E9F5EF" stroke-opacity="0.22" stroke-width="1.4"/>
    <line x1="15.6" y1="893.3" x2="16.1" y2="902.3" stroke="#E9F5EF" stroke-opacity="0.22" stroke-width="1.4"/>
    <line x1="115.4" y1="887.4" x2="116" y2="896.4" stroke="#E9F5EF" stroke-opacity="0.22" stroke-width="1.4"/>
    <line x1="215.3" y1="881.5" x2="215.8" y2="890.5" stroke="#E9F5EF" stroke-opacity="0.22" stroke-width="1.4"/>
    <line x1="315.1" y1="875.6" x2="315.6" y2="884.6" stroke="#E9F5EF" stroke-opacity="0.22" stroke-width="1.4"/>
    <line x1="414.9" y1="869.7" x2="415.4" y2="878.7" stroke="#E9F5EF" stroke-opacity="0.22" stroke-width="1.4"/>
    <line x1="514.7" y1="863.8" x2="515.3" y2="872.8" stroke="#E9F5EF" stroke-opacity="0.22" stroke-width="1.4"/>
    <line x1="614.6" y1="857.9" x2="615.1" y2="866.9" stroke="#E9F5EF" stroke-opacity="0.22" stroke-width="1.4"/>
    <line x1="714.4" y1="852.1" x2="714.9" y2="861" stroke="#E9F5EF" stroke-opacity="0.22" stroke-width="1.4"/>
    <line x1="814.2" y1="846.2" x2="814.7" y2="855.1" stroke="#E9F5EF" stroke-opacity="0.22" stroke-width="1.4"/>
    <line x1="914" y1="840.3" x2="914.6" y2="849.2" stroke="#E9F5EF" stroke-opacity="0.22" stroke-width="1.4"/>
    <line x1="1013.9" y1="834.4" x2="1014.4" y2="843.4" stroke="#E9F5EF" stroke-opacity="0.22" stroke-width="1.4"/>
    <line x1="1113.7" y1="828.5" x2="1114.2" y2="837.5" stroke="#E9F5EF" stroke-opacity="0.22" stroke-width="1.4"/>
    <line x1="1213.5" y1="822.6" x2="1214.1" y2="831.6" stroke="#E9F5EF" stroke-opacity="0.22" stroke-width="1.4"/>
    <line x1="1313.3" y1="816.7" x2="1313.9" y2="825.7" stroke="#E9F5EF" stroke-opacity="0.22" stroke-width="1.4"/>
    <line x1="-317.7" y1="338.3" x2="1479.2" y2="232.2" stroke="#E9F5EF" stroke-opacity="0.25" stroke-width="1.7"/>
    <line x1="461.5" y1="867" x2="773.2" y2="848.6" stroke="#D9FFF1" stroke-opacity="0.55" stroke-width="2.6"/>
    <circle cx="600" cy="612" r="4.5" fill="#E9F5EF"/>
       <circle cx="600" cy="612" r="12" fill="none" stroke="#6FEFC6" stroke-opacity="0.7" stroke-width="1.8"/>
    
    <circle cx="597.5" cy="568.8" r="6" fill="#E9F5EF"/>
    <circle cx="597.5" cy="568.8" r="12" fill="none" stroke="#E9F5EF" stroke-opacity="0.4" stroke-width="1.3"/>
  </g><!--/GEOM-->
  <g font-family="ui-monospace, 'Cascadia Mono', Menlo, Consolas, monospace" font-size="19" letter-spacing="2.5">
    <text x="72" y="1150" fill="#7E9A8F" fill-opacity="0.85">HWA 269/333 · SCALP</text>
    <text x="1128" y="1150" text-anchor="end" fill="#6FEFC6" fill-opacity="0.62">LONG 8X · -2.0% · SIM</text>
  </g>
</svg>
